{
.appVersion = "965";
DisplayStrings = (
/Ecircumflexdotbelow,
"\U00E4",
U/Utilde
);
copyright = "Copyright 2013 The Arvo Project Authors (anton@korkork.com), with Reserved Font Name \"Arvo\".";
customParameters = (
{
name = license;
value = "This Font Software is licensed under the SIL Open Font License, Version 1.1. This license is available with a FAQ at: http://scripts.sil.org/OFL";
},
{
name = vendorID;
value = KORK;
},
{
name = licenseURL;
value = "http://scripts.sil.org/OFL";
},
{
name = fsType;
value = (
);
},
{
name = "Use Typo Metrics";
value = 1;
},
{
name = "Disable Last Change";
value = 1;
},
{
name = "Use Line Breaks";
value = 1;
}
);
date = "2016-08-13 21:52:47 +0000";
designer = "Anton Koovit (Cyrillic Expansion: Cyreal)";
designerURL = "http://anton.korkork.com";
disablesNiceNames = 1;
familyName = Arvo;
featurePrefixes = (
{
automatic = 1;
code = "languagesystem DFLT dflt;
languagesystem latn dflt;
languagesystem cyrl dflt;
languagesystem cyrl SRB;
languagesystem cyrl MKD;
languagesystem cyrl BGR;
";
name = Languagesystems;
}
);
features = (
{
automatic = 1;
code = "feature ccmp;
feature locl;
feature subs;
feature sups;
feature frac;
feature ordn;
feature salt;
feature ss01;
";
name = aalt;
},
{
automatic = 1;
code = "lookup ccmp_Other_1 {
	@CombiningTopAccents = [acutecomb brevecomb caroncomb circumflexcomb dieresiscomb dotaccentcomb gravecomb hookabovecomb hungarumlautcomb macroncomb ringcomb tildecomb];
	@CombiningNonTopAccents = [cedillacomb dotbelowcomb ogonekcomb horncomb strokeshortcomb];
	sub [i]' @CombiningTopAccents by [idotless];
	sub [i]' @CombiningNonTopAccents @CombiningTopAccents by [idotless];
} ccmp_Other_1;

lookup ccmp_latn_1 {
	script latn;
	lookupflag 0;
	sub brevecomb acutecomb by brevecomb_acutecomb;
	sub brevecomb gravecomb by brevecomb_gravecomb;
	sub brevecomb hookabovecomb by brevecomb_hookabovecomb;
	sub brevecomb tildecomb by brevecomb_tildecomb;
	sub circumflexcomb acutecomb by circumflexcomb_acutecomb;

glyphs = (
{
glyphname = A;
layers = (
{
anchors = (
{
name = top;
position = "{517, 740}";
}
);
layerId = "EEC59083-BA83-4EFB-8B50-D01213A5FD15";
paths = (
{
closed = 1;
nodes = (
"488 0 LINE",
"728 0 LINE",
"747 84 LINE",
"674 84 LINE",
"597 740 LINE",
"439 740 LINE",
"68 84 LINE",
"4 84 LINE",
"-15 0 LINE",
"225 0 LINE",
"244 84 LINE",
"177 84 LINE",
"270 251 LINE",
"551 251 LINE",
"569 84 LINE",
"507 84 LINE"
);
},
{
closed = 1;
nodes = (
"505 671 LINE",
"541 335 LINE",
"317 335 LINE"
);
}
);
width = 711;
},
{
anchors = (
{
name = top;
position = "{512, 740}";
}
);
layerId = "8956C7A5-95B5-4256-B2D2-E489185594C4";
paths = (
{
closed = 1;
nodes = (
"447 0 LINE",
"746 0 LINE",
"777 134 LINE",
"683 134 LINE",
"628 740 LINE",
"415 740 LINE",
"78 134 LINE",
"16 134 LINE",
"-15 0 LINE",
"284 0 LINE",
"315 134 LINE",
"253 134 LINE",
"307 236 LINE",
"511 236 LINE",
"519 134 LINE",
"478 134 LINE"
);
},
{
closed = 1;
nodes = (
"486 573 LINE",
"501 377 LINE",
"382 377 LINE"
);
}
);
width = 760;
}
);
leftKerningGroup = A;
rightKerningGroup = A;
unicode = 0041;
},
{
color = 6;
glyphname = Aogonek;
layers = (
{
background = {
paths = (
{
closed = 1;
nodes = (
"-77 134 LINE",
"-15 134 LINE",
"322 740 LINE",
"535 740 LINE",
"590 134 LINE",
"684 134 LINE",
"653 0 LINE",
"558 0 LINE",
"513 0 LINE",
"443 -19 LINE",
"396 -50 LINE",
"371 -87 LINE",
"371 -105 LINE",
"371 -124 LINE",
"395 -138 LINE",
"406 -138 LINE",
"425 -138 LINE",
"451 -132 LINE",
"461 -127 LINE",
"485 -210 LINE",
"474 -216 LINE",
"424 -230 LINE",
"398 -230 LINE",
"368 -230 LINE",
"317 -216 LINE",
"278 -190 LINE",
"256 -152 LINE",
"256 -127 LINE",
"256 -85 LINE",
"314 -22 LINE",
"354 0 LINE",
"385 134 LINE",
"426 134 LINE",
"418 236 LINE",
"214 236 LINE",
"160 134 LINE",
"222 134 LINE",
"191 0 LINE",
"-108 0 LINE"
);
},
{
closed = 1;
nodes = (
"289 377 LINE",
"407 377 LINE",
"393 573 LINE"
);
},
{
closed = 1;
nodes = (
"-58 760 LINE",
"664 760 LINE",
"664 0 LINE",
"-58 0 LINE"
);
}
);
};
layerId = "8956C7A5-95B5-4256-B2D2-E489185594C4";
paths = (
{
closed = 1;
nodes = (
"571 47 LINE",
"497 31 OFFCURVE",
"349 -27 OFFCURVE",
"349 -127 CURVE SMOOTH",
"349 -193 OFFCURVE",
"412 -230 OFFCURVE",
"491 -230 CURVE SMOOTH",
"526 -230 OFFCURVE",
"564 -218 OFFCURVE",
"578 -210 CURVE",
"554 -127 LINE",
"541 -133 OFFCURVE",
"524 -138 OFFCURVE",
"499 -138 CURVE SMOOTH",
"485 -138 OFFCURVE",
"464 -130 OFFCURVE",
"464 -105 CURVE SMOOTH",
"464 -57 OFFCURVE",
"531 0 OFFCURVE",
"651 0 CURVE"
);
},
{
closed = 1;
nodes = (
"-15 0 LINE",
"284 0 LINE",
"315 134 LINE",
"16 134 LINE"
);
},
{
closed = 1;
nodes = (
"447 0 LINE",
"746 0 LINE",
"777 134 LINE",
"478 134 LINE"
);
},
{
closed = 1;
nodes = (
"208 236 LINE",
"564 236 LINE",
"538 377 LINE",
"293 377 LINE"
);
},
{
closed = 1;
nodes = (
"62 104 LINE",
"237 104 LINE",
"486 573 LINE",
"521 106 LINE",
"686 106 LINE",
"628 740 LINE",
"415 740 LINE"
);
}
);
width = 760;
},
{
background = {
paths = (
{
closed = 1;
nodes = (
"-77 134 LINE",
"-15 134 LINE",
"322 740 LINE",
"535 740 LINE",
"590 134 LINE",
"684 134 LINE",
"653 0 LINE",
"558 0 LINE",
"513 0 LINE",
"443 -19 LINE",
"396 -50 LINE",
"371 -87 LINE",
"371 -105 LINE",
"371 -124 LINE",
"395 -138 LINE",
"406 -138 LINE",
"425 -138 LINE",
"451 -132 LINE",
"461 -127 LINE",
"485 -210 LINE",
"474 -216 LINE",
"424 -230 LINE",
"398 -230 LINE",
"368 -230 LINE",
"317 -216 LINE",
"278 -190 LINE",
"256 -152 LINE",
"256 -127 LINE",
"256 -85 LINE",
"314 -22 LINE",
"354 0 LINE",
"385 134 LINE",
"426 134 LINE",
"418 236 LINE",
"214 236 LINE",
"160 134 LINE",
"222 134 LINE",
"191 0 LINE",
"-108 0 LINE"
);
},
{
closed = 1;
nodes = (
"289 377 LINE",
"407 377 LINE",
"393 573 LINE"
);
},
{
closed = 1;
nodes = (
"-58 760 LINE",
"664 760 LINE",
"664 0 LINE",
"-58 0 LINE"
);
}
);
};
layerId = "EEC59083-BA83-4EFB-8B50-D01213A5FD15";
paths = (
{
closed = 1;
nodes = (
"578 39 LINE",
"521 24 OFFCURVE",
"405 -27 OFFCURVE",
"405 -127 CURVE SMOOTH",
"405 -193 OFFCURVE",
"463 -230 OFFCURVE",
"542 -230 CURVE SMOOTH",
"579 -230 OFFCURVE",
"612 -219 OFFCURVE",
"629 -209 CURVE",
"608 -147 LINE",
"595 -153 OFFCURVE",
"570 -158 OFFCURVE",
"545 -158 CURVE SMOOTH",
"512 -158 OFFCURVE",
"490 -137 OFFCURVE",
"490 -110 CURVE SMOOTH",
"490 -61 OFFCURVE",
"554 -1 OFFCURVE",
"662 0 CURVE"
);
},
{
closed = 1;
nodes = (
"-15 0 LINE",
"225 0 LINE",
"244 84 LINE",
"4 84 LINE"
);
},
{
closed = 1;
nodes = (
"488 0 LINE",
"728 0 LINE",
"747 84 LINE",
"507 84 LINE"
);
},
{
closed = 1;
nodes = (
"236 251 LINE",
"600 251 LINE",
"587 335 LINE",
"284 335 LINE"
);
},
{
closed = 1;
nodes = (
"43 40 LINE",
"153 40 LINE",
"505 671 LINE",
"574 42 LINE",
"679 42 LINE",
"597 740 LINE",
"439 740 LINE"
);
}
);
width = 711;
}
);
leftKerningGroup = A;
rightKerningGroup = A;
unicode = 0104;
},
{
glyphname = AE;
layers = (
{
layerId = "EEC59083-BA83-4EFB-8B50-D01213A5FD15";
paths = (
{
closed = 1;
nodes = (
"214 0 LINE",
"220 28 OFFCURVE",
"226 56 OFFCURVE",
"233 84 CURVE",
"173 84 LINE",
"214 140 OFFCURVE",
"255 195 OFFCURVE",
"296 251 CURVE",
"497 251 LINE",
"485 195 OFFCURVE",
"472 140 OFFCURVE",
"459 84 CURVE",
"394 84 LINE",
"388 56 OFFCURVE",
"381 28 OFFCURVE",
"375 0 CURVE",
"905 0 LINE",
"921 71 OFFCURVE",
"937 141 OFFCURVE",
"954 212 CURVE",
"852 212 LINE",
"842 169 OFFCURVE",
"832 126 OFFCURVE",
"822 84 CURVE",
"561 84 LINE",
"580 167 OFFCURVE",
"599 251 OFFCURVE",
"619 335 CURVE",
"835 335 LINE",
"842 363 OFFCURVE",
"849 391 OFFCURVE",
"856 419 CURVE",
"638 419 LINE",
"656 498 OFFCURVE",
"674 577 OFFCURVE",
"692 656 CURVE",
"956 656 LINE",
"946 613 OFFCURVE",
"936 571 OFFCURVE",
"926 529 CURVE",
"1027 529 LINE",
"1043 599 OFFCURVE",
"1059 670 OFFCURVE",
"1076 740 CURVE",
"538 740 LINE",
"377 521 OFFCURVE",
"216 303 OFFCURVE",
"55 84 CURVE",
"-7 84 LINE",
"-14 56 OFFCURVE",
"-20 28 OFFCURVE",
"-26 0 CURVE"
);
},
{
closed = 1;
nodes = (
"358 335 LINE",
"435 439 OFFCURVE",
"512 544 OFFCURVE",
"589 648 CURVE",
"565 544 OFFCURVE",
"541 439 OFFCURVE",
"517 335 CURVE"
);
}
);
width = 972;
},
{
layerId = "8956C7A5-95B5-4256-B2D2-E489185594C4";
paths = (
{
closed = 1;
nodes = (
"304 0 LINE",
"314 44 OFFCURVE",
"325 89 OFFCURVE",
"335 134 CURVE",
"264 134 LINE",
"290 168 OFFCURVE",
"317 202 OFFCURVE",
"343 236 CURVE",
"540 236 LINE",
"526 177 OFFCURVE",
"512 118 OFFCURVE",
"499 59 CURVE",
"499 59 LINE",
"494 40 OFFCURVE",
"489 20 OFFCURVE",
"485 0 CURVE",
"1020 0 LINE",
"1041 88 OFFCURVE",
"1061 177 OFFCURVE",
"1081 265 CURVE",
"910 265 LINE",
"900 221 OFFCURVE",
"890 178 OFFCURVE",
"880 134 CURVE",
"687 134 LINE",
"700 191 OFFCURVE",
"713 248 OFFCURVE",
"727 305 CURVE",
"891 305 LINE",
"902 353 OFFCURVE",
"913 399 OFFCURVE",
"924 447 CURVE",
"759 447 LINE",
"772 500 OFFCURVE",
"784 553 OFFCURVE",
"796 606 CURVE",
"1002 606 LINE",
"993 566 OFFCURVE",
"984 527 OFFCURVE",
"975 488 CURVE",
"1146 488 LINE",
"1166 572 OFFCURVE",
"1185 656 OFFCURVE",
"1204 740 CURVE",
"544 740 LINE",
"387 538 OFFCURVE",
"229 336 OFFCURVE",
"72 134 CURVE",
"5 134 LINE",
"-5 89 OFFCURVE",
"-16 44 OFFCURVE",
"-26 0 CURVE"
);
},
{
closed = 1;
nodes = (
"453 377 LINE",
"509 450 OFFCURVE",
"566 523 OFFCURVE",
"623 596 CURVE",
"606 523 OFFCURVE",
"589 450 OFFCURVE",
"572 377 CURVE"
);
}
);
width = 1269;
}
);
leftKerningGroup = A;
rightKerningGroup = E;
unicode = 00C6;
},
{
glyphname = B;
layers = (
{
anchors = (
{
name = top;
position = "{511, 740}";
}
);
layerId = "EEC59083-BA83-4EFB-8B50-D01213A5FD15";
paths = (
{
closed = 1;
nodes = (
"88 0 LINE",
"424 0 LINE SMOOTH",
"571 0 OFFCURVE",
"689 90 OFFCURVE",
"689 227 CURVE SMOOTH",
"689 287 OFFCURVE",
"664 336 OFFCURVE",
"622 368 CURVE",
"707 401 OFFCURVE",
"757 470 OFFCURVE",
"757 562 CURVE SMOOTH",
"757 666 OFFCURVE",
"694 740 OFFCURVE",
"583 740 CURVE SMOOTH",
"252 740 LINE",
"232 656 LINE",
"304 656 LINE",
"172 84 LINE",
"107 84 LINE"
);
},
{
closed = 1;
nodes = (
"495 329 LINE",
"548 329 OFFCURVE",
"583 285 OFFCURVE",
"583 219 CURVE SMOOTH",
"583 143 OFFCURVE",
"526 84 OFFCURVE",
"438 84 CURVE SMOOTH",
"274 84 LINE",
"330 329 LINE"
);
},
{
closed = 1;
nodes = (
"563 656 LINE",
"622 656 OFFCURVE",
"651 608 OFFCURVE",
"651 547 CURVE SMOOTH",
"651 468 OFFCURVE",
"589 414 OFFCURVE",
"511 414 CURVE SMOOTH",
"350 414 LINE",
"405 656 LINE"
);
}
);
width = 732;
},
{
anchors = (
{
name = top;
position = "{540, 740}";
}
);
layerId = "8956C7A5-95B5-4256-B2D2-E489185594C4";
paths = (
{
closed = 1;
nodes = (
"88 0 LINE",
"478 0 LINE SMOOTH",
"649 0 OFFCURVE",
"758 81 OFFCURVE",
"758 242 CURVE SMOOTH",
"758 291 OFFCURVE",
"739 333 OFFCURVE",
"701 365 CURVE",
"787 405 OFFCURVE",
"818 478 OFFCURVE",
"818 553 CURVE SMOOTH",
"818 660 OFFCURVE",
"749 740 OFFCURVE",
"624 740 CURVE SMOOTH",
"250 740 LINE",
"219 606 LINE",
"303 606 LINE",
"194 134 LINE",
"119 134 LINE"
);
},
{
closed = 1;
nodes = (
"525 306 LINE",
"569 306 OFFCURVE",
"592 277 OFFCURVE",
"592 239 CURVE SMOOTH",
"592 177 OFFCURVE",
"554 134 OFFCURVE",
"486 134 CURVE SMOOTH",
"365 134 LINE",
"405 306 LINE"
);
},
{
closed = 1;
nodes = (
"582 606 LINE",
"629 606 OFFCURVE",
"653 573 OFFCURVE",
"653 534 CURVE SMOOTH",
"653 477 OFFCURVE",
"608 440 OFFCURVE",
"549 440 CURVE SMOOTH",
"436 440 LINE",
"475 606 LINE"
);
}
);
width = 900;
}
);
leftKerningGroup = I;
rightKerningGroup = B;
unicode = 0042;
},
{
glyphname = C;
layers = (
{
anchors = (
{
name = bottom;
position = "{285, 0}";
},
{
name = top;
position = "{438, 740}";
}
);
layerId = "EEC59083-BA83-4EFB-8B50-D01213A5FD15";
paths = (
{
closed = 1;
nodes = (
"559 207 LINE",
"503 126 OFFCURVE",
"429 85 OFFCURVE",
"331 85 CURVE SMOOTH",
"219 85 OFFCURVE",
"118 178 OFFCURVE",
"118 328 CURVE SMOOTH",
"118 508 OFFCURVE",
"245 657 OFFCURVE",
"417 657 CURVE SMOOTH",
"507 657 OFFCURVE",
"575 611 OFFCURVE",
"603 544 CURVE",
"738 544 LINE",
"758 628 LINE",
"681 628 LINE",
"627 706 OFFCURVE",
"537 754 OFFCURVE",
"428 754 CURVE SMOOTH",
"187 754 OFFCURVE",
"9 565 OFFCURVE",
"9 320 CURVE SMOOTH",
"9 130 OFFCURVE",
"142 -12 OFFCURVE",
"320 -12 CURVE SMOOTH",
"469 -12 OFFCURVE",
"577 51 OFFCURVE",
"653 157 CURVE"
);
}
);
width = 717;
},
{
anchors = (
{
name = bottom;
position = "{295, 0}";
},
{
name = top;
position = "{454, 740}";
}
);
layerId = "8956C7A5-95B5-4256-B2D2-E489185594C4";
paths = (
{
closed = 1;
nodes = (
"494 244 LINE",
"458 191 OFFCURVE",
"405 149 OFFCURVE",
"333 149 CURVE SMOOTH",
"243 149 OFFCURVE",
"186 216 OFFCURVE",
"186 313 CURVE SMOOTH",
"186 457 OFFCURVE",
"300 590 OFFCURVE",
"433 590 CURVE SMOOTH",
"496 590 OFFCURVE",
"540 559 OFFCURVE",
"557 515 CURVE",
"747 515 LINE",
"778 649 LINE",
"685 649 LINE",
"636 713 OFFCURVE",
"559 754 OFFCURVE",
"454 754 CURVE SMOOTH",
"232 754 OFFCURVE",
"9 574 OFFCURVE",
"9 297 CURVE SMOOTH",
"9 111 OFFCURVE",
"137 -15 OFFCURVE",
"314 -15 CURVE SMOOTH",
"461 -15 OFFCURVE",
"575 51 OFFCURVE",
"649 167 CURVE"
);
}
);
width = 792;
}
);
leftKerningGroup = O;
rightKerningGroup = C;
unicode = 0043;
},
{
color = 6;
glyphname = Cacute;
layers = (
{
background = {
paths = (
{
closed = 1;
nodes = (
"474 590 LINE",
"441 590 LINE",
"378 569 LINE",
"323 531 LINE",
"278 479 LINE",
"245 418 LINE",
"227 349 LINE",
"227 313 LINE",
"227 276 LINE",
"248 216 LINE",
"286 173 LINE",
"340 149 LINE",
"374 149 LINE",
"401 149 LINE",
"448 164 LINE",
"488 189 LINE",
"521 224 LINE",
"535 244 LINE",
"690 167 LINE",
"634 79 LINE",
"466 -15 LINE",
"355 -15 LINE",
"289 -15 LINE",
"177 30 LINE",
"95 112 LINE",
"50 227 LINE",
"50 297 LINE",
"50 366 LINE",
"85 488 LINE",
"147 589 LINE",
"231 669 LINE",
"331 725 LINE",
"439 754 LINE",
"495 754 LINE",
"540 754 LINE",
"615 735 LINE",
"677 701 LINE",
"715 664 LINE",
"726 649 LINE",
"819 649 LINE",
"788 515 LINE",
"598 515 LINE",
"585 548 LINE",
"521 590 LINE"
);
},
{
closed = 1;
nodes = (
"364 921 LINE",
"523 921 LINE",
"523 909 LINE",
"374 769 LINE",
"259 769 LINE"
);
},
{
closed = 1;
nodes = (
"0 760 LINE",
"729 760 LINE",
"729 0 LINE",
"0 0 LINE"
);
}
);
};
components = (
{
name = C;
},
{
name = acute;
transform = "{1, 0, 0, 1, 427, 234}";
}
);
layerId = "8956C7A5-95B5-4256-B2D2-E489185594C4";
width = 792;
},
{
background = {
paths = (
{
closed = 1;
nodes = (
"474 590 LINE",
"441 590 LINE",
"378 569 LINE",
"323 531 LINE",
"278 479 LINE",
"245 418 LINE",
"227 349 LINE",
"227 313 LINE",
"227 276 LINE",
"248 216 LINE",
"286 173 LINE",
"340 149 LINE",
"374 149 LINE",
"401 149 LINE",
"448 164 LINE",
"488 189 LINE",
"521 224 LINE",
"535 244 LINE",
"690 167 LINE",
"634 79 LINE",
"466 -15 LINE",
"355 -15 LINE",
"289 -15 LINE",
"177 30 LINE",
"95 112 LINE",
"50 227 LINE",
"50 297 LINE",
"50 366 LINE",
"85 488 LINE",
"147 589 LINE",
"231 669 LINE",
"331 725 LINE",
"439 754 LINE",
"495 754 LINE",
"540 754 LINE",
"615 735 LINE",
"677 701 LINE",
"715 664 LINE",
"726 649 LINE",
"819 649 LINE",
"788 515 LINE",
"598 515 LINE",
"585 548 LINE",
"521 590 LINE"
);
},
{
closed = 1;
nodes = (
"364 921 LINE",
"523 921 LINE",
"523 909 LINE",
"374 769 LINE",
"259 769 LINE"
);
},
{
closed = 1;
nodes = (
"0 760 LINE",
"729 760 LINE",
"729 0 LINE",
"0 0 LINE"
);
}
);
};
components = (
{
name = C;
},
{
name = acute;
transform = "{1, 0, 0, 1, 412, 234}";
}
);
layerId = "EEC59083-BA83-4EFB-8B50-D01213A5FD15";
width = 717;
}
);
leftKerningGroup = O;
rightKerningGroup = C;
unicode = 0106;
},
{
glyphname = D;
layers = (
{
anchors = (
{
name = top;
position = "{593, 740}";
}
);
layerId = "EEC59083-BA83-4EFB-8B50-D01213A5FD15";
paths = (
{
closed = 1;
nodes = (
"246 656 LINE",
"310 656 LINE",
"178 84 LINE",
"114 84 LINE",
"95 0 LINE",
"377 0 LINE SMOOTH",
"625 0 OFFCURVE",
"817 171 OFFCURVE",
"817 427 CURVE SMOOTH",
"817 599 OFFCURVE",
"707 740 OFFCURVE",
"534 740 CURVE SMOOTH",
"266 740 LINE"
);
},
{
closed = 1;
nodes = (
"521 656 LINE",
"636 656 OFFCURVE",
"710 545 OFFCURVE",
"710 419 CURVE SMOOTH",
"710 217 OFFCURVE",
"550 84 OFFCURVE",
"388 84 CURVE SMOOTH",
"280 84 LINE",
"411 656 LINE"
);
}
);
width = 762;
},
{
anchors = (
{
name = top;
position = "{569, 740}";
}
);
layerId = "8956C7A5-95B5-4256-B2D2-E489185594C4";
paths = (
{
closed = 1;
nodes = (
"235 606 LINE",
"311 606 LINE",
"202 134 LINE",
"126 134 LINE",
"95 0 LINE",
"403 0 LINE SMOOTH",
"697 0 OFFCURVE",
"869 193 OFFCURVE",
"869 436 CURVE SMOOTH",
"869 629 OFFCURVE",
"742 740 OFFCURVE",
"563 740 CURVE SMOOTH",
"266 740 LINE"
);
},
{
closed = 1;
nodes = (
"534 606 LINE",
"616 606 OFFCURVE",
"691 558 OFFCURVE",
"691 422 CURVE SMOOTH",
"691 264 OFFCURVE",
"567 134 OFFCURVE",
"425 134 CURVE SMOOTH",
"373 134 LINE",
"482 606 LINE"
);
}
);
width = 899;
}
);
leftKerningGroup = I;
rightKerningGroup = D;
unicode = 0044;
},
{
color = 6;
glyphname = Dcaron;
layers = (
{
background = {
paths = (
{
closed = 1;
nodes = (
"201 740 LINE",
"498 740 LINE",
"565 740 LINE",
"677 699 LINE",
"759 622 LINE",
"804 508 LINE",
"804 436 LINE",
"804 375 LINE",
"776 263 LINE",
"721 167 LINE",
"641 87 LINE",
"538 31 LINE",
"411 0 LINE",
"338 0 LINE",
"30 0 LINE",
"61 134 LINE",
"137 134 LINE",
"246 606 LINE",
"170 606 LINE"
);
},
{
closed = 1;
nodes = (
"417 606 LINE",
"308 134 LINE",
"360 134 LINE",
"396 134 LINE",
"462 155 LINE",
"521 192 LINE",
"571 245 LINE",
"606 309 LINE",
"626 382 LINE",
"626 422 LINE",
"626 473 LINE",
"600 543 LINE",
"557 587 LINE",
"500 606 LINE",
"469 606 LINE"
);
},
{
closed = 1;
nodes = (
"589 928 LINE",
"415 770 LINE",
"298 770 LINE",
"202 928 LINE",
"323 928 LINE",
"370 852 LINE",
"454 928 LINE"
);
},
{
closed = 1;
nodes = (
"0 760 LINE",
"774 760 LINE",
"774 0 LINE",
"0 0 LINE"
);
}
);
};
components = (
{
name = D;
},
{
name = caron;
transform = "{1, 0, 0, 1, 455, 234}";
}
);
layerId = "8956C7A5-95B5-4256-B2D2-E489185594C4";
width = 899;
},
{
background = {
paths = (
{
closed = 1;
nodes = (
"201 740 LINE",
"498 740 LINE",
"565 740 LINE",
"677 699 LINE",
"759 622 LINE",
"804 508 LINE",
"804 436 LINE",
"804 375 LINE",
"776 263 LINE",
"721 167 LINE",
"641 87 LINE",
"538 31 LINE",
"411 0 LINE",
"338 0 LINE",
"30 0 LINE",
"61 134 LINE",
"137 134 LINE",
"246 606 LINE",
"170 606 LINE"
);
},
{
closed = 1;
nodes = (
"417 606 LINE",
"308 134 LINE",
"360 134 LINE",
"396 134 LINE",
"462 155 LINE",
"521 192 LINE",
"571 245 LINE",
"606 309 LINE",
"626 382 LINE",
"626 422 LINE",
"626 473 LINE",
"600 543 LINE",
"557 587 LINE",
"500 606 LINE",
"469 606 LINE"
);
},
{
closed = 1;
nodes = (
"589 928 LINE",
"415 770 LINE",
"298 770 LINE",
"202 928 LINE",
"323 928 LINE",
"370 852 LINE",
"454 928 LINE"
);
},
{
closed = 1;
nodes = (
"0 760 LINE",
"774 760 LINE",
"774 0 LINE",
"0 0 LINE"
);
}
);
};
components = (
{
name = D;
},
{
name = caron;
transform = "{1, 0, 0, 1, 510, 234}";
}
);
layerId = "EEC59083-BA83-4EFB-8B50-D01213A5FD15";
width = 762;
}
);
leftKerningGroup = I;
rightKerningGroup = D;
unicode = 010E;
},
{
glyphname = E;
layers = (
{
anchors = (
{
name = bottom;
position = "{389, 0}";
},
{
name = ogonek;
position = "{665, 10}";
},
{
name = top;
position = "{569, 740}";
},
{
name = topleft;
position = "{234, 740}";
}
);
layerId = "EEC59083-BA83-4EFB-8B50-D01213A5FD15";
paths = (
{
closed = 1;
nodes = (
"232 656 LINE",
"304 656 LINE",
"172 84 LINE",
"107 84 LINE",
"88 0 LINE",
"618 0 LINE",
"667 212 LINE",
"565 212 LINE",
"535 84 LINE",
"274 84 LINE",
"332 335 LINE",
"548 335 LINE",
"569 419 LINE",
"351 419 LINE",
"405 656 LINE",
"669 656 LINE",
"639 529 LINE",
"740 529 LINE",
"789 740 LINE",
"252 740 LINE"
);
}
);
width = 690;
},
{
anchors = (
{
name = bottom;
position = "{418, 0}";
},
{
name = ogonek;
position = "{711, 10}";
},
{
name = top;
position = "{620, 740}";
},
{
name = topleft;
position = "{240, 740}";
}
);
layerId = "8956C7A5-95B5-4256-B2D2-E489185594C4";
paths = (
{
closed = 1;
nodes = (
"219 606 LINE",
"304 606 LINE",
"195 134 LINE",
"119 134 LINE",
"88 0 LINE",
"699 0 LINE",
"760 265 LINE",
"589 265 LINE",
"559 134 LINE",
"366 134 LINE",
"406 305 LINE",
"570 305 LINE",
"603 447 LINE",
"438 447 LINE",
"475 606 LINE",
"681 606 LINE",
"654 488 LINE",
"825 488 LINE",
"883 740 LINE",
"250 740 LINE"
);
}
);
width = 947;
}
);
leftKerningGroup = I;
rightKerningGroup = E;
unicode = 0045;
},
{
color = 6;
glyphname = Ecaron;
layers = (
{
background = {
paths = (
{
closed = 1;
nodes = (
"192 740 LINE",
"825 740 LINE",
"767 488 LINE",
"596 488 LINE",
"623 606 LINE",
"417 606 LINE",
"380 447 LINE",
"545 447 LINE",
"512 305 LINE",
"348 305 LINE",
"308 134 LINE",
"501 134 LINE",
"531 265 LINE",
"702 265 LINE",
"641 0 LINE",
"30 0 LINE",
"61 134 LINE",
"137 134 LINE",
"246 606 LINE",
"161 606 LINE"
);
},
{
closed = 1;
nodes = (
"764 968 LINE",
"590 810 LINE",
"473 810 LINE",
"377 968 LINE",
"498 968 LINE",
"545 892 LINE",
"629 968 LINE"
);
},
{
closed = 1;
nodes = (
"0 760 LINE",
"735 760 LINE",
"735 0 LINE",
"0 0 LINE"
);
}
);
};
components = (
{
name = E;
},
{
name = caron;
transform = "{1, 0, 0, 1, 506, 234}";
}
);
layerId = "8956C7A5-95B5-4256-B2D2-E489185594C4";
width = 947;
},
{
background = {
paths = (
{
closed = 1;
nodes = (
"192 740 LINE",
"825 740 LINE",
"767 488 LINE",
"596 488 LINE",
"623 606 LINE",
"417 606 LINE",
"380 447 LINE",
"545 447 LINE",
"512 305 LINE",
"348 305 LINE",
"308 134 LINE",
"501 134 LINE",
"531 265 LINE",
"702 265 LINE",
"641 0 LINE",
"30 0 LINE",
"61 134 LINE",
"137 134 LINE",
"246 606 LINE",
"161 606 LINE"
);
},
{
closed = 1;
nodes = (
"764 968 LINE",
"590 810 LINE",
"473 810 LINE",
"377 968 LINE",
"498 968 LINE",
"545 892 LINE",
"629 968 LINE"
);
},
{
closed = 1;
nodes = (
"0 760 LINE",
"735 760 LINE",
"735 0 LINE",
"0 0 LINE"
);
}
);
};
components = (
{
name = E;
},
{
name = caron;
transform = "{1, 0, 0, 1, 486, 234}";
}
);
layerId = "EEC59083-BA83-4EFB-8B50-D01213A5FD15";
width = 690;
}
);
leftKerningGroup = I;
rightKerningGroup = E;
unicode = 011A;
},
{
color = 6;
glyphname = Edotaccent;
layers = (
{
background = {
paths = (
{
closed = 1;
nodes = (
"192 740 LINE",
"825 740 LINE",
"767 488 LINE",
"596 488 LINE",
"623 606 LINE",
"417 606 LINE",
"380 447 LINE",
"545 447 LINE",
"512 305 LINE",
"348 305 LINE",
"308 134 LINE",
"501 134 LINE",
"531 265 LINE",
"702 265 LINE",
"641 0 LINE",
"30 0 LINE",
"61 134 LINE",
"137 134 LINE",
"246 606 LINE",
"161 606 LINE"
);
},
{
closed = 1;
nodes = (
"437 903 LINE",
"437 921 LINE",
"451 953 LINE",
"474 977 LINE",
"506 990 LINE",
"524 990 LINE",
"542 990 LINE",
"573 977 LINE",
"597 953 LINE",
"610 921 LINE",
"610 903 LINE",
"610 885 LINE",
"597 854 LINE",
"573 830 LINE",
"542 816 LINE",
"524 816 LINE",
"506 816 LINE",
"474 830 LINE",
"451 854 LINE",
"437 885 LINE"
);
},
{
closed = 1;
nodes = (
"0 760 LINE",
"735 760 LINE",
"735 0 LINE",
"0 0 LINE"
);
}
);
};
components = (
{
name = E;
},
{
name = dotaccent;
transform = "{1, 0, 0, 1, 575, 234}";
}
);
layerId = "8956C7A5-95B5-4256-B2D2-E489185594C4";
width = 947;
},
{
background = {
paths = (
{
closed = 1;
nodes = (
"192 740 LINE",
"825 740 LINE",
"767 488 LINE",
"596 488 LINE",
"623 606 LINE",
"417 606 LINE",
"380 447 LINE",
"545 447 LINE",
"512 305 LINE",
"348 305 LINE",
"308 134 LINE",
"501 134 LINE",
"531 265 LINE",
"702 265 LINE",
"641 0 LINE",
"30 0 LINE",
"61 134 LINE",
"137 134 LINE",
"246 606 LINE",
"161 606 LINE"
);
},
{
closed = 1;
nodes = (
"437 903 LINE",
"437 921 LINE",
"451 953 LINE",
"474 977 LINE",
"506 990 LINE",
"524 990 LINE",
"542 990 LINE",
"573 977 LINE",
"597 953 LINE",
"610 921 LINE",
"610 903 LINE",
"610 885 LINE",
"597 854 LINE",
"573 830 LINE",
"542 816 LINE",
"524 816 LINE",
"506 816 LINE",
"474 830 LINE",
"451 854 LINE",
"437 885 LINE"
);
},
{
closed = 1;
nodes = (
"0 760 LINE",
"735 760 LINE",
"735 0 LINE",
"0 0 LINE"
);
}
);
};
components = (
{
name = E;
},
{
name = dotaccent;
transform = "{1, 0, 0, 1, 556, 234}";
}
);
layerId = "EEC59083-BA83-4EFB-8B50-D01213A5FD15";
width = 690;
}
);
leftKerningGroup = I;
rightKerningGroup = E;
unicode = 0116;
},
{
color = 6;
glyphname = Emacron;
layers = (
{
background = {
paths = (
{
closed = 1;
nodes = (
"192 740 LINE",
"825 740 LINE",
"767 488 LINE",
"596 488 LINE",
"623 606 LINE",
"417 606 LINE",
"380 447 LINE",
"545 447 LINE",
"512 305 LINE",
"348 305 LINE",
"308 134 LINE",
"501 134 LINE",
"531 265 LINE",
"702 265 LINE",
"641 0 LINE",
"30 0 LINE",
"61 134 LINE",
"137 134 LINE",
"246 606 LINE",
"161 606 LINE"
);
},
{
closed = 1;
nodes = (
"697 809 LINE",
"361 809 LINE",
"361 914 LINE",
"697 914 LINE"
);
},
{
closed = 1;
nodes = (
"0 760 LINE",
"735 760 LINE",
"735 0 LINE",
"0 0 LINE"
);
}
);
};
components = (
{
name = E;
},
{
name = macron;
transform = "{1, 0, 0, 1, 468, 234}";
}
);
layerId = "8956C7A5-95B5-4256-B2D2-E489185594C4";
width = 947;
},
{
background = {
paths = (
{
closed = 1;
nodes = (
"192 740 LINE",
"825 740 LINE",
"767 488 LINE",
"596 488 LINE",
"623 606 LINE",
"417 606 LINE",
"380 447 LINE",
"545 447 LINE",
"512 305 LINE",
"348 305 LINE",
"308 134 LINE",
"501 134 LINE",
"531 265 LINE",
"702 265 LINE",
"641 0 LINE",
"30 0 LINE",
"61 134 LINE",
"137 134 LINE",
"246 606 LINE",
"161 606 LINE"
);
},
{
closed = 1;
nodes = (
"697 809 LINE",
"361 809 LINE",
"361 914 LINE",
"697 914 LINE"
);
},
{
closed = 1;
nodes = (
"0 760 LINE",
"735 760 LINE",
"735 0 LINE",
"0 0 LINE"
);
}
);
};
components = (
{
name = E;
},
{
name = macroncomb;
transform = "{1, 0, 0, 1, 274, 234}";
}
);
layerId = "EEC59083-BA83-4EFB-8B50-D01213A5FD15";
width = 690;
}
);
leftKerningGroup = I;
rightKerningGroup = E;
unicode = 0112;
},
{
color = 6;
glyphname = Eogonek;
layers = (
{
background = {
paths = (
{
closed = 1;
nodes = (
"142 740 LINE",
"775 740 LINE",
"717 488 LINE",
"546 488 LINE",
"573 606 LINE",
"367 606 LINE",
"330 447 LINE",
"495 447 LINE",
"462 305 LINE",
"297 305 LINE",
"258 134 LINE",
"451 134 LINE",
"481 265 LINE",
"652 265 LINE",
"591 0 LINE",
"590 0 LINE",
"549 0 LINE",
"487 -20 LINE",
"446 -52 LINE",
"425 -89 LINE",
"425 -105 LINE",
"425 -124 LINE",
"449 -138 LINE",
"460 -138 LINE",
"479 -138 LINE",
"505 -132 LINE",
"515 -127 LINE",
"539 -210 LINE",
"528 -216 LINE",
"478 -230 LINE",
"452 -230 LINE",
"422 -230 LINE",
"371 -216 LINE",
"332 -190 LINE",
"310 -152 LINE",
"310 -127 LINE",
"310 -88 LINE",
"364 -23 LINE",
"402 0 LINE",
"-20 0 LINE",
"11 134 LINE",
"87 134 LINE",
"196 606 LINE",
"111 606 LINE"
);
},
{
closed = 1;
nodes = (
"-50 760 LINE",
"685 760 LINE",
"685 0 LINE",
"-50 0 LINE"
);
}
);
};
layerId = "8956C7A5-95B5-4256-B2D2-E489185594C4";
paths = (
{
closed = 1;
nodes = (
"656 47 LINE",
"575 47 OFFCURVE",
"418 -27 OFFCURVE",
"418 -127 CURVE SMOOTH",
"418 -193 OFFCURVE",
"481 -230 OFFCURVE",
"560 -230 CURVE SMOOTH",
"595 -230 OFFCURVE",
"633 -218 OFFCURVE",
"647 -210 CURVE",
"623 -127 LINE",
"610 -133 OFFCURVE",
"593 -138 OFFCURVE",
"568 -138 CURVE SMOOTH",
"554 -138 OFFCURVE",
"533 -130 OFFCURVE",
"533 -105 CURVE SMOOTH",
"533 -61 OFFCURVE",
"589 0 OFFCURVE",
"698 0 CURVE"
);
},
{
closed = 1;
nodes = (
"349 61 LINE",
"489 665 LINE",
"318 665 LINE",
"178 61 LINE"
);
},
{
closed = 1;
nodes = (
"219 606 LINE",
"681 606 LINE",
"654 488 LINE",
"825 488 LINE",
"883 740 LINE",
"250 740 LINE"
);
},
{
closed = 1;
nodes = (
"88 0 LINE",
"699 0 LINE",
"760 265 LINE",
"589 265 LINE",
"559 134 LINE",
"119 134 LINE"
);
},
{
closed = 1;
nodes = (
"340 305 LINE",
"570 305 LINE",
"603 447 LINE",
"373 447 LINE"
);
}
);
width = 924;
},
{
background = {
paths = (
{
closed = 1;
nodes = (
"141 740 LINE",
"774 740 LINE",
"716 488 LINE",
"545 488 LINE",
"572 606 LINE",
"366 606 LINE",
"329 447 LINE",
"494 447 LINE",
"461 305 LINE",
"296 305 LINE",
"257 134 LINE",
"450 134 LINE",
"480 265 LINE",
"651 265 LINE",
"590 0 LINE",
"589 0 LINE",
"548 0 LINE",
"486 -20 LINE",
"445 -52 LINE",
"424 -89 LINE",
"424 -105 LINE",
"424 -124 LINE",
"448 -138 LINE",
"459 -138 LINE",
"478 -138 LINE",
"504 -132 LINE",
"514 -127 LINE",
"538 -210 LINE",
"527 -216 LINE",
"477 -230 LINE",
"451 -230 LINE",
"421 -230 LINE",
"370 -216 LINE",
"331 -190 LINE",
"309 -152 LINE",
"309 -127 LINE",
"309 -88 LINE",
"363 -23 LINE",
"401 0 LINE",
"-21 0 LINE",
"10 134 LINE",
"86 134 LINE",
"195 606 LINE",
"110 606 LINE"
);
},
{
closed = 1;
nodes = (
"-51 760 LINE",
"684 760 LINE",
"684 0 LINE",
"-51 0 LINE"
);
}
);
};
layerId = "EEC59083-BA83-4EFB-8B50-D01213A5FD15";
paths = (
{
closed = 1;
nodes = (
"542 39 LINE",
"456 22 OFFCURVE",
"369 -27 OFFCURVE",
"369 -127 CURVE SMOOTH",
"369 -193 OFFCURVE",
"427 -230 OFFCURVE",
"506 -230 CURVE SMOOTH",
"543 -230 OFFCURVE",
"576 -219 OFFCURVE",
"593 -209 CURVE",
"572 -147 LINE",
"559 -153 OFFCURVE",
"534 -158 OFFCURVE",
"509 -158 CURVE SMOOTH",
"476 -158 OFFCURVE",
"454 -137 OFFCURVE",
"454 -110 CURVE SMOOTH",
"454 -61 OFFCURVE",
"518 0 OFFCURVE",
"617 0 CURVE"
);
},
{
closed = 1;
nodes = (
"267 52 LINE",
"412 684 LINE",
"311 684 LINE",
"165 52 LINE"
);
},
{
closed = 1;
nodes = (
"232 656 LINE",
"669 656 LINE",
"639 529 LINE",
"740 529 LINE",
"789 740 LINE",
"252 740 LINE"
);
},
{
closed = 1;
nodes = (
"88 0 LINE",
"618 0 LINE",
"667 212 LINE",
"565 212 LINE",
"535 84 LINE",
"107 84 LINE"
);
},
{
closed = 1;
nodes = (
"286 335 LINE",
"548 335 LINE",
"569 419 LINE",
"306 419 LINE"
);
}
);
width = 690;
}
);
leftKerningGroup = I;
rightKerningGroup = E;
unicode = 0118;
},
{
glyphname = F;
layers = (
{
anchors = (
{
name = top;
position = "{517, 740}";
}
);
layerId = "EEC59083-BA83-4EFB-8B50-D01213A5FD15";
paths = (
{
closed = 1;
nodes = (
"228 656 LINE",
"300 656 LINE",
"168 84 LINE",
"105 84 LINE",
"86 0 LINE",
"326 0 LINE",
"345 84 LINE",
"270 84 LINE",
"327 334 LINE",
"583 334 LINE",
"602 418 LINE",
"347 418 LINE",
"401 656 LINE",
"670 656 LINE",
"642 531 LINE",
"738 531 LINE",
"786 740 LINE",
"248 740 LINE"
);
}
);
width = 649;
},
{
anchors = (
{
name = top;
position = "{569, 740}";
}
);
layerId = "8956C7A5-95B5-4256-B2D2-E489185594C4";
paths = (
{
closed = 1;
nodes = (
"195 606 LINE",
"300 606 LINE",
"191 134 LINE",
"117 134 LINE",
"86 0 LINE",
"416 0 LINE",
"447 134 LINE",
"362 134 LINE",
"399 294 LINE",
"576 294 LINE",
"609 436 LINE",
"432 436 LINE",
"472 606 LINE",
"662 606 LINE",
"635 488 LINE",
"805 488 LINE",
"863 740 LINE",
"226 740 LINE"
);
}
);
width = 887;
}
);
leftKerningGroup = I;
rightKerningGroup = F;
unicode = 0046;
},
{
glyphname = G;
layers = (
{
anchors = (
{
name = bottom;
position = "{329, 0}";
},
{
name = top;
position = "{426, 740}";
}
);
layerId = "EEC59083-BA83-4EFB-8B50-D01213A5FD15";
paths = (
{
closed = 1;
nodes = (
"634 0 LINE",
"714 354 LINE",
"400 354 LINE",
"380 268 LINE",
"586 268 LINE",
"542 153 OFFCURVE",
"450 85 OFFCURVE",
"331 85 CURVE SMOOTH",
"214 85 OFFCURVE",
"118 186 OFFCURVE",
"118 328 CURVE SMOOTH",
"118 509 OFFCURVE",
"242 657 OFFCURVE",
"417 657 CURVE SMOOTH",
"507 657 OFFCURVE",
"575 611 OFFCURVE",
"603 544 CURVE",
"738 544 LINE",
"758 628 LINE",
"681 628 LINE",
"639 691 OFFCURVE",
"552 754 OFFCURVE",
"428 754 CURVE SMOOTH",
"185 754 OFFCURVE",
"9 562 OFFCURVE",
"9 320 CURVE SMOOTH",
"9 134 OFFCURVE",
"141 -12 OFFCURVE",
"320 -12 CURVE SMOOTH",
"415 -12 OFFCURVE",
"501 27 OFFCURVE",
"560 108 CURVE",
"536 0 LINE"
);
}
);
width = 789;
},
{
anchors = (
{
name = bottom;
position = "{306, 0}";
},
{
name = top;
position = "{453, 740}";
}
);
layerId = "8956C7A5-95B5-4256-B2D2-E489185594C4";
paths = (
{
closed = 1;
nodes = (
"648 0 LINE",
"740 395 LINE",
"396 395 LINE",
"365 261 LINE",
"521 261 LINE",
"493 194 OFFCURVE",
"413 144 OFFCURVE",
"332 144 CURVE SMOOTH",
"241 144 OFFCURVE",
"186 216 OFFCURVE",
"186 313 CURVE SMOOTH",
"186 457 OFFCURVE",
"300 593 OFFCURVE",
"433 593 CURVE SMOOTH",
"497 593 OFFCURVE",
"542 556 OFFCURVE",
"559 515 CURVE",
"749 515 LINE",
"780 649 LINE",
"693 649 LINE",
"645 711 OFFCURVE",
"554 754 OFFCURVE",
"454 754 CURVE SMOOTH",
"232 754 OFFCURVE",
"9 574 OFFCURVE",
"9 297 CURVE SMOOTH",
"9 111 OFFCURVE",
"139 -15 OFFCURVE",
"309 -15 CURVE SMOOTH",
"393 -15 OFFCURVE",
"476 29 OFFCURVE",
"528 111 CURVE",
"502 0 LINE"
);
}
);
width = 849;
}
);
leftKerningGroup = O;
rightKerningGroup = C;
unicode = 0047;
},
{
color = 6;
glyphname = Gbreve;
layers = (
{
background = {
paths = (
{
closed = 1;
nodes = (
"553 0 LINE",
"579 111 LINE",
"560 80 LINE",
"498 21 LINE",
"407 -15 LINE",
"360 -15 LINE",
"296 -15 LINE",
"187 30 LINE",
"106 112 LINE",
"60 227 LINE",
"60 297 LINE",
"60 366 LINE",
"95 488 LINE",
"157 589 LINE",
"242 669 LINE",
"340 725 LINE",
"449 754 LINE",
"505 754 LINE",
"543 754 LINE",
"615 738 LINE",
"678 709 LINE",
"728 670 LINE",
"744 649 LINE",
"831 649 LINE",
"800 515 LINE",
"610 515 LINE",
"604 530 LINE",
"581 559 LINE",
"548 580 LINE",
"508 593 LINE",
"484 593 LINE",
"434 593 LINE",
"344 546 LINE",
"277 468 LINE",
"237 367 LINE",
"237 313 LINE",
"237 276 LINE",
"257 215 LINE",
"294 169 LINE",
"349 144 LINE",
"383 144 LINE",
"415 144 LINE",
"476 163 LINE",
"527 197 LINE",
"562 239 LINE",
"572 261 LINE",
"416 261 LINE",
"447 395 LINE",
"791 395 LINE",
"699 0 LINE"
);
},
{
closed = 1;
nodes = (
"488 799 LINE",
"441 799 LINE",
"371 820 LINE",
"319 860 LINE",
"284 919 LINE",
"272 957 LINE",
"395 957 LINE",
"405 928 LINE",
"451 897 LINE",
"488 897 LINE",
"523 897 LINE",
"568 925 LINE",
"580 957 LINE",
"702 957 LINE",
"691 919 LINE",
"656 861 LINE",
"604 820 LINE",
"534 799 LINE"
);
},
{
closed = 1;
nodes = (
"0 760 LINE",
"769 760 LINE",
"769 0 LINE",
"0 0 LINE"
);
}
);
};
components = (
{
name = G;
},
{
name = brevecomb;
transform = "{1, 0, 0, 1, 111, 234}";
}
);
layerId = "8956C7A5-95B5-4256-B2D2-E489185594C4";
width = 849;
},
{
background = {
paths = (
{
closed = 1;
nodes = (
"553 0 LINE",
"579 111 LINE",
"560 80 LINE",
"498 21 LINE",
"407 -15 LINE",
"360 -15 LINE",
"296 -15 LINE",
"187 30 LINE",
"106 112 LINE",
"60 227 LINE",
"60 297 LINE",
"60 366 LINE",
"95 488 LINE",
"157 589 LINE",
"242 669 LINE",
"340 725 LINE",
"449 754 LINE",
"505 754 LINE",
"543 754 LINE",
"615 738 LINE",
"678 709 LINE",
"728 670 LINE",
"744 649 LINE",
"831 649 LINE",
"800 515 LINE",
"610 515 LINE",
"604 530 LINE",
"581 559 LINE",
"548 580 LINE",
"508 593 LINE",
"484 593 LINE",
"434 593 LINE",
"344 546 LINE",
"277 468 LINE",
"237 367 LINE",
"237 313 LINE",
"237 276 LINE",
"257 215 LINE",
"294 169 LINE",
"349 144 LINE",
"383 144 LINE",
"415 144 LINE",
"476 163 LINE",
"527 197 LINE",
"562 239 LINE",
"572 261 LINE",
"416 261 LINE",
"447 395 LINE",
"791 395 LINE",
"699 0 LINE"
);
},
{
closed = 1;
nodes = (
"488 799 LINE",
"441 799 LINE",
"371 820 LINE",
"319 860 LINE",
"284 919 LINE",
"272 957 LINE",
"395 957 LINE",
"405 928 LINE",
"451 897 LINE",
"488 897 LINE",
"523 897 LINE",
"568 925 LINE",
"580 957 LINE",
"702 957 LINE",
"691 919 LINE",
"656 861 LINE",
"604 820 LINE",
"534 799 LINE"
);
},
{
closed = 1;
nodes = (
"0 760 LINE",
"769 760 LINE",
"769 0 LINE",
"0 0 LINE"
);
}
);
};
components = (
{
name = G;
},
{
name = brevecomb;
transform = "{1, 0, 0, 1, 87, 234}";
}
);
layerId = "EEC59083-BA83-4EFB-8B50-D01213A5FD15";
width = 789;
}
);
leftKerningGroup = O;
rightKerningGroup = G;
unicode = 011E;
},
{
color = 6;
glyphname = Gcommaaccent;
layers = (
{
background = {
paths = (
{
closed = 1;
nodes = (
"553 0 LINE",
"579 111 LINE",
"560 80 LINE",
"498 21 LINE",
"407 -15 LINE",
"360 -15 LINE",
"296 -15 LINE",
"187 30 LINE",
"106 112 LINE",
"60 227 LINE",
"60 297 LINE",
"60 366 LINE",
"95 488 LINE",
"157 589 LINE",
"242 669 LINE",
"340 725 LINE",
"449 754 LINE",
"505 754 LINE",
"543 754 LINE",
"615 738 LINE",
"678 709 LINE",
"728 670 LINE",
"744 649 LINE",
"831 649 LINE",
"800 515 LINE",
"610 515 LINE",
"604 530 LINE",
"581 559 LINE",
"548 580 LINE",
"508 593 LINE",
"484 593 LINE",
"434 593 LINE",
"344 546 LINE",
"277 468 LINE",
"237 367 LINE",
"237 313 LINE",
"237 276 LINE",
"257 215 LINE",
"294 169 LINE",
"349 144 LINE",
"383 144 LINE",
"415 144 LINE",
"476 163 LINE",
"527 197 LINE",
"562 239 LINE",
"572 261 LINE",
"416 261 LINE",
"447 395 LINE",
"791 395 LINE",
"699 0 LINE"
);
},
{
closed = 1;
nodes = (
"342 -14 LINE",
"483 -65 LINE",
"387 -230 LINE",
"286 -195 LINE"
);
},
{
closed = 1;
nodes = (
"0 760 LINE",
"769 760 LINE",
"769 0 LINE",
"0 0 LINE"
);
}
);
};
components = (
{
name = G;
},
{
name = commaaccentcomb;
transform = "{1, 0, 0, 1, 275, 0}";
}
);
layerId = "8956C7A5-95B5-4256-B2D2-E489185594C4";
width = 849;
},
{
background = {
paths = (
{
closed = 1;
nodes = (
"553 0 LINE",
"579 111 LINE",
"560 80 LINE",
"498 21 LINE",
"407 -15 LINE",
"360 -15 LINE",
"296 -15 LINE",
"187 30 LINE",
"106 112 LINE",
"60 227 LINE",
"60 297 LINE",
"60 366 LINE",
"95 488 LINE",
"157 589 LINE",
"242 669 LINE",
"340 725 LINE",
"449 754 LINE",
"505 754 LINE",
"543 754 LINE",
"615 738 LINE",
"678 709 LINE",
"728 670 LINE",
"744 649 LINE",
"831 649 LINE",
"800 515 LINE",
"610 515 LINE",
"604 530 LINE",
"581 559 LINE",
"548 580 LINE",
"508 593 LINE",
"484 593 LINE",
"434 593 LINE",
"344 546 LINE",
"277 468 LINE",
"237 367 LINE",
"237 313 LINE",
"237 276 LINE",
"257 215 LINE",
"294 169 LINE",
"349 144 LINE",
"383 144 LINE",
"415 144 LINE",
"476 163 LINE",
"527 197 LINE",
"562 239 LINE",
"572 261 LINE",
"416 261 LINE",
"447 395 LINE",
"791 395 LINE",
"699 0 LINE"
);
},
{
closed = 1;
nodes = (
"342 -14 LINE",
"483 -65 LINE",
"387 -230 LINE",
"286 -195 LINE"
);
},
{
closed = 1;
nodes = (
"0 760 LINE",
"769 760 LINE",
"769 0 LINE",
"0 0 LINE"
);
}
);
};
components = (
{
name = G;
},
{
name = commaaccentcomb;
transform = "{1, 0, 0, 1, 296, 0}";
}
);
layerId = "EEC59083-BA83-4EFB-8B50-D01213A5FD15";
width = 789;
}
);
leftKerningGroup = O;
rightKerningGroup = G;
unicode = 0122;
},
{
glyphname = H;
layers = (
{
layerId = "EEC59083-BA83-4EFB-8B50-D01213A5FD15";
paths = (
{
closed = 1;
nodes = (
"751 656 LINE",
"823 656 LINE",
"772 432 LINE",
"353 432 LINE",
"404 656 LINE",
"471 656 LINE",
"491 740 LINE",
"251 740 LINE",
"231 656 LINE",
"303 656 LINE",
"171 84 LINE",
"106 84 LINE",
"87 0 LINE",
"327 0 LINE",
"346 84 LINE",
"273 84 LINE",
"334 350 LINE",
"753 350 LINE",
"691 84 LINE",
"626 84 LINE",
"607 0 LINE",
"847 0 LINE",
"866 84 LINE",
"793 84 LINE",
"924 656 LINE",
"991 656 LINE",
"1011 740 LINE",
"771 740 LINE"
);
}
);
width = 943;
},
{
guideLines = (
{
angle = 76.9965;
position = "{249, 370}";
}
);
layerId = "8956C7A5-95B5-4256-B2D2-E489185594C4";
paths = (
{
closed = 1;
nodes = (
"716 606 LINE",
"799 606 LINE",
"764 455 LINE",
"439 455 LINE",
"474 606 LINE",
"549 606 LINE",
"580 740 LINE",
"250 740 LINE",
"219 606 LINE",
"303 606 LINE",
"194 134 LINE",
"118 134 LINE",
"87 0 LINE",
"417 0 LINE",
"448 134 LINE",
"365 134 LINE",
"409 323 LINE",
"734 323 LINE",
"690 134 LINE",
"616 134 LINE",
"585 0 LINE",
"915 0 LINE",
"946 134 LINE",
"861 134 LINE",
"970 606 LINE",
"1046 606 LINE",
"1077 740 LINE",
"747 740 LINE"
);
}
);
width = 1166;
}
);
leftKerningGroup = I;
rightKerningGroup = I;
unicode = 0048;
},
{
glyphname = I;
layers = (
{
anchors = (
{
name = top;
position = "{396, 740}";
}
);
layerId = "EEC59083-BA83-4EFB-8B50-D01213A5FD15";
paths = (
{
closed = 1;
nodes = (
"246 656 LINE",
"316 656 LINE",
"184 84 LINE",
"114 84 LINE",
"95 0 LINE",
"335 0 LINE",
"354 84 LINE",
"286 84 LINE",
"417 656 LINE",
"486 656 LINE",
"506 740 LINE",
"266 740 LINE"
);
}
);
width = 431;
},
{
anchors = (
{
name = top;
position = "{417, 740}";
}
);
layerId = "8956C7A5-95B5-4256-B2D2-E489185594C4";
paths = (
{
closed = 1;
nodes = (
"226 606 LINE",
"311 606 LINE",
"202 134 LINE",
"126 134 LINE",
"95 0 LINE",
"425 0 LINE",
"456 134 LINE",
"373 134 LINE",
"482 606 LINE",
"556 606 LINE",
"587 740 LINE",
"257 740 LINE"
);
}
);
width = 682;
}
);
leftKerningGroup = I;
rightKerningGroup = I;
unicode = 0049;
},
{
color = 6;
glyphname = Idotaccent;
layers = (
{
background = {
paths = (
{
closed = 1;
nodes = (
"192 740 LINE",
"522 740 LINE",
"491 606 LINE",
"417 606 LINE",
"308 134 LINE",
"391 134 LINE",
"360 0 LINE",
"30 0 LINE",
"61 134 LINE",
"137 134 LINE",
"246 606 LINE",
"161 606 LINE"
);
},
{
closed = 1;
nodes = (
"260 903 LINE",
"260 921 LINE",
"273 953 LINE",
"296 977 LINE",
"328 990 LINE",
"347 990 LINE",
"364 990 LINE",
"396 977 LINE",
"419 953 LINE",
"433 921 LINE",
"433 903 LINE",
"433 885 LINE",
"419 854 LINE",
"396 830 LINE",
"364 816 LINE",
"347 816 LINE",
"328 816 LINE",
"296 830 LINE",
"273 854 LINE",
"260 885 LINE"
);
},
{
closed = 1;
nodes = (
"0 760 LINE",
"452 760 LINE",
"452 0 LINE",
"0 0 LINE"
);
}
);
};
components = (
{
name = I;
},
{
name = dotaccent;
transform = "{1, 0, 0, 1, 372, 234}";
}
);
layerId = "8956C7A5-95B5-4256-B2D2-E489185594C4";
width = 682;
},
{
background = {
paths = (
{
closed = 1;
nodes = (
"192 740 LINE",
"522 740 LINE",
"491 606 LINE",
"417 606 LINE",
"308 134 LINE",
"391 134 LINE",
"360 0 LINE",
"30 0 LINE",
"61 134 LINE",
"137 134 LINE",
"246 606 LINE",
"161 606 LINE"
);
},
{
closed = 1;
nodes = (
"260 903 LINE",
"260 921 LINE",
"273 953 LINE",
"296 977 LINE",
"328 990 LINE",
"347 990 LINE",
"364 990 LINE",
"396 977 LINE",
"419 953 LINE",
"433 921 LINE",
"433 903 LINE",
"433 885 LINE",
"419 854 LINE",
"396 830 LINE",
"364 816 LINE",
"347 816 LINE",
"328 816 LINE",
"296 830 LINE",
"273 854 LINE",
"260 885 LINE"
);
},
{
closed = 1;
nodes = (
"0 760 LINE",
"452 760 LINE",
"452 0 LINE",
"0 0 LINE"
);
}
);
};
components = (
{
name = I;
},
{
name = dotaccent;
transform = "{1, 0, 0, 1, 383, 234}";
}
);
layerId = "EEC59083-BA83-4EFB-8B50-D01213A5FD15";
width = 431;
}
);
leftKerningGroup = I;
rightKerningGroup = I;
unicode = 0130;
},
{
color = 6;
glyphname = Imacron;
layers = (
{
background = {
paths = (
{
closed = 1;
nodes = (
"192 740 LINE",
"522 740 LINE",
"491 606 LINE",
"417 606 LINE",
"308 134 LINE",
"391 134 LINE",
"360 0 LINE",
"30 0 LINE",
"61 134 LINE",
"137 134 LINE",
"246 606 LINE",
"161 606 LINE"
);
},
{
closed = 1;
nodes = (
"519 809 LINE",
"183 809 LINE",
"183 914 LINE",
"519 914 LINE"
);
},
{
closed = 1;
nodes = (
"0 760 LINE",
"452 760 LINE",
"452 0 LINE",
"0 0 LINE"
);
}
);
};
components = (
{
alignment = -1;
name = I;
transform = "{1, 0, 0, 1, -83, 0}";
},
{
alignment = -1;
name = macroncomb.i;
transform = "{1, 0, 0, 1, 253, 234}";
}
);
layerId = "8956C7A5-95B5-4256-B2D2-E489185594C4";
width = 683;
},
{
background = {
paths = (
{
closed = 1;
nodes = (
"192 740 LINE",
"522 740 LINE",
"491 606 LINE",
"417 606 LINE",
"308 134 LINE",
"391 134 LINE",
"360 0 LINE",
"30 0 LINE",
"61 134 LINE",
"137 134 LINE",
"246 606 LINE",
"161 606 LINE"
);
},
{
closed = 1;
nodes = (
"519 809 LINE",
"183 809 LINE",
"183 914 LINE",
"519 914 LINE"
);
},
{
closed = 1;
nodes = (
"0 760 LINE",
"452 760 LINE",
"452 0 LINE",
"0 0 LINE"
);
}
);
};
components = (
{
name = I;
},
{
name = macroncomb.i;
transform = "{1, 0, 0, 1, 201, 234}";
}
);
layerId = "EEC59083-BA83-4EFB-8B50-D01213A5FD15";
width = 431;
}
);
leftKerningGroup = I;
rightKerningGroup = I;
unicode = 012A;
},
{
color = 6;
glyphname = Iogonek;
layers = (
{
background = {
paths = (
{
closed = 1;
nodes = (
"107 740 LINE",
"437 740 LINE",
"406 606 LINE",
"332 606 LINE",
"223 134 LINE",
"306 134 LINE",
"275 0 LINE",
"121 0 LINE",
"96 -1 LINE",
"46 -22 LINE",
"5 -53 LINE",
"-20 -89 LINE",
"-20 -105 LINE",
"-20 -124 LINE",
"4 -138 LINE",
"15 -138 LINE",
"34 -138 LINE",
"60 -132 LINE",
"70 -127 LINE",
"94 -210 LINE",
"83 -216 LINE",
"33 -230 LINE",
"7 -230 LINE",
"-23 -230 LINE",
"-74 -216 LINE",
"-113 -190 LINE",
"-135 -152 LINE",
"-135 -127 LINE",
"-135 -85 LINE",
"-82 -22 LINE",
"-45 0 LINE",
"-14 134 LINE",
"52 134 LINE",
"161 606 LINE",
"76 606 LINE"
);
},
{
closed = 1;
nodes = (
"-85 760 LINE",
"367 760 LINE",
"367 0 LINE",
"-85 0 LINE"
);
}
);
};
layerId = "8956C7A5-95B5-4256-B2D2-E489185594C4";
paths = (
{
closed = 1;
nodes = (
"255 47 LINE",
"181 31 OFFCURVE",
"47 -27 OFFCURVE",
"47 -127 CURVE SMOOTH",
"47 -193 OFFCURVE",
"110 -230 OFFCURVE",
"189 -230 CURVE SMOOTH",
"224 -230 OFFCURVE",
"262 -218 OFFCURVE",
"276 -210 CURVE",
"252 -127 LINE",
"239 -133 OFFCURVE",
"222 -138 OFFCURVE",
"197 -138 CURVE SMOOTH",
"183 -138 OFFCURVE",
"162 -130 OFFCURVE",
"162 -105 CURVE SMOOTH",
"162 -61 OFFCURVE",
"240 0 OFFCURVE",
"308 0 CURVE"
);
},
{
closed = 1;
nodes = (
"137 0 LINE",
"457 0 LINE",
"488 134 LINE",
"168 134 LINE"
);
},
{
closed = 1;
nodes = (
"388 61 LINE",
"528 665 LINE",
"357 665 LINE",
"217 61 LINE"
);
},
{
closed = 1;
nodes = (
"258 606 LINE",
"588 606 LINE",
"619 740 LINE",
"289 740 LINE"
);
}
);
width = 714;
},
{
background = {
paths = (
{
closed = 1;
nodes = (
"108 740 LINE",
"438 740 LINE",
"407 606 LINE",
"333 606 LINE",
"224 134 LINE",
"307 134 LINE",
"276 0 LINE",
"122 0 LINE",
"97 -1 LINE",
"47 -22 LINE",
"6 -53 LINE",
"-19 -89 LINE",
"-19 -105 LINE",
"-19 -124 LINE",
"5 -138 LINE",
"16 -138 LINE",
"35 -138 LINE",
"61 -132 LINE",
"71 -127 LINE",
"95 -210 LINE",
"84 -216 LINE",
"34 -230 LINE",
"8 -230 LINE",
"-22 -230 LINE",
"-73 -216 LINE",
"-112 -190 LINE",
"-134 -152 LINE",
"-134 -127 LINE",
"-134 -85 LINE",
"-81 -22 LINE",
"-44 0 LINE",
"-13 134 LINE",
"53 134 LINE",
"162 606 LINE",
"77 606 LINE"
);
},
{
closed = 1;
nodes = (
"-84 760 LINE",
"368 760 LINE",
"368 0 LINE",
"-84 0 LINE"
);
}
);
};
layerId = "EEC59083-BA83-4EFB-8B50-D01213A5FD15";
paths = (
{
closed = 1;
nodes = (
"220 38 LINE",
"162 38 OFFCURVE",
"47 -27 OFFCURVE",
"47 -127 CURVE SMOOTH",
"47 -193 OFFCURVE",
"105 -230 OFFCURVE",
"184 -230 CURVE SMOOTH",
"221 -230 OFFCURVE",
"254 -219 OFFCURVE",
"271 -209 CURVE",
"250 -147 LINE",
"237 -153 OFFCURVE",
"212 -158 OFFCURVE",
"187 -158 CURVE SMOOTH",
"154 -158 OFFCURVE",
"132 -137 OFFCURVE",
"132 -110 CURVE SMOOTH",
"132 -53 OFFCURVE",
"212 0 OFFCURVE",
"293 0 CURVE"
);
},
{
closed = 1;
nodes = (
"121 0 LINE",
"361 0 LINE",
"380 84 LINE",
"140 84 LINE"
);
},
{
closed = 1;
nodes = (
"305 52 LINE",
"450 684 LINE",
"349 684 LINE",
"203 52 LINE"
);
},
{
closed = 1;
nodes = (
"272 656 LINE",
"512 656 LINE",
"532 740 LINE",
"292 740 LINE"
);
}
);
width = 431;
}
);
leftKerningGroup = serif.top;
rightKerningGroup = serif.top;
unicode = 012E;
},
{
glyphname = J;
layers = (
{
anchors = (
{
name = top;
position = "{109, 660}";
}
);
layerId = "EEC59083-BA83-4EFB-8B50-D01213A5FD15";
paths = (
{
closed = 1;
nodes = (
"255 656 LINE",
"328 656 LINE",
"200 100 LINE",
"188 46 OFFCURVE",
"48 -109 OFFCURVE",
"48 -109 CURVE",
"130 -116 LINE",
"130 -116 OFFCURVE",
"281 27 OFFCURVE",
"294 84 CURVE",
"426 656 LINE",
"495 656 LINE",
"515 740 LINE",
"275 740 LINE"
);
}
);
width = 372;
},
{
anchors = (
{
name = top;
position = "{149, 660}";
}
);
layerId = "8956C7A5-95B5-4256-B2D2-E489185594C4";
paths = (
{
closed = 1;
nodes = (
"229 606 LINE",
"317 606 LINE",
"200 100 LINE",
"188 46 OFFCURVE",
"48 -109 OFFCURVE",
"48 -109 CURVE",
"185 -120 LINE",
"185 -120 OFFCURVE",
"353 27 OFFCURVE",
"366 84 CURVE",
"486 606 LINE",
"559 606 LINE",
"590 740 LINE",
"260 740 LINE"
);
}
);
width = 644;
}
);
leftKerningGroup = J;
rightKerningGroup = J;
unicode = 004A;
},
{
glyphname = K;
layers = (
{
anchors = (
{
name = bottom;
position = "{424, 0}";
},
{
name = top;
position = "{604, 740}";
}
);
layerId = "EEC59083-BA83-4EFB-8B50-D01213A5FD15";
paths = (
{
closed = 1;
nodes = (
"343 378 LINE",
"572 84 LINE",
"553 0 LINE",
"752 0 LINE",
"771 84 LINE",
"694 84 LINE",
"465 368 LINE",
"874 656 LINE",
"920 656 LINE",
"940 740 LINE",
"750 740 LINE",
"730 656 LINE"
);
},
{
closed = 1;
nodes = (
"232 656 LINE",
"304 656 LINE",
"172 84 LINE",
"107 84 LINE",
"88 0 LINE",
"328 0 LINE",
"347 84 LINE",
"274 84 LINE",
"405 656 LINE",
"472 656 LINE",
"492 740 LINE",
"252 740 LINE"
);
}
);
width = 801;
},
{
anchors = (
{
name = bottom;
position = "{476, 0}";
}
);
layerId = "8956C7A5-95B5-4256-B2D2-E489185594C4";
paths = (
{
closed = 1;
nodes = (
"435 387 LINE",
"619 134 LINE",
"588 0 LINE",
"863 0 LINE",
"893 134 LINE",
"821 134 LINE",
"650 373 LINE",
"964 606 LINE",
"1029 606 LINE",
"1060 740 LINE",
"758 740 LINE",
"727 607 LINE"
);
},
{
closed = 1;
nodes = (
"219 606 LINE",
"304 606 LINE",
"195 134 LINE",
"119 134 LINE",
"88 0 LINE",
"418 0 LINE",
"449 134 LINE",
"366 134 LINE",
"475 606 LINE",
"549 606 LINE",
"580 740 LINE",
"250 740 LINE"
);
}
);
width = 1084;
}
);
leftKerningGroup = I;
rightKerningGroup = K;
unicode = 004B;
},
{
color = 6;
glyphname = Kcommaaccent;
layers = (
{
background = {
paths = (
{
closed = 1;
nodes = (
"669 607 LINE",
"700 740 LINE",
"1002 740 LINE",
"971 606 LINE",
"906 606 LINE",
"592 373 LINE",
"763 134 LINE",
"835 134 LINE",
"805 0 LINE",
"530 0 LINE",
"561 134 LINE",
"377 387 LINE"
);
},
{
closed = 1;
nodes = (
"192 740 LINE",
"522 740 LINE",
"491 606 LINE",
"417 606 LINE",
"308 134 LINE",
"391 134 LINE",
"360 0 LINE",
"30 0 LINE",
"61 134 LINE",
"137 134 LINE",
"246 606 LINE",
"161 606 LINE"
);
},
{
closed = 1;
nodes = (
"383 -14 LINE",
"524 -65 LINE",
"428 -230 LINE",
"327 -195 LINE"
);
},
{
closed = 1;
nodes = (
"0 760 LINE",
"852 760 LINE",
"852 0 LINE",
"0 0 LINE"
);
}
);
};
components = (
{
name = K;
},
{
name = commaaccentcomb;
transform = "{1, 0, 0, 1, 445, 0}";
}
);
layerId = "8956C7A5-95B5-4256-B2D2-E489185594C4";
width = 1084;
},
{
background = {
paths = (
{
closed = 1;
nodes = (
"669 607 LINE",
"700 740 LINE",
"1002 740 LINE",
"971 606 LINE",
"906 606 LINE",
"592 373 LINE",
"763 134 LINE",
"835 134 LINE",
"805 0 LINE",
"530 0 LINE",
"561 134 LINE",
"377 387 LINE"
);
},
{
closed = 1;
nodes = (
"192 740 LINE",
"522 740 LINE",
"491 606 LINE",
"417 606 LINE",
"308 134 LINE",
"391 134 LINE",
"360 0 LINE",
"30 0 LINE",
"61 134 LINE",
"137 134 LINE",
"246 606 LINE",
"161 606 LINE"
);
},
{
closed = 1;
nodes = (
"383 -14 LINE",
"524 -65 LINE",
"428 -230 LINE",
"327 -195 LINE"
);
},
{
closed = 1;
nodes = (
"0 760 LINE",
"852 760 LINE",
"852 0 LINE",
"0 0 LINE"
);
}
);
};
components = (
{
name = K;
},
{
name = commaaccentcomb;
transform = "{1, 0, 0, 1, 391, 0}";
}
);
layerId = "EEC59083-BA83-4EFB-8B50-D01213A5FD15";
width = 801;
}
);
leftKerningGroup = I;
rightKerningGroup = K;
unicode = 0136;
},
{
glyphname = L;
layers = (
{
anchors = (
{
name = bottom;
position = "{369, 0}";
},
{
name = center;
position = "{414, 370}";
},
{
name = top;
position = "{379, 740}";
},
{
name = topright;
position = "{535, 490}";
}
);
layerId = "EEC59083-BA83-4EFB-8B50-D01213A5FD15";
paths = (
{
closed = 1;
nodes = (
"232 656 LINE",
"304 656 LINE",
"172 84 LINE",
"107 84 LINE",
"88 0 LINE",
"639 0 LINE",
"690 219 LINE",
"592 219 LINE",
"569 123 LINE",
"564 101 OFFCURVE",
"549 84 OFFCURVE",
"521 84 CURVE SMOOTH",
"274 84 LINE",
"405 656 LINE",
"472 656 LINE",
"492 740 LINE",
"252 740 LINE"
);
}
);
width = 671;
},
{
anchors = (
{
name = bottom;
position = "{382, 0}";
},
{
name = center;
position = "{407, 370}";
},
{
name = top;
position = "{405, 740}";
},
{
name = topright;
position = "{593, 490}";
}
);
layerId = "8956C7A5-95B5-4256-B2D2-E489185594C4";
paths = (
{
closed = 1;
nodes = (
"219 606 LINE",
"303 606 LINE",
"194 134 LINE",
"119 134 LINE",
"88 0 LINE",
"679 0 LINE",
"741 272 LINE",
"576 272 LINE",
"552 174 LINE",
"546 151 OFFCURVE",
"528 134 OFFCURVE",
"505 134 CURVE SMOOTH",
"365 134 LINE",
"475 606 LINE",
"549 606 LINE",
"580 740 LINE",
"250 740 LINE"
);
}
);
width = 765;
}
);
leftKerningGroup = I;
rightKerningGroup = L;
unicode = 004C;
},
{
color = 6;
glyphname = Lacute;
layers = (
{
background = {
paths = (
{
closed = 1;
nodes = (
"192 740 LINE",
"522 740 LINE",
"491 606 LINE",
"417 606 LINE",
"307 134 LINE",
"447 134 LINE",
"464 134 LINE",
"489 157 LINE",
"494 174 LINE",
"518 272 LINE",
"683 272 LINE",
"621 0 LINE",
"30 0 LINE",
"61 134 LINE",
"136 134 LINE",
"245 606 LINE",
"161 606 LINE"
);
},
{
closed = 1;
nodes = (
"358 921 LINE",
"517 921 LINE",
"517 909 LINE",
"368 769 LINE",
"253 769 LINE"
);
},
{
closed = 1;
nodes = (
"0 760 LINE",
"643 760 LINE",
"643 0 LINE",
"0 0 LINE"
);
}
);
};
components = (
{
name = L;
},
{
name = acute;
transform = "{1, 0, 0, 1, 378, 234}";
}
);
layerId = "8956C7A5-95B5-4256-B2D2-E489185594C4";
width = 765;
},
{
background = {
paths = (
{
closed = 1;
nodes = (
"192 740 LINE",
"522 740 LINE",
"491 606 LINE",
"417 606 LINE",
"307 134 LINE",
"447 134 LINE",
"464 134 LINE",
"489 157 LINE",
"494 174 LINE",
"518 272 LINE",
"683 272 LINE",
"621 0 LINE",
"30 0 LINE",
"61 134 LINE",
"136 134 LINE",
"245 606 LINE",
"161 606 LINE"
);
},
{
closed = 1;
nodes = (
"358 921 LINE",
"517 921 LINE",
"517 909 LINE",
"368 769 LINE",
"253 769 LINE"
);
},
{
closed = 1;
nodes = (
"0 760 LINE",
"643 760 LINE",
"643 0 LINE",
"0 0 LINE"
);
}
);
};
components = (
{
name = L;
},
{
name = acute;
transform = "{1, 0, 0, 1, 353, 234}";
}
);
layerId = "EEC59083-BA83-4EFB-8B50-D01213A5FD15";
width = 671;
}
);
leftKerningGroup = I;
rightKerningGroup = L;
unicode = 0139;
},
{
color = 6;
glyphname = Lcaron;
layers = (
{
background = {
paths = (
{
closed = 1;
nodes = (
"192 740 LINE",
"522 740 LINE",
"491 606 LINE",
"417 606 LINE",
"307 134 LINE",
"447 134 LINE",
"464 134 LINE",
"489 157 LINE",
"494 174 LINE",
"518 272 LINE",
"683 272 LINE",
"621 0 LINE",
"30 0 LINE",
"61 134 LINE",
"136 134 LINE",
"245 606 LINE",
"161 606 LINE"
);
},
{
closed = 1;
nodes = (
"0 760 LINE",
"643 760 LINE",
"643 0 LINE",
"0 0 LINE"
);
}
);
};
components = (
{
name = L;
},
{
name = caroncomb.alt;
transform = "{1, 0, 0, 1, 489, -16}";
}
);
layerId = "8956C7A5-95B5-4256-B2D2-E489185594C4";
width = 765;
},
{
background = {
paths = (
{
closed = 1;
nodes = (
"192 740 LINE",
"522 740 LINE",
"491 606 LINE",
"417 606 LINE",
"307 134 LINE",
"447 134 LINE",
"464 134 LINE",
"489 157 LINE",
"494 174 LINE",
"518 272 LINE",
"683 272 LINE",
"621 0 LINE",
"30 0 LINE",
"61 134 LINE",
"136 134 LINE",
"245 606 LINE",
"161 606 LINE"
);
},
{
closed = 1;
nodes = (
"0 760 LINE",
"643 760 LINE",
"643 0 LINE",
"0 0 LINE"
);
}
);
};
components = (
{
name = L;
},
{
name = caroncomb.alt;
transform = "{1, 0, 0, 1, 432, -16}";
}
);
layerId = "EEC59083-BA83-4EFB-8B50-D01213A5FD15";
width = 671;
}
);
leftKerningGroup = I;
rightKerningGroup = L;
unicode = 013D;
},
{
color = 6;
glyphname = Lcommaaccent;
layers = (
{
background = {
paths = (
{
closed = 1;
nodes = (
"192 740 LINE",
"522 740 LINE",
"491 606 LINE",
"417 606 LINE",
"307 134 LINE",
"447 134 LINE",
"464 134 LINE",
"489 157 LINE",
"494 174 LINE",
"518 272 LINE",
"683 272 LINE",
"621 0 LINE",
"30 0 LINE",
"61 134 LINE",
"136 134 LINE",
"245 606 LINE",
"161 606 LINE"
);
},
{
closed = 1;
nodes = (
"279 -14 LINE",
"420 -65 LINE",
"324 -230 LINE",
"223 -195 LINE"
);
},
{
closed = 1;
nodes = (
"0 760 LINE",
"643 760 LINE",
"643 0 LINE",
"0 0 LINE"
);
}
);
};
components = (
{
name = L;
},
{
name = commaaccentcomb;
transform = "{1, 0, 0, 1, 351, 0}";
}
);
layerId = "8956C7A5-95B5-4256-B2D2-E489185594C4";
width = 765;
},
{
background = {
paths = (
{
closed = 1;
nodes = (
"192 740 LINE",
"522 740 LINE",
"491 606 LINE",
"417 606 LINE",
"307 134 LINE",
"447 134 LINE",
"464 134 LINE",
"489 157 LINE",
"494 174 LINE",
"518 272 LINE",
"683 272 LINE",
"621 0 LINE",
"30 0 LINE",
"61 134 LINE",
"136 134 LINE",
"245 606 LINE",
"161 606 LINE"
);
},
{
closed = 1;
nodes = (
"279 -14 LINE",
"420 -65 LINE",
"324 -230 LINE",
"223 -195 LINE"
);
},
{
closed = 1;
nodes = (
"0 760 LINE",
"643 760 LINE",
"643 0 LINE",
"0 0 LINE"
);
}
);
};
components = (
{
name = L;
},
{
name = commaaccentcomb;
transform = "{1, 0, 0, 1, 336, 0}";
}
);
layerId = "EEC59083-BA83-4EFB-8B50-D01213A5FD15";
width = 671;
}
);
leftKerningGroup = I;
rightKerningGroup = L;
unicode = 013B;
},
{
color = 6;
glyphname = Lslash;
layers = (
{
anchors = (
{
name = top;
position = "{348, 700}";
}
);
background = {
paths = (
{
closed = 1;
nodes = (
"171 740 LINE",
"501 740 LINE",
"470 606 LINE",
"395 606 LINE",
"374 513 LINE",
"586 613 LINE",
"548 442 LINE",
"334 341 LINE",
"286 134 LINE",
"426 134 LINE",
"443 134 LINE",
"468 157 LINE",
"473 174 LINE",
"497 272 LINE",
"662 272 LINE",
"600 0 LINE",
"9 0 LINE",
"40 134 LINE",
"115 134 LINE",
"142 251 LINE",
"18 193 LINE",
"56 364 LINE",
"182 423 LINE",
"224 606 LINE",
"140 606 LINE"
);
},
{
closed = 1;
nodes = (
"-21 760 LINE",
"622 760 LINE",
"622 0 LINE",
"-21 0 LINE"
);
}
);
};
layerId = "8956C7A5-95B5-4256-B2D2-E489185594C4";
paths = (
{
closed = 1;
nodes = (
"536 272 LINE",
"512 174 LINE SMOOTH",
"506 151 OFFCURVE",
"488 134 OFFCURVE",
"465 134 CURVE SMOOTH",
"79 134 LINE",
"48 0 LINE",
"639 0 LINE",
"701 272 LINE"
);
},
{
closed = 1;
nodes = (
"57 193 LINE",
"587 442 LINE",
"625 613 LINE",
"95 364 LINE"
);
},
{
closed = 1;
nodes = (
"308 61 LINE",
"448 665 LINE",
"277 665 LINE",
"137 61 LINE"
);
},
{
closed = 1;
nodes = (
"179 606 LINE",
"509 606 LINE",
"540 740 LINE",
"210 740 LINE"
);
}
);
width = 725;
},
{
anchors = (
{
name = top;
position = "{389, 700}";
}
);
background = {
paths = (
{
closed = 1;
nodes = (
"181 740 LINE",
"511 740 LINE",
"480 606 LINE",
"405 606 LINE",
"384 513 LINE",
"596 613 LINE",
"558 442 LINE",
"344 341 LINE",
"296 134 LINE",
"436 134 LINE",
"453 134 LINE",
"478 157 LINE",
"483 174 LINE",
"507 272 LINE",
"672 272 LINE",
"610 0 LINE",
"19 0 LINE",
"50 134 LINE",
"125 134 LINE",
"152 251 LINE",
"28 193 LINE",
"66 364 LINE",
"192 423 LINE",
"234 606 LINE",
"150 606 LINE"
);
},
{
closed = 1;
nodes = (
"-11 760 LINE",
"632 760 LINE",
"632 0 LINE",
"-11 0 LINE"
);
}
);
};
layerId = "EEC59083-BA83-4EFB-8B50-D01213A5FD15";
paths = (
{
closed = 1;
nodes = (
"552 219 LINE",
"529 123 LINE SMOOTH",
"524 101 OFFCURVE",
"509 84 OFFCURVE",
"481 84 CURVE SMOOTH",
"67 84 LINE",
"48 0 LINE",
"599 0 LINE",
"650 219 LINE"
);
},
{
closed = 1;
nodes = (
"52 222 LINE",
"523 475 LINE",
"550 590 LINE",
"79 337 LINE"
);
},
{
closed = 1;
nodes = (
"227 52 LINE",
"372 684 LINE",
"271 684 LINE",
"125 52 LINE"
);
},
{
closed = 1;
nodes = (
"192 656 LINE",
"432 656 LINE",
"452 740 LINE",
"212 740 LINE"
);
}
);
width = 671;
}
);
leftKerningGroup = I;
rightKerningGroup = L;
unicode = 0141;
},
{
glyphname = M;
layers = (
{
anchors = (
{
name = top;
position = "{503, 700}";
}
);
layerId = "EEC59083-BA83-4EFB-8B50-D01213A5FD15";
paths = (
{
closed = 1;
nodes = (
"88 0 LINE",
"328 0 LINE",
"347 84 LINE",
"267 84 LINE",
"397 646 LINE",
"496 0 LINE",
"609 0 LINE",
"999 647 LINE",
"869 84 LINE",
"805 84 LINE",
"786 0 LINE",
"1026 0 LINE",
"1045 84 LINE",
"967 84 LINE",
"1099 656 LINE",
"1166 656 LINE",
"1186 740 LINE",
"955 740 LINE",
"572 105 LINE",
"476 740 LINE",
"252 740 LINE",
"232 656 LINE",
"305 656 LINE",
"173 84 LINE",
"107 84 LINE"
);
}
);
width = 1118;
},
{
anchors = (
{
name = bottom;
position = "{593, 0}";
},
{
name = top;
position = "{763, 740}";
}
);
layerId = "8956C7A5-95B5-4256-B2D2-E489185594C4";
paths = (
{
closed = 1;
nodes = (
"88 0 LINE",
"387 0 LINE",
"418 134 LINE",
"348 134 LINE",
"445 537 LINE",
"542 9 LINE",
"689 9 LINE",
"1020 531 LINE",
"927 134 LINE",
"871 134 LINE",
"840 0 LINE",
"1139 0 LINE",
"1170 134 LINE",
"1097 134 LINE",
"1207 606 LINE",
"1282 606 LINE",
"1313 740 LINE",
"968 740 LINE",
"666 244 LINE",
"577 740 LINE",
"241 740 LINE",
"210 606 LINE",
"295 606 LINE",
"186 134 LINE",
"119 134 LINE"
);
}
);
width = 1398;
}
);
leftKerningGroup = I;
rightKerningGroup = I;
unicode = 004D;
},
{
glyphname = N;
layers = (
{
anchors = (
{
name = bottom;
position = "{448, 0}";
},
{
name = top;
position = "{604, 740}";
}
);
layerId = "EEC59083-BA83-4EFB-8B50-D01213A5FD15";
paths = (
{
closed = 1;
nodes = (
"700 656 LINE",
"772 656 LINE",
"652 132 LINE",
"453 740 LINE",
"250 740 LINE",
"230 656 LINE",
"303 656 LINE",
"171 84 LINE",
"106 84 LINE",
"87 0 LINE",
"327 0 LINE",
"346 84 LINE",
"272 84 LINE",
"393 613 LINE",
"595 0 LINE",
"723 0 LINE",
"873 656 LINE",
"940 656 LINE",
"959 740 LINE",
"719 740 LINE"
);
}
);
width = 872;
},
{
anchors = (
{
name = bottom;
position = "{475, 0}";
},
{
name = top;
position = "{624, 740}";
}
);
layerId = "8956C7A5-95B5-4256-B2D2-E489185594C4";
paths = (
{
closed = 1;
nodes = (
"689 606 LINE",
"754 606 LINE",
"679 283 LINE",
"496 740 LINE",
"244 740 LINE",
"213 606 LINE",
"293 606 LINE",
"184 134 LINE",
"118 134 LINE",
"87 0 LINE",
"386 0 LINE",
"417 134 LINE",
"354 134 LINE",
"429 457 LINE",
"617 0 LINE",
"785 0 LINE",
"925 606 LINE",
"988 606 LINE",
"1019 740 LINE",
"720 740 LINE"
);
}
);
width = 1094;
}
);
leftKerningGroup = I;
rightKerningGroup = I;
unicode = 004E;
},
{
color = 6;
glyphname = Nacute;
layers = (
{
background = {
paths = (
{
closed = 1;
nodes = (
"663 740 LINE",
"962 740 LINE",
"931 606 LINE",
"868 606 LINE",
"728 0 LINE",
"560 0 LINE",
"372 457 LINE",
"297 134 LINE",
"360 134 LINE",
"329 0 LINE",
"30 0 LINE",
"61 134 LINE",
"127 134 LINE",
"236 606 LINE",
"156 606 LINE",
"187 740 LINE",
"439 740 LINE",
"622 283 LINE",
"697 606 LINE",
"632 606 LINE"
);
},
{
closed = 1;
nodes = (
"594 961 LINE",
"753 961 LINE",
"753 949 LINE",
"604 810 LINE",
"489 810 LINE"
);
},
{
closed = 1;
nodes = (
"0 760 LINE",
"872 760 LINE",
"872 0 LINE",
"0 0 LINE"
);
}
);
};
components = (
{
name = N;
},
{
name = acute;
transform = "{1, 0, 0, 1, 597, 234}";
}
);
layerId = "8956C7A5-95B5-4256-B2D2-E489185594C4";
width = 1094;
},
{
background = {
paths = (
{
closed = 1;
nodes = (
"663 740 LINE",
"962 740 LINE",
"931 606 LINE",
"868 606 LINE",
"728 0 LINE",
"560 0 LINE",
"372 457 LINE",
"297 134 LINE",
"360 134 LINE",
"329 0 LINE",
"30 0 LINE",
"61 134 LINE",
"127 134 LINE",
"236 606 LINE",
"156 606 LINE",
"187 740 LINE",
"439 740 LINE",
"622 283 LINE",
"697 606 LINE",
"632 606 LINE"
);
},
{
closed = 1;
nodes = (
"594 961 LINE",
"753 961 LINE",
"753 949 LINE",
"604 810 LINE",
"489 810 LINE"
);
},
{
closed = 1;
nodes = (
"0 760 LINE",
"872 760 LINE",
"872 0 LINE",
"0 0 LINE"
);
}
);
};
components = (
{
name = N;
},
{
name = acute;
transform = "{1, 0, 0, 1, 578, 234}";
}
);
layerId = "EEC59083-BA83-4EFB-8B50-D01213A5FD15";
width = 872;
}
);
leftKerningGroup = I;
rightKerningGroup = I;
unicode = 0143;
},
{
color = 6;
glyphname = Ncaron;
layers = (
{
background = {
paths = (
{
closed = 1;
nodes = (
"663 740 LINE",
"962 740 LINE",
"931 606 LINE",
"868 606 LINE",
"728 0 LINE",
"560 0 LINE",
"372 457 LINE",
"297 134 LINE",
"360 134 LINE",
"329 0 LINE",
"30 0 LINE",
"61 134 LINE",
"127 134 LINE",
"236 606 LINE",
"156 606 LINE",
"187 740 LINE",
"439 740 LINE",
"622 283 LINE",
"697 606 LINE",
"632 606 LINE"
);
},
{
closed = 1;
nodes = (
"801 968 LINE",
"627 810 LINE",
"510 810 LINE",
"414 968 LINE",
"535 968 LINE",
"582 892 LINE",
"666 968 LINE"
);
},
{
closed = 1;
nodes = (
"0 760 LINE",
"872 760 LINE",
"872 0 LINE",
"0 0 LINE"
);
}
);
};
components = (
{
name = N;
},
{
name = caron;
transform = "{1, 0, 0, 1, 510, 234}";
}
);
layerId = "8956C7A5-95B5-4256-B2D2-E489185594C4";
width = 1094;
},
{
background = {
paths = (
{
closed = 1;
nodes = (
"663 740 LINE",
"962 740 LINE",
"931 606 LINE",
"868 606 LINE",
"728 0 LINE",
"560 0 LINE",
"372 457 LINE",
"297 134 LINE",
"360 134 LINE",
"329 0 LINE",
"30 0 LINE",
"61 134 LINE",
"127 134 LINE",
"236 606 LINE",
"156 606 LINE",
"187 740 LINE",
"439 740 LINE",
"622 283 LINE",
"697 606 LINE",
"632 606 LINE"
);
},
{
closed = 1;
nodes = (
"801 968 LINE",
"627 810 LINE",
"510 810 LINE",
"414 968 LINE",
"535 968 LINE",
"582 892 LINE",
"666 968 LINE"
);
},
{
closed = 1;
nodes = (
"0 760 LINE",
"872 760 LINE",
"872 0 LINE",
"0 0 LINE"
);
}
);
};
components = (
{
name = N;
},
{
name = caron;
transform = "{1, 0, 0, 1, 521, 234}";
}
);
layerId = "EEC59083-BA83-4EFB-8B50-D01213A5FD15";
width = 872;
}
);
leftKerningGroup = I;
rightKerningGroup = I;
unicode = 0147;
},
{
color = 6;
glyphname = Ncommaaccent;
layers = (
{
background = {
paths = (
{
closed = 1;
nodes = (
"663 740 LINE",
"962 740 LINE",
"931 606 LINE",
"868 606 LINE",
"728 0 LINE",
"560 0 LINE",
"372 457 LINE",
"297 134 LINE",
"360 134 LINE",
"329 0 LINE",
"30 0 LINE",
"61 134 LINE",
"127 134 LINE",
"236 606 LINE",
"156 606 LINE",
"187 740 LINE",
"439 740 LINE",
"622 283 LINE",
"697 606 LINE",
"632 606 LINE"
);
},
{
closed = 1;
nodes = (
"352 -14 LINE",
"493 -65 LINE",
"397 -230 LINE",
"296 -195 LINE"
);
},
{
closed = 1;
nodes = (
"0 760 LINE",
"872 760 LINE",
"872 0 LINE",
"0 0 LINE"
);
}
);
};
components = (
{
name = N;
},
{
name = commaaccentcomb;
transform = "{1, 0, 0, 1, 444, 0}";
}
);
layerId = "8956C7A5-95B5-4256-B2D2-E489185594C4";
width = 1094;
},
{
background = {
paths = (
{
closed = 1;
nodes = (
"663 740 LINE",
"962 740 LINE",
"931 606 LINE",
"868 606 LINE",
"728 0 LINE",
"560 0 LINE",
"372 457 LINE",
"297 134 LINE",
"360 134 LINE",
"329 0 LINE",
"30 0 LINE",
"61 134 LINE",
"127 134 LINE",
"236 606 LINE",
"156 606 LINE",
"187 740 LINE",
"439 740 LINE",
"622 283 LINE",
"697 606 LINE",
"632 606 LINE"
);
},
{
closed = 1;
nodes = (
"352 -14 LINE",
"493 -65 LINE",
"397 -230 LINE",
"296 -195 LINE"
);
},
{
closed = 1;
nodes = (
"0 760 LINE",
"872 760 LINE",
"872 0 LINE",
"0 0 LINE"
);
}
);
};
components = (
{
name = N;
},
{
name = commaaccentcomb;
transform = "{1, 0, 0, 1, 415, 0}";
}
);
layerId = "EEC59083-BA83-4EFB-8B50-D01213A5FD15";
width = 872;
}
);
leftKerningGroup = I;
rightKerningGroup = I;
unicode = 0145;
},
{
glyphname = O;
layers = (
{
anchors = (
{
name = bottom;
position = "{311, 0}";
},
{
name = center;
position = "{356, 370}";
},
{
name = ogonek;
position = "{579, 10}";
},
{
name = top;
position = "{432, 740}";
},
{
name = topleft;
position = "{76, 740}";
},
{
name = topright;
position = "{621, 689}";
}
);
layerId = "EEC59083-BA83-4EFB-8B50-D01213A5FD15";
paths = (
{
closed = 1;
nodes = (
"557 -15 OFFCURVE",
"739 168 OFFCURVE",
"739 430 CURVE SMOOTH",
"739 635 OFFCURVE",
"595 754 OFFCURVE",
"428 754 CURVE SMOOTH",
"198 754 OFFCURVE",
"9 575 OFFCURVE",
"9 320 CURVE SMOOTH",
"9 117 OFFCURVE",
"153 -15 OFFCURVE",
"320 -15 CURVE SMOOTH"
);
},
{
closed = 1;
nodes = (
"207 84 OFFCURVE",
"118 189 OFFCURVE",
"118 328 CURVE SMOOTH",
"118 517 OFFCURVE",
"256 655 OFFCURVE",
"417 655 CURVE SMOOTH",
"541 655 OFFCURVE",
"630 564 OFFCURVE",
"630 422 CURVE SMOOTH",
"630 231 OFFCURVE",
"500 84 OFFCURVE",
"331 84 CURVE SMOOTH"
);
}
);
width = 770;
},
{
anchors = (
{
name = bottom;
position = "{318, 0}";
},
{
name = center;
position = "{343, 370}";
},
{
name = ogonek;
position = "{570, 10}";
},
{
name = top;
position = "{449, 740}";
},
{
name = topleft;
position = "{58, 740}";
},
{
name = topright;
position = "{635, 699}";
}
);
layerId = "8956C7A5-95B5-4256-B2D2-E489185594C4";
paths = (
{
closed = 1;
nodes = (
"552 -15 OFFCURVE",
"759 170 OFFCURVE",
"759 441 CURVE SMOOTH",
"759 626 OFFCURVE",
"639 754 OFFCURVE",
"454 754 CURVE SMOOTH",
"232 754 OFFCURVE",
"9 574 OFFCURVE",
"9 297 CURVE SMOOTH",
"9 111 OFFCURVE",
"137 -15 OFFCURVE",
"314 -15 CURVE SMOOTH"
);
},
{
closed = 1;
nodes = (
"243 149 OFFCURVE",
"186 216 OFFCURVE",
"186 313 CURVE SMOOTH",
"186 457 OFFCURVE",
"300 590 OFFCURVE",
"433 590 CURVE SMOOTH",
"524 590 OFFCURVE",
"580 523 OFFCURVE",
"580 426 CURVE SMOOTH",
"580 281 OFFCURVE",
"464 149 OFFCURVE",
"333 149 CURVE SMOOTH"
);
}
);
width = 789;
}
);
leftKerningGroup = O;
rightKerningGroup = O;
unicode = 004F;
},
{
color = 6;
glyphname = Ohungarumlaut;
layers = (
{
background = {
paths = (
{
closed = 1;
nodes = (
"365 -15 LINE",
"299 -15 LINE",
"187 30 LINE",
"105 112 LINE",
"60 227 LINE",
"60 297 LINE",
"60 366 LINE",
"95 488 LINE",
"157 589 LINE",
"242 669 LINE",
"340 725 LINE",
"449 754 LINE",
"505 754 LINE",
"574 754 LINE",
"687 708 LINE",
"767 625 LINE",
"810 510 LINE",
"810 441 LINE",
"810 373 LINE",
"777 253 LINE",
"718 151 LINE",
"636 71 LINE",
"537 15 LINE",
"425 -15 LINE"
);
},
{
closed = 1;
nodes = (
"384 149 LINE",
"417 149 LINE",
"479 170 LINE",
"534 207 LINE",
"580 259 LINE",
"612 320 LINE",
"631 390 LINE",
"631 426 LINE",
"631 462 LINE",
"611 522 LINE",
"573 566 LINE",
"518 590 LINE",
"484 590 LINE",
"434 590 LINE",
"344 544 LINE",
"277 467 LINE",
"237 367 LINE",
"237 313 LINE",
"237 276 LINE",
"257 216 LINE",
"296 173 LINE",
"350 149 LINE"
);
},
{
closed = 1;
nodes = (
"891 993 LINE",
"754 837 LINE",
"662 837 LINE",
"764 993 LINE"
);
},
{
closed = 1;
nodes = (
"697 993 LINE",
"572 837 LINE",
"481 837 LINE",
"571 993 LINE"
);
},
{
closed = 1;
nodes = (
"0 760 LINE",
"780 760 LINE",
"780 0 LINE",
"0 0 LINE"
);
}
);
};
components = (
{
name = O;
},
{
name = hungarumlautcomb;
transform = "{1, 0, 0, 1, 254, 234}";
}
);
layerId = "8956C7A5-95B5-4256-B2D2-E489185594C4";
width = 789;
},
{
background = {
paths = (
{
closed = 1;
nodes = (
"365 -15 LINE",
"299 -15 LINE",
"187 30 LINE",
"105 112 LINE",
"60 227 LINE",
"60 297 LINE",
"60 366 LINE",
"95 488 LINE",
"157 589 LINE",
"242 669 LINE",
"340 725 LINE",
"449 754 LINE",
"505 754 LINE",
"574 754 LINE",
"687 708 LINE",
"767 625 LINE",
"810 510 LINE",
"810 441 LINE",
"810 373 LINE",
"777 253 LINE",
"718 151 LINE",
"636 71 LINE",
"537 15 LINE",
"425 -15 LINE"
);
},
{
closed = 1;
nodes = (
"384 149 LINE",
"417 149 LINE",
"479 170 LINE",
"534 207 LINE",
"580 259 LINE",
"612 320 LINE",
"631 390 LINE",
"631 426 LINE",
"631 462 LINE",
"611 522 LINE",
"573 566 LINE",
"518 590 LINE",
"484 590 LINE",
"434 590 LINE",
"344 544 LINE",
"277 467 LINE",
"237 367 LINE",
"237 313 LINE",
"237 276 LINE",
"257 216 LINE",
"296 173 LINE",
"350 149 LINE"
);
},
{
closed = 1;
nodes = (
"891 993 LINE",
"754 837 LINE",
"662 837 LINE",
"764 993 LINE"
);
},
{
closed = 1;
nodes = (
"697 993 LINE",
"572 837 LINE",
"481 837 LINE",
"571 993 LINE"
);
},
{
closed = 1;
nodes = (
"0 760 LINE",
"780 760 LINE",
"780 0 LINE",
"0 0 LINE"
);
}
);
};
components = (
{
name = O;
},
{
name = hungarumlautcomb;
transform = "{1, 0, 0, 1, 251, 234}";
}
);
layerId = "EEC59083-BA83-4EFB-8B50-D01213A5FD15";
width = 770;
}
);
leftKerningGroup = O;
rightKerningGroup = O;
unicode = 0150;
},
{
color = 6;
glyphname = Omacron;
layers = (
{
background = {
paths = (
{
closed = 1;
nodes = (
"365 -15 LINE",
"299 -15 LINE",
"187 30 LINE",
"105 112 LINE",
"60 227 LINE",
"60 297 LINE",
"60 366 LINE",
"95 488 LINE",
"157 589 LINE",
"242 669 LINE",
"340 725 LINE",
"449 754 LINE",
"505 754 LINE",
"574 754 LINE",
"687 708 LINE",
"767 625 LINE",
"810 510 LINE",
"810 441 LINE",
"810 373 LINE",
"777 253 LINE",
"718 151 LINE",
"636 71 LINE",
"537 15 LINE",
"425 -15 LINE"
);
},
{
closed = 1;
nodes = (
"384 149 LINE",
"417 149 LINE",
"479 170 LINE",
"534 207 LINE",
"580 259 LINE",
"612 320 LINE",
"631 390 LINE",
"631 426 LINE",
"631 462 LINE",
"611 522 LINE",
"573 566 LINE",
"518 590 LINE",
"484 590 LINE",
"434 590 LINE",
"344 544 LINE",
"277 467 LINE",
"237 367 LINE",
"237 313 LINE",
"237 276 LINE",
"257 216 LINE",
"296 173 LINE",
"350 149 LINE"
);
},
{
closed = 1;
nodes = (
"722 828 LINE",
"386 828 LINE",
"386 933 LINE",
"722 933 LINE"
);
},
{
closed = 1;
nodes = (
"0 760 LINE",
"780 760 LINE",
"780 0 LINE",
"0 0 LINE"
);
}
);
};
components = (
{
name = O;
},
{
name = macroncomb;
transform = "{1, 0, 0, 1, 173, 234}";
}
);
layerId = "8956C7A5-95B5-4256-B2D2-E489185594C4";
width = 789;
},
{
background = {
paths = (
{
closed = 1;
nodes = (
"365 -15 LINE",
"299 -15 LINE",
"187 30 LINE",
"105 112 LINE",
"60 227 LINE",
"60 297 LINE",
"60 366 LINE",
"95 488 LINE",
"157 589 LINE",
"242 669 LINE",
"340 725 LINE",
"449 754 LINE",
"505 754 LINE",
"574 754 LINE",
"687 708 LINE",
"767 625 LINE",
"810 510 LINE",
"810 441 LINE",
"810 373 LINE",
"777 253 LINE",
"718 151 LINE",
"636 71 LINE",
"537 15 LINE",
"425 -15 LINE"
);
},
{
closed = 1;
nodes = (
"384 149 LINE",
"417 149 LINE",
"479 170 LINE",
"534 207 LINE",
"580 259 LINE",
"612 320 LINE",
"631 390 LINE",
"631 426 LINE",
"631 462 LINE",
"611 522 LINE",
"573 566 LINE",
"518 590 LINE",
"484 590 LINE",
"434 590 LINE",
"344 544 LINE",
"277 467 LINE",
"237 367 LINE",
"237 313 LINE",
"237 276 LINE",
"257 216 LINE",
"296 173 LINE",
"350 149 LINE"
);
},
{
closed = 1;
nodes = (
"722 828 LINE",
"386 828 LINE",
"386 933 LINE",
"722 933 LINE"
);
},
{
closed = 1;
nodes = (
"0 760 LINE",
"780 760 LINE",
"780 0 LINE",
"0 0 LINE"
);
}
);
};
components = (
{
name = O;
},
{
name = macroncomb;
transform = "{1, 0, 0, 1, 137, 234}";
}
);
layerId = "EEC59083-BA83-4EFB-8B50-D01213A5FD15";
width = 770;
}
);
leftKerningGroup = O;
rightKerningGroup = O;
unicode = 014C;
},
{
color = 6;
glyphname = OE;
layers = (
{
background = {
paths = (
{
closed = 1;
nodes = (
"384 0 LINE",
"315 0 LINE",
"204 50 LINE",
"126 134 LINE",
"84 247 LINE",
"84 310 LINE",
"84 399 LINE",
"154 555 LINE",
"275 672 LINE",
"439 740 LINE",
"533 740 LINE",
"1139 740 LINE",
"1081 488 LINE",
"910 488 LINE",
"937 605 LINE",
"737 605 LINE",
"700 447 LINE",
"849 447 LINE",
"814 305 LINE",
"667 305 LINE",
"628 134 LINE",
"815 134 LINE",
"845 265 LINE",
"1017 265 LINE",
"956 0 LINE"
);
},
{
closed = 1;
nodes = (
"259 327 LINE",
"259 288 LINE",
"280 218 LINE",
"317 165 LINE",
"371 134 LINE",
"404 134 LINE",
"466 134 LINE",
"575 606 LINE",
"531 606 LINE",
"481 606 LINE",
"384 563 LINE",
"307 487 LINE",
"259 385 LINE"
);
},
{
closed = 1;
nodes = (
"24 760 LINE",
"1054 760 LINE",
"1054 0 LINE",
"24 0 LINE"
);
}
);
};
layerId = "8956C7A5-95B5-4256-B2D2-E489185594C4";
paths = (
{
closed = 1;
nodes = (
"885 0 LINE",
"946 265 LINE",
"774 265 LINE",
"744 134 LINE",
"333 134 LINE SMOOTH",
"245 134 OFFCURVE",
"188 224 OFFCURVE",
"188 327 CURVE SMOOTH",
"188 483 OFFCURVE",
"328 606 OFFCURVE",
"460 606 CURVE SMOOTH",
"866 605 LINE",
"839 488 LINE",
"1010 488 LINE",
"1068 740 LINE",
"462 740 LINE SMOOTH",
"212 740 OFFCURVE",
"13 547 OFFCURVE",
"13 310 CURVE SMOOTH",
"13 142 OFFCURVE",
"128 0 OFFCURVE",
"313 0 CURVE SMOOTH"
);
},
{
closed = 1;
nodes = (
"540 61 LINE",
"680 665 LINE",
"518 665 LINE",
"378 61 LINE"
);
},
{
closed = 1;
nodes = (
"483 305 LINE",
"743 305 LINE",
"778 447 LINE",
"516 447 LINE"
);
}
);
width = 1130;
},
{
background = {
paths = (
{
closed = 1;
nodes = (
"384 0 LINE",
"315 0 LINE",
"204 50 LINE",
"126 134 LINE",
"84 247 LINE",
"84 310 LINE",
"84 399 LINE",
"154 555 LINE",
"275 672 LINE",
"439 740 LINE",
"533 740 LINE",
"1139 740 LINE",
"1081 488 LINE",
"910 488 LINE",
"937 605 LINE",
"737 605 LINE",
"700 447 LINE",
"849 447 LINE",
"814 305 LINE",
"667 305 LINE",
"628 134 LINE",
"815 134 LINE",
"845 265 LINE",
"1017 265 LINE",
"956 0 LINE"
);
},
{
closed = 1;
nodes = (
"259 327 LINE",
"259 288 LINE",
"280 218 LINE",
"317 165 LINE",
"371 134 LINE",
"404 134 LINE",
"466 134 LINE",
"575 606 LINE",
"531 606 LINE",
"481 606 LINE",
"384 563 LINE",
"307 487 LINE",
"259 385 LINE"
);
},
{
closed = 1;
nodes = (
"24 760 LINE",
"1054 760 LINE",
"1054 0 LINE",
"24 0 LINE"
);
}
);
};
layerId = "EEC59083-BA83-4EFB-8B50-D01213A5FD15";
paths = (
{
closed = 1;
nodes = (
"864 0 LINE",
"913 211 LINE",
"811 211 LINE",
"781 84 LINE",
"321 84 LINE SMOOTH",
"191 84 OFFCURVE",
"117 189 OFFCURVE",
"117 320 CURVE SMOOTH",
"117 507 OFFCURVE",
"284 656 OFFCURVE",
"443 656 CURVE SMOOTH",
"913 656 LINE",
"885 529 LINE",
"985 529 LINE",
"1033 740 LINE",
"455 740 LINE SMOOTH",
"221 740 OFFCURVE",
"13 549 OFFCURVE",
"13 312 CURVE SMOOTH",
"13 145 OFFCURVE",
"126 0 OFFCURVE",
"312 0 CURVE SMOOTH"
);
},
{
closed = 1;
nodes = (
"513 51 LINE",
"659 685 LINE",
"563 685 LINE",
"417 51 LINE"
);
},
{
closed = 1;
nodes = (
"536 335 LINE",
"800 335 LINE",
"820 419 LINE",
"556 419 LINE"
);
}
);
width = 1009;
}
);
leftKerningGroup = O;
rightKerningGroup = E;
unicode = 0152;
},
{
glyphname = P;
layers = (
{
anchors = (
{
name = bottom;
position = "{323, 0}";
},
{
name = top;
position = "{493, 740}";
}
);
layerId = "EEC59083-BA83-4EFB-8B50-D01213A5FD15";
paths = (
{
closed = 1;
nodes = (
"230 656 LINE",
"302 656 LINE",
"170 84 LINE",
"106 84 LINE",
"87 0 LINE",
"327 0 LINE",
"346 84 LINE",
"272 84 LINE",
"326 321 LINE",
"447 321 LINE SMOOTH",
"635 321 OFFCURVE",
"738 421 OFFCURVE",
"738 555 CURVE SMOOTH",
"738 657 OFFCURVE",
"660 740 OFFCURVE",
"547 740 CURVE SMOOTH",
"250 740 LINE"
);
},
{
closed = 1;
nodes = (
"519 656 LINE",
"600 656 OFFCURVE",
"635 604 OFFCURVE",
"635 549 CURVE SMOOTH",
"635 456 OFFCURVE",
"564 405 OFFCURVE",
"458 405 CURVE SMOOTH",
"346 405 LINE",
"403 656 LINE"
);
}
);
width = 641;
},
{
anchors = (
{
name = bottom;
position = "{330, 0}";
},
{
name = top;
position = "{500, 740}";
}
);
layerId = "8956C7A5-95B5-4256-B2D2-E489185594C4";
paths = (
{
closed = 1;
nodes = (
"218 606 LINE",
"303 606 LINE",
"194 134 LINE",
"118 134 LINE",
"87 0 LINE",
"417 0 LINE",
"448 134 LINE",
"365 134 LINE",
"397 275 LINE",
"485 275 LINE SMOOTH",
"721 275 OFFCURVE",
"808 398 OFFCURVE",
"808 541 CURVE SMOOTH",
"808 653 OFFCURVE",
"729 740 OFFCURVE",
"593 740 CURVE SMOOTH",
"249 740 LINE"
);
},
{
closed = 1;
nodes = (
"526 606 LINE",
"593 606 OFFCURVE",
"627 574 OFFCURVE",
"627 525 CURVE SMOOTH",
"627 445 OFFCURVE",
"568 407 OFFCURVE",
"480 407 CURVE SMOOTH",
"428 407 LINE",
"474 606 LINE"
);
}
);
width = 824;
}
);
leftKerningGroup = I;
rightKerningGroup = P;
unicode = 0050;
},
{
glyphname = Thorn;
layers = (
{
layerId = "EEC59083-BA83-4EFB-8B50-D01213A5FD15";
paths = (
{
closed = 1;
nodes = (
"333 0 LINE",
"352 84 LINE",
"284 84 LINE",
"308 189 LINE",
"463 189 LINE SMOOTH",
"627 189 OFFCURVE",
"731 286 OFFCURVE",
"731 422 CURVE SMOOTH",
"731 528 OFFCURVE",
"648 590 OFFCURVE",
"533 590 CURVE SMOOTH",
"400 590 LINE",
"415 656 LINE",
"484 656 LINE",
"504 740 LINE",
"264 740 LINE",
"244 656 LINE",
"314 656 LINE",
"182 84 LINE",
"112 84 LINE",
"93 0 LINE"
);
},
{
closed = 1;
nodes = (
"381 506 LINE",
"512 506 LINE",
"593 506 OFFCURVE",
"628 469 OFFCURVE",
"628 414 CURVE SMOOTH",
"628 321 OFFCURVE",
"559 273 OFFCURVE",
"470 273 CURVE SMOOTH",
"327 273 LINE"
);
}
);
width = 659;
},
{
guideLines = (
{
position = "{439, 294}";
},
{
position = "{468, 160}";
},
{
position = "{162, 134}";
},
{
angle = 180;
position = "{267, 606}";
}
);
layerId = "8956C7A5-95B5-4256-B2D2-E489185594C4";
paths = (
{
closed = 1;
nodes = (
"340 0 LINE",
"371 134 LINE",
"371 134 LINE",
"377 162 LINE",
"466 162 LINE SMOOTH",
"636 162 OFFCURVE",
"782 241 OFFCURVE",
"782 395 CURVE SMOOTH",
"782 504 OFFCURVE",
"701 586 OFFCURVE",
"566 586 CURVE SMOOTH",
"476 586 LINE",
"481 606 LINE",
"481 606 LINE",
"511 740 LINE",
"255 740 LINE",
"224 606 LINE",
"309 606 LINE",
"200 134 LINE",
"124 134 LINE",
"93 0 LINE"
);
},
{
closed = 1;
nodes = (
"444 452 LINE",
"504 452 LINE",
"573 452 OFFCURVE",
"603 427 OFFCURVE",
"603 386 CURVE SMOOTH",
"603 317 OFFCURVE",
"548 294 OFFCURVE",
"470 294 CURVE SMOOTH",
"408 294 LINE"
);
}
);
width = 800;
}
);
leftKerningGroup = I;
rightKerningGroup = P;
rightMetricsKey = P;
unicode = 00DE;
},
{
glyphname = Q;
layers = (
{
anchors = (
{
name = bottom;
position = "{295, 0}";
},
{
name = top;
position = "{445, 740}";
}
);
layerId = "EEC59083-BA83-4EFB-8B50-D01213A5FD15";
paths = (
{
closed = 1;
nodes = (
"245 -99 LINE",
"251 -97 OFFCURVE",
"261 -95 OFFCURVE",
"270 -94 CURVE SMOOTH",
"344 -82 OFFCURVE",
"384 -159 OFFCURVE",
"481 -159 CURVE SMOOTH",
"543 -159 OFFCURVE",
"626 -122 OFFCURVE",
"659 -49 CURVE",
"593 -15 LINE",
"575 -53 OFFCURVE",
"538 -72 OFFCURVE",
"501 -72 CURVE",
"436 -72 OFFCURVE",
"410 -31 OFFCURVE",
"355 -14 CURVE",
"575 3 OFFCURVE",
"739 181 OFFCURVE",
"739 430 CURVE SMOOTH",
"739 635 OFFCURVE",
"595 754 OFFCURVE",
"428 754 CURVE SMOOTH",
"198 754 OFFCURVE",
"9 575 OFFCURVE",
"9 320 CURVE SMOOTH",
"9 139 OFFCURVE",
"123 15 OFFCURVE",
"265 -10 CURVE"
);
},
{
closed = 1;
nodes = (
"207 84 OFFCURVE",
"118 189 OFFCURVE",
"118 328 CURVE SMOOTH",
"118 517 OFFCURVE",
"256 655 OFFCURVE",
"417 655 CURVE SMOOTH",
"541 655 OFFCURVE",
"630 564 OFFCURVE",
"630 422 CURVE SMOOTH",
"630 231 OFFCURVE",
"500 84 OFFCURVE",
"331 84 CURVE SMOOTH"
);
}
);
width = 761;
},
{
anchors = (
{
name = bottom;
position = "{281, 0}";
},
{
name = top;
position = "{451, 740}";
}
);
layerId = "8956C7A5-95B5-4256-B2D2-E489185594C4";
paths = (
{
closed = 1;
nodes = (
"233 -129 LINE",
"249 -124 OFFCURVE",
"259 -123 OFFCURVE",
"275 -123 CURVE SMOOTH",
"350 -123 OFFCURVE",
"406 -193 OFFCURVE",
"480 -193 CURVE SMOOTH",
"575 -193 OFFCURVE",
"669 -131 OFFCURVE",
"702 -36 CURVE",
"605 18 LINE",
"586 -32 OFFCURVE",
"542 -52 OFFCURVE",
"502 -52 CURVE",
"459 -51 OFFCURVE",
"427 -26 OFFCURVE",
"389 -9 CURVE",
"594 25 OFFCURVE",
"759 199 OFFCURVE",
"759 441 CURVE SMOOTH",
"759 626 OFFCURVE",
"639 754 OFFCURVE",
"454 754 CURVE SMOOTH",
"232 754 OFFCURVE",
"9 574 OFFCURVE",
"9 297 CURVE SMOOTH",
"9 130 OFFCURVE",
"112 11 OFFCURVE",
"261 -11 CURVE"
);
},
{
closed = 1;
nodes = (
"243 149 OFFCURVE",
"186 216 OFFCURVE",
"186 313 CURVE SMOOTH",
"186 457 OFFCURVE",
"300 590 OFFCURVE",
"433 590 CURVE SMOOTH",
"524 590 OFFCURVE",
"580 523 OFFCURVE",
"580 426 CURVE SMOOTH",
"580 281 OFFCURVE",
"464 149 OFFCURVE",
"333 149 CURVE SMOOTH"
);
}
);
width = 764;
}
);
leftKerningGroup = O;
rightKerningGroup = Q;
unicode = 0051;
},
{
glyphname = R;
layers = (
{
anchors = (
{
name = bottom;
position = "{373, 0}";
},
{
name = top;
position = "{501, 740}";
}
);
layerId = "EEC59083-BA83-4EFB-8B50-D01213A5FD15";
paths = (
{
closed = 1;
nodes = (
"230 656 LINE",
"303 656 LINE",
"171 84 LINE",
"106 84 LINE",
"87 0 LINE",
"327 0 LINE",
"346 84 LINE",
"273 84 LINE",
"332 343 LINE",
"412 343 LINE SMOOTH",
"484 343 OFFCURVE",
"520 306 OFFCURVE",
"521 225 CURVE SMOOTH",
"524 0 LINE",
"667 0 LINE",
"686 84 LINE",
"623 84 LINE",
"620 254 LINE SMOOTH",
"619 304 OFFCURVE",
"599 342 OFFCURVE",
"573 360 CURVE",
"662 388 OFFCURVE",
"739 461 OFFCURVE",
"739 567 CURVE SMOOTH",
"739 669 OFFCURVE",
"664 740 OFFCURVE",
"551 740 CURVE SMOOTH",
"250 740 LINE"
);
},
{
closed = 1;
nodes = (
"519 656 LINE",
"600 656 OFFCURVE",
"636 617 OFFCURVE",
"636 562 CURVE SMOOTH",
"636 469 OFFCURVE",
"565 425 OFFCURVE",
"467 425 CURVE SMOOTH",
"351 425 LINE",
"404 656 LINE"
);
}
);
width = 702;
},
{
anchors = (
{
name = bottom;
position = "{381, 0}";
},
{
name = top;
position = "{542, 740}";
}
);
layerId = "8956C7A5-95B5-4256-B2D2-E489185594C4";
paths = (
{
closed = 1;
nodes = (
"208 606 LINE",
"293 606 LINE",
"183 134 LINE",
"118 134 LINE",
"87 0 LINE",
"386 0 LINE",
"417 134 LINE",
"354 134 LINE",
"392 295 LINE",
"439 295 LINE SMOOTH",
"518 295 OFFCURVE",
"545 260 OFFCURVE",
"539 176 CURVE SMOOTH",
"527 0 LINE",
"747 0 LINE",
"778 134 LINE",
"708 134 LINE",
"705 240 LINE SMOOTH",
"703 287 OFFCURVE",
"689 318 OFFCURVE",
"668 337 CURVE",
"775 382 OFFCURVE",
"821 447 OFFCURVE",
"821 551 CURVE SMOOTH",
"821 644 OFFCURVE",
"764 740 OFFCURVE",
"633 740 CURVE SMOOTH",
"239 740 LINE"
);
},
{
closed = 1;
nodes = (
"561 606 LINE",
"624 606 OFFCURVE",
"649 576 OFFCURVE",
"649 530 CURVE SMOOTH",
"649 459 OFFCURVE",
"596 427 OFFCURVE",
"515 427 CURVE SMOOTH",
"422 427 LINE",
"464 606 LINE"
);
}
);
width = 848;
}
);
leftKerningGroup = I;
rightKerningGroup = R;
unicode = 0052;
},
{
color = 6;
glyphname = Racute;
layers = (
{
background = {
paths = (
{
closed = 1;
nodes = (
"182 740 LINE",
"576 740 LINE",
"625 740 LINE",
"696 707 LINE",
"742 654 LINE",
"764 586 LINE",
"764 551 LINE",
"764 503 LINE",
"737 428 LINE",
"679 369 LINE",
"624 342 LINE",
"612 336 LINE",
"617 332 LINE",
"633 312 LINE",
"647 270 LINE",
"648 240 LINE",
"651 134 LINE",
"721 134 LINE",
"690 0 LINE",
"470 0 LINE",
"482 176 LINE",
"484 207 LINE",
"476 252 LINE",
"452 281 LINE",
"412 295 LINE",
"382 295 LINE",
"335 295 LINE",
"297 134 LINE",
"360 134 LINE",
"329 0 LINE",
"30 0 LINE",
"61 134 LINE",
"126 134 LINE",
"236 606 LINE",
"151 606 LINE"
);
},
{
closed = 1;
nodes = (
"407 606 LINE",
"365 427 LINE",
"458 427 LINE",
"488 427 LINE",
"538 439 LINE",
"573 464 LINE",
"592 503 LINE",
"592 530 LINE",
"592 564 LINE",
"551 606 LINE",
"504 606 LINE"
);
},
{
closed = 1;
nodes = (
"516 961 LINE",
"675 961 LINE",
"675 949 LINE",
"526 809 LINE",
"411 809 LINE"
);
},
{
closed = 1;
nodes = (
"0 760 LINE",
"724 760 LINE",
"724 0 LINE",
"0 0 LINE"
);
}
);
};
components = (
{
name = R;
},
{
name = acutecomb;
transform = "{1, 0, 0, 1, 415, 234}";
}
);
layerId = "8956C7A5-95B5-4256-B2D2-E489185594C4";
width = 848;
},
{
background = {
paths = (
{
closed = 1;
nodes = (
"182 740 LINE",
"576 740 LINE",
"625 740 LINE",
"696 707 LINE",
"742 654 LINE",
"764 586 LINE",
"764 551 LINE",
"764 503 LINE",
"737 428 LINE",
"679 369 LINE",
"624 342 LINE",
"612 336 LINE",
"617 332 LINE",
"633 312 LINE",
"647 270 LINE",
"648 240 LINE",
"651 134 LINE",
"721 134 LINE",
"690 0 LINE",
"470 0 LINE",
"482 176 LINE",
"484 207 LINE",
"476 252 LINE",
"452 281 LINE",
"412 295 LINE",
"382 295 LINE",
"335 295 LINE",
"297 134 LINE",
"360 134 LINE",
"329 0 LINE",
"30 0 LINE",
"61 134 LINE",
"126 134 LINE",
"236 606 LINE",
"151 606 LINE"
);
},
{
closed = 1;
nodes = (
"407 606 LINE",
"365 427 LINE",
"458 427 LINE",
"488 427 LINE",
"538 439 LINE",
"573 464 LINE",
"592 503 LINE",
"592 530 LINE",
"592 564 LINE",
"551 606 LINE",
"504 606 LINE"
);
},
{
closed = 1;
nodes = (
"516 961 LINE",
"675 961 LINE",
"675 949 LINE",
"526 809 LINE",
"411 809 LINE"
);
},
{
closed = 1;
nodes = (
"0 760 LINE",
"724 760 LINE",
"724 0 LINE",
"0 0 LINE"
);
}
);
};
components = (
{
name = R;
},
{
name = acute;
transform = "{1, 0, 0, 1, 475, 234}";
}
);
layerId = "EEC59083-BA83-4EFB-8B50-D01213A5FD15";
width = 702;
}
);
leftKerningGroup = I;
rightKerningGroup = R;
unicode = 0154;
},
{
color = 6;
glyphname = Rcaron;
layers = (
{
background = {
paths = (
{
closed = 1;
nodes = (
"182 740 LINE",
"576 740 LINE",
"625 740 LINE",
"696 707 LINE",
"742 654 LINE",
"764 586 LINE",
"764 551 LINE",
"764 503 LINE",
"737 428 LINE",
"679 369 LINE",
"624 342 LINE",
"612 336 LINE",
"617 332 LINE",
"633 312 LINE",
"647 270 LINE",
"648 240 LINE",
"651 134 LINE",
"721 134 LINE",
"690 0 LINE",
"470 0 LINE",
"482 176 LINE",
"484 207 LINE",
"476 252 LINE",
"452 281 LINE",
"412 295 LINE",
"382 295 LINE",
"335 295 LINE",
"297 134 LINE",
"360 134 LINE",
"329 0 LINE",
"30 0 LINE",
"61 134 LINE",
"126 134 LINE",
"236 606 LINE",
"151 606 LINE"
);
},
{
closed = 1;
nodes = (
"407 606 LINE",
"365 427 LINE",
"458 427 LINE",
"488 427 LINE",
"538 439 LINE",
"573 464 LINE",
"592 503 LINE",
"592 530 LINE",
"592 564 LINE",
"551 606 LINE",
"504 606 LINE"
);
},
{
closed = 1;
nodes = (
"723 968 LINE",
"549 809 LINE",
"432 809 LINE",
"336 968 LINE",
"457 968 LINE",
"504 891 LINE",
"588 968 LINE"
);
},
{
closed = 1;
nodes = (
"0 760 LINE",
"724 760 LINE",
"724 0 LINE",
"0 0 LINE"
);
}
);
};
components = (
{
name = R;
},
{
name = caron;
transform = "{1, 0, 0, 1, 428, 234}";
}
);
layerId = "8956C7A5-95B5-4256-B2D2-E489185594C4";
width = 848;
},
{
background = {
paths = (
{
closed = 1;
nodes = (
"182 740 LINE",
"576 740 LINE",
"625 740 LINE",
"696 707 LINE",
"742 654 LINE",
"764 586 LINE",
"764 551 LINE",
"764 503 LINE",
"737 428 LINE",
"679 369 LINE",
"624 342 LINE",
"612 336 LINE",
"617 332 LINE",
"633 312 LINE",
"647 270 LINE",
"648 240 LINE",
"651 134 LINE",
"721 134 LINE",
"690 0 LINE",
"470 0 LINE",
"482 176 LINE",
"484 207 LINE",
"476 252 LINE",
"452 281 LINE",
"412 295 LINE",
"382 295 LINE",
"335 295 LINE",
"297 134 LINE",
"360 134 LINE",
"329 0 LINE",
"30 0 LINE",
"61 134 LINE",
"126 134 LINE",
"236 606 LINE",
"151 606 LINE"
);
},
{
closed = 1;
nodes = (
"407 606 LINE",
"365 427 LINE",
"458 427 LINE",
"488 427 LINE",
"538 439 LINE",
"573 464 LINE",
"592 503 LINE",
"592 530 LINE",
"592 564 LINE",
"551 606 LINE",
"504 606 LINE"
);
},
{
closed = 1;
nodes = (
"723 968 LINE",
"549 809 LINE",
"432 809 LINE",
"336 968 LINE",
"457 968 LINE",
"504 891 LINE",
"588 968 LINE"
);
},
{
closed = 1;
nodes = (
"0 760 LINE",
"724 760 LINE",
"724 0 LINE",
"0 0 LINE"
);
}
);
};
components = (
{
name = R;
},
{
name = caron;
transform = "{1, 0, 0, 1, 418, 234}";
}
);
layerId = "EEC59083-BA83-4EFB-8B50-D01213A5FD15";
width = 702;
}
);
leftKerningGroup = I;
rightKerningGroup = R;
unicode = 0158;
},
{
color = 6;
glyphname = Rcommaaccent;
layers = (
{
background = {
paths = (
{
closed = 1;
nodes = (
"182 740 LINE",
"576 740 LINE",
"625 740 LINE",
"696 707 LINE",
"742 654 LINE",
"764 586 LINE",
"764 551 LINE",
"764 503 LINE",
"737 428 LINE",
"679 369 LINE",
"624 342 LINE",
"612 336 LINE",
"617 332 LINE",
"633 312 LINE",
"647 270 LINE",
"648 240 LINE",
"651 134 LINE",
"721 134 LINE",
"690 0 LINE",
"470 0 LINE",
"482 176 LINE",
"484 207 LINE",
"476 252 LINE",
"452 281 LINE",
"412 295 LINE",
"382 295 LINE",
"335 295 LINE",
"297 134 LINE",
"360 134 LINE",
"329 0 LINE",
"30 0 LINE",
"61 134 LINE",
"126 134 LINE",
"236 606 LINE",
"151 606 LINE"
);
},
{
closed = 1;
nodes = (
"407 606 LINE",
"365 427 LINE",
"458 427 LINE",
"488 427 LINE",
"538 439 LINE",
"573 464 LINE",
"592 503 LINE",
"592 530 LINE",
"592 564 LINE",
"551 606 LINE",
"504 606 LINE"
);
},
{
closed = 1;
nodes = (
"319 -14 LINE",
"460 -65 LINE",
"364 -230 LINE",
"263 -195 LINE"
);
},
{
closed = 1;
nodes = (
"0 760 LINE",
"724 760 LINE",
"724 0 LINE",
"0 0 LINE"
);
}
);
};
components = (
{
name = R;
},
{
name = commaaccentcomb;
transform = "{1, 0, 0, 1, 350, 0}";
}
);
layerId = "8956C7A5-95B5-4256-B2D2-E489185594C4";
width = 848;
},
{
background = {
paths = (
{
closed = 1;
nodes = (
"182 740 LINE",
"576 740 LINE",
"625 740 LINE",
"696 707 LINE",
"742 654 LINE",
"764 586 LINE",
"764 551 LINE",
"764 503 LINE",
"737 428 LINE",
"679 369 LINE",
"624 342 LINE",
"612 336 LINE",
"617 332 LINE",
"633 312 LINE",
"647 270 LINE",
"648 240 LINE",
"651 134 LINE",
"721 134 LINE",
"690 0 LINE",
"470 0 LINE",
"482 176 LINE",
"484 207 LINE",
"476 252 LINE",
"452 281 LINE",
"412 295 LINE",
"382 295 LINE",
"335 295 LINE",
"297 134 LINE",
"360 134 LINE",
"329 0 LINE",
"30 0 LINE",
"61 134 LINE",
"126 134 LINE",
"236 606 LINE",
"151 606 LINE"
);
},
{
closed = 1;
nodes = (
"407 606 LINE",
"365 427 LINE",
"458 427 LINE",
"488 427 LINE",
"538 439 LINE",
"573 464 LINE",
"592 503 LINE",
"592 530 LINE",
"592 564 LINE",
"551 606 LINE",
"504 606 LINE"
);
},
{
closed = 1;
nodes = (
"319 -14 LINE",
"460 -65 LINE",
"364 -230 LINE",
"263 -195 LINE"
);
},
{
closed = 1;
nodes = (
"0 760 LINE",
"724 760 LINE",
"724 0 LINE",
"0 0 LINE"
);
}
);
};
components = (
{
name = R;
},
{
name = commaaccentcomb;
transform = "{1, 0, 0, 1, 340, 0}";
}
);
layerId = "EEC59083-BA83-4EFB-8B50-D01213A5FD15";
width = 702;
}
);
leftKerningGroup = I;
rightKerningGroup = R;
unicode = 0156;
},
{
glyphname = S;
layers = (
{
anchors = (
{
name = bottom;
position = "{293, 0}";
},
{
name = top;
position = "{447, 740}";
}
);
layerId = "EEC59083-BA83-4EFB-8B50-D01213A5FD15";
paths = (
{
closed = 1;
nodes = (
"553 546 LINE",
"680 546 LINE",
"699 624 LINE",
"650 624 LINE",
"627 700 OFFCURVE",
"551 751 OFFCURVE",
"441 751 CURVE SMOOTH",
"265 751 OFFCURVE",
"160 650 OFFCURVE",
"160 517 CURVE SMOOTH",
"160 431 OFFCURVE",
"207 376 OFFCURVE",
"295 348 CURVE",
"380 321 LINE",
"438 302 OFFCURVE",
"486 275 OFFCURVE",
"486 213 CURVE SMOOTH",
"486 132 OFFCURVE",
"415 74 OFFCURVE",
"318 74 CURVE SMOOTH",
"223 74 OFFCURVE",
"169 108 OFFCURVE",
"178 179 CURVE",
"187 215 LINE",
"54 215 LINE",
"35 137 LINE",
"81 137 LINE",
"90 57 OFFCURVE",
"147 -15 OFFCURVE",
"301 -15 CURVE SMOOTH",
"473 -15 OFFCURVE",
"590 83 OFFCURVE",
"590 228 CURVE SMOOTH",
"590 319 OFFCURVE",
"543 371 OFFCURVE",
"449 403 CURVE",
"358 436 LINE SMOOTH",
"315 451 OFFCURVE",
"260 463 OFFCURVE",
"260 528 CURVE SMOOTH",
"260 601 OFFCURVE",
"324 663 OFFCURVE",
"432 663 CURVE SMOOTH",
"507 663 OFFCURVE",
"570 624 OFFCURVE",
"555 555 CURVE"
);
}
);
width = 624;
},
{
anchors = (
{
name = bottom;
position = "{310, 0}";
},
{
name = top;
position = "{448, 740}";
}
);
layerId = "8956C7A5-95B5-4256-B2D2-E489185594C4";
paths = (
{
closed = 1;
nodes = (
"524 498 LINE",
"701 498 LINE",
"730 623 LINE",
"674 623 LINE",
"664 693 OFFCURVE",
"580 753 OFFCURVE",
"456 753 CURVE SMOOTH",
"278 753 OFFCURVE",
"152 673 OFFCURVE",
"152 512 CURVE SMOOTH",
"152 422 OFFCURVE",
"206 354 OFFCURVE",
"284 328 CURVE",
"368 299 LINE",
"413 284 OFFCURVE",
"452 267 OFFCURVE",
"452 224 CURVE SMOOTH",
"452 168 OFFCURVE",
"407 127 OFFCURVE",
"334 127 CURVE SMOOTH",
"257 127 OFFCURVE",
"224 165 OFFCURVE",
"233 223 CURVE",
"242 260 LINE",
"64 260 LINE",
"35 135 LINE",
"90 135 LINE",
"101 45 OFFCURVE",
"187 -12 OFFCURVE",
"311 -12 CURVE SMOOTH",
"495 -12 OFFCURVE",
"628 84 OFFCURVE",
"628 245 CURVE SMOOTH",
"628 332 OFFCURVE",
"591 394 OFFCURVE",
"508 424 CURVE",
"407 461 LINE SMOOTH",
"368 475 OFFCURVE",
"320 485 OFFCURVE",
"320 535 CURVE SMOOTH",
"320 593 OFFCURVE",
"374 617 OFFCURVE",
"438 617 CURVE SMOOTH",
"500 617 OFFCURVE",
"545 581 OFFCURVE",
"529 519 CURVE"
);
}
);
width = 768;
}
);
leftKerningGroup = S;
rightKerningGroup = S;
unicode = 0053;
},
{
color = 6;
glyphname = Sacute;
layers = (
{
background = {
paths = (
{
closed = 1;
nodes = (
"39 260 LINE",
"217 260 LINE",
"204 210 LINE",
"211 169 LINE",
"236 142 LINE",
"279 127 LINE",
"309 127 LINE",
"336 127 LINE",
"380 142 LINE",
"411 167 LINE",
"427 203 LINE",
"427 224 LINE",
"427 240 LINE",
"413 264 LINE",
"390 281 LINE",
"360 293 LINE",
"343 299 LINE",
"259 328 LINE",
"229 338 LINE",
"181 373 LINE",
"146 419 LINE",
"127 479 LINE",
"127 512 LINE",
"127 572 LINE",
"172 663 LINE",
"252 723 LINE",
"364 753 LINE",
"431 753 LINE",
"479 753 LINE",
"559 730 LINE",
"616 693 LINE",
"646 646 LINE",
"649 623 LINE",
"705 623 LINE",
"676 498 LINE",
"499 498 LINE",
"509 543 LINE",
"500 579 LINE",
"475 604 LINE",
"437 617 LINE",
"413 617 LINE",
"389 617 LINE",
"346 608 LINE",
"314 588 LINE",
"295 557 LINE",
"295 535 LINE",
"295 516 LINE",
"311 492 LINE",
"347 474 LINE",
"382 461 LINE",
"483 424 LINE",
"545 401 LINE",
"603 311 LINE",
"603 245 LINE",
"603 185 LINE",
"556 89 LINE",
"472 23 LINE",
"355 -12 LINE",
"286 -12 LINE",
"235 -12 LINE",
"150 13 LINE",
"92 60 LINE",
"67 112 LINE",
"64 135 LINE",
"10 135 LINE"
);
},
{
closed = 1;
nodes = (
"460 961 LINE",
"619 961 LINE",
"619 949 LINE",
"470 809 LINE",
"355 809 LINE"
);
},
{
closed = 1;
nodes = (
"0 760 LINE",
"619 760 LINE",
"619 0 LINE",
"0 0 LINE"
);
}
);
};
components = (
{
name = S;
},
{
name = acute;
transform = "{1, 0, 0, 1, 421, 234}";
}
);
layerId = "8956C7A5-95B5-4256-B2D2-E489185594C4";
width = 768;
},
{
background = {
paths = (
{
closed = 1;
nodes = (
"39 260 LINE",
"217 260 LINE",
"204 210 LINE",
"211 169 LINE",
"236 142 LINE",
"279 127 LINE",
"309 127 LINE",
"336 127 LINE",
"380 142 LINE",
"411 167 LINE",
"427 203 LINE",
"427 224 LINE",
"427 240 LINE",
"413 264 LINE",
"390 281 LINE",
"360 293 LINE",
"343 299 LINE",
"259 328 LINE",
"229 338 LINE",
"181 373 LINE",
"146 419 LINE",
"127 479 LINE",
"127 512 LINE",
"127 572 LINE",
"172 663 LINE",
"252 723 LINE",
"364 753 LINE",
"431 753 LINE",
"479 753 LINE",
"559 730 LINE",
"616 693 LINE",
"646 646 LINE",
"649 623 LINE",
"705 623 LINE",
"676 498 LINE",
"499 498 LINE",
"509 543 LINE",
"500 579 LINE",
"475 604 LINE",
"437 617 LINE",
"413 617 LINE",
"389 617 LINE",
"346 608 LINE",
"314 588 LINE",
"295 557 LINE",
"295 535 LINE",
"295 516 LINE",
"311 492 LINE",
"347 474 LINE",
"382 461 LINE",
"483 424 LINE",
"545 401 LINE",
"603 311 LINE",
"603 245 LINE",
"603 185 LINE",
"556 89 LINE",
"472 23 LINE",
"355 -12 LINE",
"286 -12 LINE",
"235 -12 LINE",
"150 13 LINE",
"92 60 LINE",
"67 112 LINE",
"64 135 LINE",
"10 135 LINE"
);
},
{
closed = 1;
nodes = (
"460 961 LINE",
"619 961 LINE",
"619 949 LINE",
"470 809 LINE",
"355 809 LINE"
);
},
{
closed = 1;
nodes = (
"0 760 LINE",
"619 760 LINE",
"619 0 LINE",
"0 0 LINE"
);
}
);
};
components = (
{
name = S;
},
{
name = acute;
transform = "{1, 0, 0, 1, 421, 234}";
}
);
layerId = "EEC59083-BA83-4EFB-8B50-D01213A5FD15";
width = 624;
}
);
leftKerningGroup = S;
rightKerningGroup = S;
unicode = 015A;
},
{
color = 6;
glyphname = Scedilla;
layers = (
{
background = {
paths = (
{
closed = 1;
nodes = (
"39 260 LINE",
"217 260 LINE",
"204 210 LINE",
"211 169 LINE",
"236 142 LINE",
"279 127 LINE",
"309 127 LINE",
"336 127 LINE",
"380 142 LINE",
"411 167 LINE",
"427 203 LINE",
"427 224 LINE",
"427 240 LINE",
"413 264 LINE",
"390 281 LINE",
"360 293 LINE",
"343 299 LINE",
"259 328 LINE",
"229 338 LINE",
"181 373 LINE",
"146 419 LINE",
"127 479 LINE",
"127 512 LINE",
"127 572 LINE",
"172 663 LINE",
"252 723 LINE",
"364 753 LINE",
"431 753 LINE",
"479 753 LINE",
"559 730 LINE",
"616 693 LINE",
"646 646 LINE",
"649 623 LINE",
"705 623 LINE",
"676 498 LINE",
"499 498 LINE",
"509 543 LINE",
"500 579 LINE",
"475 604 LINE",
"437 617 LINE",
"413 617 LINE",
"389 617 LINE",
"346 608 LINE",
"314 588 LINE",
"295 557 LINE",
"295 535 LINE",
"295 516 LINE",
"311 492 LINE",
"347 474 LINE",
"382 461 LINE",
"483 424 LINE",
"545 401 LINE",
"603 311 LINE",
"603 245 LINE",
"603 185 LINE",
"556 89 LINE",
"472 23 LINE",
"355 -12 LINE",
"286 -12 LINE",
"235 -12 LINE",
"150 13 LINE",
"92 60 LINE",
"67 112 LINE",
"64 135 LINE",
"10 135 LINE"
);
},
{
closed = 1;
nodes = (
"115 -141 LINE",
"140 -135 LINE",
"178 -115 LINE",
"205 -86 LINE",
"224 -48 LINE",
"230 -23 LINE",
"359 -68 LINE",
"345 -102 LINE",
"303 -155 LINE",
"249 -193 LINE",
"185 -217 LINE",
"149 -221 LINE"
);
},
{
closed = 1;
nodes = (
"0 760 LINE",
"619 760 LINE",
"619 0 LINE",
"0 0 LINE"
);
}
);
};
components = (
{
name = S;
},
{
name = cedilla;
transform = "{1, 0, 0, 1, -19, 0}";
}
);
layerId = "8956C7A5-95B5-4256-B2D2-E489185594C4";
width = 768;
},
{
background = {
paths = (
{
closed = 1;
nodes = (
"39 260 LINE",
"217 260 LINE",
"204 210 LINE",
"211 169 LINE",
"236 142 LINE",
"279 127 LINE",
"309 127 LINE",
"336 127 LINE",
"380 142 LINE",
"411 167 LINE",
"427 203 LINE",
"427 224 LINE",
"427 240 LINE",
"413 264 LINE",
"390 281 LINE",
"360 293 LINE",
"343 299 LINE",
"259 328 LINE",
"229 338 LINE",
"181 373 LINE",
"146 419 LINE",
"127 479 LINE",
"127 512 LINE",
"127 572 LINE",
"172 663 LINE",
"252 723 LINE",
"364 753 LINE",
"431 753 LINE",
"479 753 LINE",
"559 730 LINE",
"616 693 LINE",
"646 646 LINE",
"649 623 LINE",
"705 623 LINE",
"676 498 LINE",
"499 498 LINE",
"509 543 LINE",
"500 579 LINE",
"475 604 LINE",
"437 617 LINE",
"413 617 LINE",
"389 617 LINE",
"346 608 LINE",
"314 588 LINE",
"295 557 LINE",
"295 535 LINE",
"295 516 LINE",
"311 492 LINE",
"347 474 LINE",
"382 461 LINE",
"483 424 LINE",
"545 401 LINE",
"603 311 LINE",
"603 245 LINE",
"603 185 LINE",
"556 89 LINE",
"472 23 LINE",
"355 -12 LINE",
"286 -12 LINE",
"235 -12 LINE",
"150 13 LINE",
"92 60 LINE",
"67 112 LINE",
"64 135 LINE",
"10 135 LINE"
);
},
{
closed = 1;
nodes = (
"115 -141 LINE",
"140 -135 LINE",
"178 -115 LINE",
"205 -86 LINE",
"224 -48 LINE",
"230 -23 LINE",
"359 -68 LINE",
"345 -102 LINE",
"303 -155 LINE",
"249 -193 LINE",
"185 -217 LINE",
"149 -221 LINE"
);
},
{
closed = 1;
nodes = (
"0 760 LINE",
"619 760 LINE",
"619 0 LINE",
"0 0 LINE"
);
}
);
};
components = (
{
name = S;
},
{
name = cedilla;
transform = "{1, 0, 0, 1, -12, 0}";
}
);
layerId = "EEC59083-BA83-4EFB-8B50-D01213A5FD15";
width = 624;
}
);
leftKerningGroup = S;
rightKerningGroup = S;
unicode = 015E;
},
{
color = 6;
glyphname = Scommaaccent;
layers = (
{
background = {
paths = (
{
closed = 1;
nodes = (
"39 260 LINE",
"217 260 LINE",
"204 210 LINE",
"211 169 LINE",
"236 142 LINE",
"279 127 LINE",
"309 127 LINE",
"336 127 LINE",
"380 142 LINE",
"411 167 LINE",
"427 203 LINE",
"427 224 LINE",
"427 240 LINE",
"413 264 LINE",
"390 281 LINE",
"360 293 LINE",
"343 299 LINE",
"259 328 LINE",
"229 338 LINE",
"181 373 LINE",
"146 419 LINE",
"127 479 LINE",
"127 512 LINE",
"127 572 LINE",
"172 663 LINE",
"252 723 LINE",
"364 753 LINE",
"431 753 LINE",
"479 753 LINE",
"559 730 LINE",
"616 693 LINE",
"646 646 LINE",
"649 623 LINE",
"705 623 LINE",
"676 498 LINE",
"499 498 LINE",
"509 543 LINE",
"500 579 LINE",
"475 604 LINE",
"437 617 LINE",
"413 617 LINE",
"389 617 LINE",
"346 608 LINE",
"314 588 LINE",
"295 557 LINE",
"295 535 LINE",
"295 516 LINE",
"311 492 LINE",
"347 474 LINE",
"382 461 LINE",
"483 424 LINE",
"545 401 LINE",
"603 311 LINE",
"603 245 LINE",
"603 185 LINE",
"556 89 LINE",
"472 23 LINE",
"355 -12 LINE",
"286 -12 LINE",
"235 -12 LINE",
"150 13 LINE",
"92 60 LINE",
"67 112 LINE",
"64 135 LINE",
"10 135 LINE"
);
},
{
closed = 1;
nodes = (
"267 -14 LINE",
"408 -65 LINE",
"312 -230 LINE",
"211 -195 LINE"
);
},
{
closed = 1;
nodes = (
"0 760 LINE",
"619 760 LINE",
"619 0 LINE",
"0 0 LINE"
);
}
);
};
components = (
{
name = S;
},
{
name = commaaccentcomb;
transform = "{1, 0, 0, 1, 279, 0}";
}
);
layerId = "8956C7A5-95B5-4256-B2D2-E489185594C4";
width = 768;
},
{
background = {
paths = (
{
closed = 1;
nodes = (
"39 260 LINE",
"217 260 LINE",
"204 210 LINE",
"211 169 LINE",
"236 142 LINE",
"279 127 LINE",
"309 127 LINE",
"336 127 LINE",
"380 142 LINE",
"411 167 LINE",
"427 203 LINE",
"427 224 LINE",
"427 240 LINE",
"413 264 LINE",
"390 281 LINE",
"360 293 LINE",
"343 299 LINE",
"259 328 LINE",
"229 338 LINE",
"181 373 LINE",
"146 419 LINE",
"127 479 LINE",
"127 512 LINE",
"127 572 LINE",
"172 663 LINE",
"252 723 LINE",
"364 753 LINE",
"431 753 LINE",
"479 753 LINE",
"559 730 LINE",
"616 693 LINE",
"646 646 LINE",
"649 623 LINE",
"705 623 LINE",
"676 498 LINE",
"499 498 LINE",
"509 543 LINE",
"500 579 LINE",
"475 604 LINE",
"437 617 LINE",
"413 617 LINE",
"389 617 LINE",
"346 608 LINE",
"314 588 LINE",
"295 557 LINE",
"295 535 LINE",
"295 516 LINE",
"311 492 LINE",
"347 474 LINE",
"382 461 LINE",
"483 424 LINE",
"545 401 LINE",
"603 311 LINE",
"603 245 LINE",
"603 185 LINE",
"556 89 LINE",
"472 23 LINE",
"355 -12 LINE",
"286 -12 LINE",
"235 -12 LINE",
"150 13 LINE",
"92 60 LINE",
"67 112 LINE",
"64 135 LINE",
"10 135 LINE"
);
},
{
closed = 1;
nodes = (
"267 -14 LINE",
"408 -65 LINE",
"312 -230 LINE",
"211 -195 LINE"
);
},
{
closed = 1;
nodes = (
"0 760 LINE",
"619 760 LINE",
"619 0 LINE",
"0 0 LINE"
);
}
);
};
components = (
{
name = S;
},
{
name = commaaccentcomb;
transform = "{1, 0, 0, 1, 260, 0}";
}
);
layerId = "EEC59083-BA83-4EFB-8B50-D01213A5FD15";
width = 624;
}
);
leftKerningGroup = S;
rightKerningGroup = S;
unicode = 0218;
},
{
glyphname = T;
layers = (
{
anchors = (
{
name = bottom;
position = "{212, 0}";
},
{
name = center;
position = "{297, 370}";
},
{
name = top;
position = "{382, 740}";
}
);
layerId = "EEC59083-BA83-4EFB-8B50-D01213A5FD15";
paths = (
{
closed = 1;
nodes = (
"84 0 LINE",
"324 0 LINE",
"343 84 LINE",
"273 84 LINE",
"405 660 LINE",
"585 660 LINE",
"559 545 LINE",
"659 545 LINE",
"704 740 LINE",
"44 740 LINE",
"-1 545 LINE",
"99 545 LINE",
"125 660 LINE",
"304 660 LINE",
"171 84 LINE",
"103 84 LINE"
);
}
);
width = 665;
},
{
anchors = (
{
name = bottom;
position = "{205, 0}";
},
{
name = center;
position = "{310, 370}";
},
{
name = top;
position = "{395, 740}";
}
);
layerId = "8956C7A5-95B5-4256-B2D2-E489185594C4";
paths = (
{
closed = 1;
nodes = (
"65 0 LINE",
"395 0 LINE",
"426 134 LINE",
"344 134 LINE",
"453 606 LINE",
"548 606 LINE",
"527 515 LINE",
"695 515 LINE",
"747 740 LINE",
"51 740 LINE",
"-1 515 LINE",
"167 515 LINE",
"188 606 LINE",
"283 606 LINE",
"173 134 LINE",
"96 134 LINE"
);
}
);
width = 753;
}
);
leftKerningGroup = T;
rightKerningGroup = T;
unicode = 0054;
},
{
color = 6;
glyphname = Tcaron;
layers = (
{
background = {
paths = (
{
closed = 1;
nodes = (
"167 134 LINE",
"244 134 LINE",
"354 606 LINE",
"259 606 LINE",
"238 515 LINE",
"70 515 LINE",
"122 740 LINE",
"818 740 LINE",
"766 515 LINE",
"598 515 LINE",
"619 606 LINE",
"524 606 LINE",
"415 134 LINE",
"497 134 LINE",
"466 0 LINE",
"136 0 LINE"
);
},
{
closed = 1;
nodes = (
"692 968 LINE",
"518 809 LINE",
"401 809 LINE",
"305 968 LINE",
"426 968 LINE",
"473 891 LINE",
"557 968 LINE"
);
},
{
closed = 1;
nodes = (
"0 760 LINE",
"668 760 LINE",
"668 0 LINE",
"0 0 LINE"
);
}
);
};
components = (
{
name = T;
},
{
name = caroncomb;
transform = "{1, 0, 0, 1, 66, 234}";
}
);
layerId = "8956C7A5-95B5-4256-B2D2-E489185594C4";
width = 753;
},
{
background = {
paths = (
{
closed = 1;
nodes = (
"167 134 LINE",
"244 134 LINE",
"354 606 LINE",
"259 606 LINE",
"238 515 LINE",
"70 515 LINE",
"122 740 LINE",
"818 740 LINE",
"766 515 LINE",
"598 515 LINE",
"619 606 LINE",
"524 606 LINE",
"415 134 LINE",
"497 134 LINE",
"466 0 LINE",
"136 0 LINE"
);
},
{
closed = 1;
nodes = (
"692 968 LINE",
"518 809 LINE",
"401 809 LINE",
"305 968 LINE",
"426 968 LINE",
"473 891 LINE",
"557 968 LINE"
);
},
{
closed = 1;
nodes = (
"0 760 LINE",
"668 760 LINE",
"668 0 LINE",
"0 0 LINE"
);
}
);
};
components = (
{
name = T;
},
{
name = caroncomb;
transform = "{1, 0, 0, 1, 135, 234}";
}
);
layerId = "EEC59083-BA83-4EFB-8B50-D01213A5FD15";
width = 665;
}
);
leftKerningGroup = T;
rightKerningGroup = T;
unicode = 0164;
},
{
color = 6;
glyphname = Tcommaaccent;
layers = (
{
background = {
paths = (
{
closed = 1;
nodes = (
"167 134 LINE",
"244 134 LINE",
"354 606 LINE",
"259 606 LINE",
"238 515 LINE",
"70 515 LINE",
"122 740 LINE",
"818 740 LINE",
"766 515 LINE",
"598 515 LINE",
"619 606 LINE",
"524 606 LINE",
"415 134 LINE",
"497 134 LINE",
"466 0 LINE",
"136 0 LINE"
);
},
{
closed = 1;
nodes = (
"231 -14 LINE",
"372 -65 LINE",
"276 -230 LINE",
"175 -195 LINE"
);
},
{
closed = 1;
nodes = (
"0 760 LINE",
"668 760 LINE",
"668 0 LINE",
"0 0 LINE"
);
}
);
};
components = (
{
name = T;
},
{
name = commaaccentcomb;
transform = "{1, 0, 0, 1, 174, 0}";
}
);
layerId = "8956C7A5-95B5-4256-B2D2-E489185594C4";
width = 753;
},
{
background = {
paths = (
{
closed = 1;
nodes = (
"167 134 LINE",
"244 134 LINE",
"354 606 LINE",
"259 606 LINE",
"238 515 LINE",
"70 515 LINE",
"122 740 LINE",
"818 740 LINE",
"766 515 LINE",
"598 515 LINE",
"619 606 LINE",
"524 606 LINE",
"415 134 LINE",
"497 134 LINE",
"466 0 LINE",
"136 0 LINE"
);
},
{
closed = 1;
nodes = (
"231 -14 LINE",
"372 -65 LINE",
"276 -230 LINE",
"175 -195 LINE"
);
},
{
closed = 1;
nodes = (
"0 760 LINE",
"668 760 LINE",
"668 0 LINE",
"0 0 LINE"
);
}
);
};
components = (
{
name = T;
},
{
name = commaaccentcomb;
transform = "{1, 0, 0, 1, 179, 0}";
}
);
layerId = "EEC59083-BA83-4EFB-8B50-D01213A5FD15";
width = 665;
}
);
leftKerningGroup = T;
rightKerningGroup = T;
unicode = 021A;
},
{
glyphname = U;
layers = (
{
anchors = (
{
name = top;
position = "{411, 740}";
}
);
layerId = "EEC59083-BA83-4EFB-8B50-D01213A5FD15";
paths = (
{
closed = 1;
nodes = (
"46 656 LINE",
"116 656 LINE",
"37 312 LINE",
"30 280 OFFCURVE",
"26 251 OFFCURVE",
"26 222 CURVE SMOOTH",
"23 74 OFFCURVE",
"130 -12 OFFCURVE",
"272 -12 CURVE SMOOTH",
"433 -12 OFFCURVE",
"551 80 OFFCURVE",
"602 303 CURVE",
"683 656 LINE",
"748 656 LINE",
"767 740 LINE",
"527 740 LINE",
"508 656 LINE",
"582 656 LINE",
"503 312 LINE SMOOTH",
"464 143 OFFCURVE",
"389 86 OFFCURVE",
"281 86 CURVE SMOOTH",
"174 86 OFFCURVE",
"128 160 OFFCURVE",
"129 232 CURVE SMOOTH",
"129 264 OFFCURVE",
"134 289 OFFCURVE",
"139 312 CURVE SMOOTH",
"218 656 LINE",
"286 656 LINE",
"305 740 LINE",
"65 740 LINE"
);
}
);
width = 771;
},
{
anchors = (
{
name = top;
position = "{421, 740}";
}
);
layerId = "8956C7A5-95B5-4256-B2D2-E489185594C4";
paths = (
{
closed = 1;
nodes = (
"32 606 LINE",
"105 606 LINE",
"36 309 LINE",
"29 277 OFFCURVE",
"26 247 OFFCURVE",
"26 221 CURVE SMOOTH",
"26 74 OFFCURVE",
"131 -15 OFFCURVE",
"278 -15 CURVE SMOOTH",
"457 -15 OFFCURVE",
"568 71 OFFCURVE",
"615 277 CURVE",
"691 606 LINE",
"754 606 LINE",
"785 740 LINE",
"486 740 LINE",
"455 606 LINE",
"522 606 LINE",
"451 299 LINE SMOOTH",
"423 179 OFFCURVE",
"378 139 OFFCURVE",
"303 139 CURVE SMOOTH",
"225 139 OFFCURVE",
"197 190 OFFCURVE",
"197 247 CURVE SMOOTH",
"197 264 OFFCURVE",
"199 281 OFFCURVE",
"203 299 CURVE SMOOTH",
"274 606 LINE",
"331 606 LINE",
"362 740 LINE",
"63 740 LINE"
);
}
);
width = 828;
}
);
leftKerningGroup = U;
rightKerningGroup = U;
unicode = 0055;
},
{
glyphname = Uhorn;
layers = (
{
anchors = (
{
name = _topright;
position = "{863.584, 740}";
},
{
name = bottom;
position = "{358, 0}";
},
{
name = ogonek;
position = "{637, 10}";
},
{
name = top;
position = "{483, 740}";
},
{
name = topright;
position = "{864, 740}";
}
);
layerId = "EEC59083-BA83-4EFB-8B50-D01213A5FD15";
paths = (
{
closed = 1;
nodes = (
"118 656 LINE",
"188 656 LINE",
"109 312 LINE",
"102 280 OFFCURVE",
"98 251 OFFCURVE",
"98 222 CURVE SMOOTH",
"95 74 OFFCURVE",
"202 -12 OFFCURVE",
"344 -12 CURVE SMOOTH",
"505 -12 OFFCURVE",
"623 80 OFFCURVE",
"674 303 CURVE",
"755 656 LINE",
"773 740 LINE",
"599 740 LINE",
"580 656 LINE",
"654 656 LINE",
"575 312 LINE SMOOTH",
"536 143 OFFCURVE",
"461 86 OFFCURVE",
"353 86 CURVE SMOOTH",
"246 86 OFFCURVE",
"200 160 OFFCURVE",
"201 232 CURVE SMOOTH",
"201 264 OFFCURVE",
"206 289 OFFCURVE",
"211 312 CURVE SMOOTH",
"290 656 LINE",
"358 656 LINE",
"377 740 LINE",
"137 740 LINE"
);
},
{
closed = 1;
nodes = (
"798 673 OFFCURVE",
"889 729 OFFCURVE",
"910 837 CURVE",
"831 837 LINE",
"819 774 OFFCURVE",
"782 740 OFFCURVE",
"726 740 CURVE",
"713 673 LINE"
);
}
);
width = 755;
},
{
anchors = (
{
name = bottom;
position = "{357, 0}";
},
{
name = ogonek;
position = "{616, 10}";
},
{
name = top;
position = "{495, 740}";
}
);
layerId = "8956C7A5-95B5-4256-B2D2-E489185594C4";
paths = (
{
closed = 1;
nodes = (
"106 606 LINE",
"179 606 LINE",
"110 309 LINE",
"103 277 OFFCURVE",
"100 247 OFFCURVE",
"100 221 CURVE SMOOTH",
"100 74 OFFCURVE",
"205 -15 OFFCURVE",
"352 -15 CURVE SMOOTH",
"531 -15 OFFCURVE",
"642 71 OFFCURVE",
"689 277 CURVE",
"765 606 LINE",
"797 740 LINE",
"560 740 LINE",
"529 606 LINE",
"596 606 LINE",
"525 299 LINE SMOOTH",
"497 179 OFFCURVE",
"452 139 OFFCURVE",
"377 139 CURVE SMOOTH",
"299 139 OFFCURVE",
"271 190 OFFCURVE",
"271 247 CURVE SMOOTH",
"271 264 OFFCURVE",
"273 281 OFFCURVE",
"277 299 CURVE SMOOTH",
"348 606 LINE",
"405 606 LINE",
"436 740 LINE",
"137 740 LINE"
);
},
{
closed = 1;
nodes = (
"792 654 OFFCURVE",
"914 703 OFFCURVE",
"940 837 CURVE",
"829 837 LINE",
"817 774 OFFCURVE",
"780 740 OFFCURVE",
"724 740 CURVE",
"707 654 LINE"
);
}
);
width = 775;
}
);
leftKerningGroup = U;
rightKerningGroup = Uhorn;
unicode = 01AF;
},
{
color = 6;
glyphname = Uhungarumlaut;
layers = (
{
background = {
paths = (
{
closed = 1;
nodes = (
"137 740 LINE",
"436 740 LINE",
"405 606 LINE",
"348 606 LINE",
"277 299 LINE",
"267 250 LINE",
"275 196 LINE",
"305 157 LINE",
"348 139 LINE",
"377 139 LINE",
"405 139 LINE",
"451 155 LINE",
"487 193 LINE",
"515 254 LINE",
"525 299 LINE",
"596 606 LINE",
"529 606 LINE",
"560 740 LINE",
"859 740 LINE",
"828 606 LINE",
"765 606 LINE",
"689 277 LINE",
"671 200 LINE",
"612 89 LINE",
"528 18 LINE",
"419 -15 LINE",
"352 -15 LINE",
"297 -15 LINE",
"205 18 LINE",
"138 77 LINE",
"103 160 LINE",
"98 254 LINE",
"110 309 LINE",
"179 606 LINE",
"106 606 LINE"
);
},
{
closed = 1;
nodes = (
"836 974 LINE",
"699 817 LINE",
"607 817 LINE",
"709 974 LINE"
);
},
{
closed = 1;
nodes = (
"642 974 LINE",
"517 817 LINE",
"426 817 LINE",
"516 974 LINE"
);
},
{
closed = 1;
nodes = (
"0 760 LINE",
"749 760 LINE",
"749 0 LINE",
"0 0 LINE"
);
}
);
};
components = (
{
name = U;
},
{
name = hungarumlautcomb;
transform = "{1, 0, 0, 1, 226, 234}";
}
);
layerId = "8956C7A5-95B5-4256-B2D2-E489185594C4";
width = 828;
},
{
background = {
paths = (
{
closed = 1;
nodes = (
"137 740 LINE",
"436 740 LINE",
"405 606 LINE",
"348 606 LINE",
"277 299 LINE",
"267 250 LINE",
"275 196 LINE",
"305 157 LINE",
"348 139 LINE",
"377 139 LINE",
"405 139 LINE",
"451 155 LINE",
"487 193 LINE",
"515 254 LINE",
"525 299 LINE",
"596 606 LINE",
"529 606 LINE",
"560 740 LINE",
"859 740 LINE",
"828 606 LINE",
"765 606 LINE",
"689 277 LINE",
"671 200 LINE",
"612 89 LINE",
"528 18 LINE",
"419 -15 LINE",
"352 -15 LINE",
"297 -15 LINE",
"205 18 LINE",
"138 77 LINE",
"103 160 LINE",
"98 254 LINE",
"110 309 LINE",
"179 606 LINE",
"106 606 LINE"
);
},
{
closed = 1;
nodes = (
"836 974 LINE",
"699 817 LINE",
"607 817 LINE",
"709 974 LINE"
);
},
{
closed = 1;
nodes = (
"642 974 LINE",
"517 817 LINE",
"426 817 LINE",
"516 974 LINE"
);
},
{
closed = 1;
nodes = (
"0 760 LINE",
"749 760 LINE",
"749 0 LINE",
"0 0 LINE"
);
}
);
};
components = (
{
name = U;
},
{
name = hungarumlautcomb;
transform = "{1, 0, 0, 1, 230, 234}";
}
);
layerId = "EEC59083-BA83-4EFB-8B50-D01213A5FD15";
width = 771;
}
);
leftKerningGroup = U;
rightKerningGroup = U;
unicode = 0170;
},
{
color = 6;
glyphname = Umacron;
layers = (
{
background = {
paths = (
{
closed = 1;
nodes = (
"137 740 LINE",
"436 740 LINE",
"405 606 LINE",
"348 606 LINE",
"277 299 LINE",
"267 250 LINE",
"275 196 LINE",
"305 157 LINE",
"348 139 LINE",
"377 139 LINE",
"405 139 LINE",
"451 155 LINE",
"487 193 LINE",
"515 254 LINE",
"525 299 LINE",
"596 606 LINE",
"529 606 LINE",
"560 740 LINE",
"859 740 LINE",
"828 606 LINE",
"765 606 LINE",
"689 277 LINE",
"671 200 LINE",
"612 89 LINE",
"528 18 LINE",
"419 -15 LINE",
"352 -15 LINE",
"297 -15 LINE",
"205 18 LINE",
"138 77 LINE",
"103 160 LINE",
"98 254 LINE",
"110 309 LINE",
"179 606 LINE",
"106 606 LINE"
);
},
{
closed = 1;
nodes = (
"667 809 LINE",
"331 809 LINE",
"331 914 LINE",
"667 914 LINE"
);
},
{
closed = 1;
nodes = (
"0 760 LINE",
"749 760 LINE",
"749 0 LINE",
"0 0 LINE"
);
}
);
};
components = (
{
name = U;
},
{
name = macroncomb;
transform = "{1, 0, 0, 1, 145, 234}";
}
);
layerId = "8956C7A5-95B5-4256-B2D2-E489185594C4";
width = 828;
},
{
background = {
paths = (
{
closed = 1;
nodes = (
"137 740 LINE",
"436 740 LINE",
"405 606 LINE",
"348 606 LINE",
"277 299 LINE",
"267 250 LINE",
"275 196 LINE",
"305 157 LINE",
"348 139 LINE",
"377 139 LINE",
"405 139 LINE",
"451 155 LINE",
"487 193 LINE",
"515 254 LINE",
"525 299 LINE",
"596 606 LINE",
"529 606 LINE",
"560 740 LINE",
"859 740 LINE",
"828 606 LINE",
"765 606 LINE",
"689 277 LINE",
"671 200 LINE",
"612 89 LINE",
"528 18 LINE",
"419 -15 LINE",
"352 -15 LINE",
"297 -15 LINE",
"205 18 LINE",
"138 77 LINE",
"103 160 LINE",
"98 254 LINE",
"110 309 LINE",
"179 606 LINE",
"106 606 LINE"
);
},
{
closed = 1;
nodes = (
"667 809 LINE",
"331 809 LINE",
"331 914 LINE",
"667 914 LINE"
);
},
{
closed = 1;
nodes = (
"0 760 LINE",
"749 760 LINE",
"749 0 LINE",
"0 0 LINE"
);
}
);
};
components = (
{
name = U;
},
{
name = macroncomb;
transform = "{1, 0, 0, 1, 116, 234}";
}
);
layerId = "EEC59083-BA83-4EFB-8B50-D01213A5FD15";
width = 771;
}
);
leftKerningGroup = U;
rightKerningGroup = U;
unicode = 016A;
},
{
color = 6;
glyphname = Uogonek;
layers = (
{
background = {
paths = (
{
closed = 1;
nodes = (
"635 740 LINE",
"934 740 LINE",
"903 606 LINE",
"839 606 LINE",
"764 277 LINE",
"749 213 LINE",
"710 124 LINE",
"656 60 LINE",
"585 15 LINE",
"539 -4 LINE",
"521 -12 LINE",
"475 -33 LINE",
"434 -58 LINE",
"407 -89 LINE",
"407 -105 LINE",
"407 -124 LINE",
"431 -138 LINE",
"442 -138 LINE",
"461 -138 LINE",
"487 -132 LINE",
"497 -127 LINE",
"521 -210 LINE",
"510 -216 LINE",
"460 -230 LINE",
"434 -230 LINE",
"404 -230 LINE",
"353 -216 LINE",
"314 -190 LINE",
"292 -152 LINE",
"292 -127 LINE",
"292 -89 LINE",
"334 -31 LINE",
"366 -9 LINE",
"323 -1 LINE",
"253 37 LINE",
"203 96 LINE",
"175 174 LINE",
"175 221 LINE",
"175 241 LINE",
"180 285 LINE",
"185 309 LINE",
"254 606 LINE",
"181 606 LINE",
"212 740 LINE",
"511 740 LINE",
"480 606 LINE",
"423 606 LINE",
"352 299 LINE",
"349 285 LINE",
"346 260 LINE",
"346 247 LINE",
"346 226 LINE",
"357 187 LINE",
"382 157 LINE",
"423 139 LINE",
"452 139 LINE",
"480 139 LINE",
"526 155 LINE",
"562 193 LINE",
"589 254 LINE",
"600 299 LINE",
"671 606 LINE",
"604 606 LINE"
);
},
{
closed = 1;
nodes = (
"75 760 LINE",
"824 760 LINE",
"824 0 LINE",
"75 0 LINE"
);
}
);
};
layerId = "8956C7A5-95B5-4256-B2D2-E489185594C4";
paths = (
{
closed = 1;
nodes = (
"351 47 LINE",
"277 31 OFFCURVE",
"143 -27 OFFCURVE",
"143 -127 CURVE SMOOTH",
"143 -193 OFFCURVE",
"206 -230 OFFCURVE",
"285 -230 CURVE SMOOTH",
"320 -230 OFFCURVE",
"358 -218 OFFCURVE",
"372 -210 CURVE",
"348 -127 LINE",
"335 -133 OFFCURVE",
"318 -138 OFFCURVE",
"293 -138 CURVE SMOOTH",
"279 -138 OFFCURVE",
"258 -130 OFFCURVE",
"258 -105 CURVE SMOOTH",
"258 -61 OFFCURVE",
"346 -24 OFFCURVE",
"420 9 CURVE"
);
},
{
closed = 1;
nodes = (
"32 606 LINE",
"331 606 LINE",
"362 740 LINE",
"63 740 LINE"
);
},
{
closed = 1;
nodes = (
"455 606 LINE",
"754 606 LINE",
"785 740 LINE",
"486 740 LINE"
);
},
{
closed = 1;
nodes = (
"526 624 LINE",
"451 299 LINE SMOOTH",
"423 179 OFFCURVE",
"378 139 OFFCURVE",
"303 139 CURVE SMOOTH",
"225 139 OFFCURVE",
"197 190 OFFCURVE",
"197 247 CURVE SMOOTH",
"197 264 OFFCURVE",
"199 281 OFFCURVE",
"203 299 CURVE SMOOTH",
"278 622 LINE",
"109 622 LINE",
"36 309 LINE SMOOTH",
"29 277 OFFCURVE",
"26 247 OFFCURVE",
"26 221 CURVE SMOOTH",
"26 74 OFFCURVE",
"131 -15 OFFCURVE",
"278 -15 CURVE SMOOTH",
"457 -15 OFFCURVE",
"568 71 OFFCURVE",
"615 277 CURVE SMOOTH",
"695 625 LINE"
);
}
);
width = 828;
},
{
background = {
paths = (
{
closed = 1;
nodes = (
"630 740 LINE",
"929 740 LINE",
"898 606 LINE",
"834 606 LINE",
"759 277 LINE",
"744 213 LINE",
"705 124 LINE",
"651 60 LINE",
"580 15 LINE",
"534 -4 LINE",
"516 -12 LINE",
"470 -33 LINE",
"429 -58 LINE",
"402 -89 LINE",
"402 -105 LINE",
"402 -124 LINE",
"426 -138 LINE",
"437 -138 LINE",
"456 -138 LINE",
"482 -132 LINE",
"492 -127 LINE",
"516 -210 LINE",
"505 -216 LINE",
"455 -230 LINE",
"429 -230 LINE",
"399 -230 LINE",
"348 -216 LINE",
"309 -190 LINE",
"287 -152 LINE",
"287 -127 LINE",
"287 -89 LINE",
"329 -31 LINE",
"361 -9 LINE",
"318 -1 LINE",
"248 37 LINE",
"198 96 LINE",
"170 174 LINE",
"170 221 LINE",
"170 241 LINE",
"175 285 LINE",
"180 309 LINE",
"249 606 LINE",
"176 606 LINE",
"207 740 LINE",
"506 740 LINE",
"475 606 LINE",
"418 606 LINE",
"347 299 LINE",
"344 285 LINE",
"341 260 LINE",
"341 247 LINE",
"341 226 LINE",
"352 187 LINE",
"377 157 LINE",
"418 139 LINE",
"447 139 LINE",
"475 139 LINE",
"521 155 LINE",
"557 193 LINE",
"584 254 LINE",
"595 299 LINE",
"666 606 LINE",
"599 606 LINE"
);
},
{
closed = 1;
nodes = (
"70 760 LINE",
"819 760 LINE",
"819 0 LINE",
"70 0 LINE"
);
}
);
};
layerId = "EEC59083-BA83-4EFB-8B50-D01213A5FD15";
paths = (
{
closed = 1;
nodes = (
"351 47 LINE",
"294 32 OFFCURVE",
"157 -27 OFFCURVE",
"157 -127 CURVE SMOOTH",
"157 -193 OFFCURVE",
"215 -230 OFFCURVE",
"294 -230 CURVE SMOOTH",
"331 -230 OFFCURVE",
"364 -219 OFFCURVE",
"381 -209 CURVE",
"360 -147 LINE",
"347 -153 OFFCURVE",
"322 -158 OFFCURVE",
"297 -158 CURVE SMOOTH",
"264 -158 OFFCURVE",
"242 -137 OFFCURVE",
"242 -110 CURVE SMOOTH",
"242 -61 OFFCURVE",
"305 -22 OFFCURVE",
"393 9 CURVE"
);
},
{
closed = 1;
nodes = (
"46 656 LINE",
"286 656 LINE",
"305 740 LINE",
"65 740 LINE"
);
},
{
closed = 1;
nodes = (
"508 656 LINE",
"748 656 LINE",
"767 740 LINE",
"527 740 LINE"
);
},
{
closed = 1;
nodes = (
"594 706 LINE",
"503 312 LINE SMOOTH",
"464 143 OFFCURVE",
"389 86 OFFCURVE",
"281 86 CURVE SMOOTH",
"174 86 OFFCURVE",
"128 160 OFFCURVE",
"129 232 CURVE SMOOTH",
"129 264 OFFCURVE",
"134 289 OFFCURVE",
"139 312 CURVE SMOOTH",
"229 704 LINE",
"127 702 LINE",
"37 312 LINE SMOOTH",
"30 280 OFFCURVE",
"26 251 OFFCURVE",
"26 222 CURVE SMOOTH",
"23 74 OFFCURVE",
"130 -12 OFFCURVE",
"272 -12 CURVE SMOOTH",
"433 -12 OFFCURVE",
"551 80 OFFCURVE",
"602 303 CURVE SMOOTH",
"695 707 LINE"
);
}
);
width = 771;
}
);
leftKerningGroup = U;
rightKerningGroup = U;
unicode = 0172;
},
{
color = 6;
glyphname = Uring;
layers = (
{
background = {
paths = (
{
closed = 1;
nodes = (
"212 740 LINE",
"511 740 LINE",
"480 606 LINE",
"423 606 LINE",
"352 299 LINE",
"342 250 LINE",
"350 196 LINE",
"380 157 LINE",
"423 139 LINE",
"452 139 LINE",
"480 139 LINE",
"526 155 LINE",
"562 193 LINE",
"590 254 LINE",
"600 299 LINE",
"671 606 LINE",
"604 606 LINE",
"635 740 LINE",
"934 740 LINE",
"903 606 LINE",
"840 606 LINE",
"764 277 LINE",
"746 200 LINE",
"687 89 LINE",
"603 18 LINE",
"494 -15 LINE",
"427 -15 LINE",
"372 -15 LINE",
"280 18 LINE",
"213 77 LINE",
"178 160 LINE",
"173 254 LINE",
"185 309 LINE",
"254 606 LINE",
"181 606 LINE"
);
},
{
closed = 1;
nodes = (
"697 989 LINE",
"729 989 LINE",
"785 965 LINE",
"828 923 LINE",
"852 866 LINE",
"852 834 LINE",
"852 803 LINE",
"828 746 LINE",
"785 704 LINE",
"729 679 LINE",
"697 679 LINE",
"665 679 LINE",
"609 704 LINE",
"567 746 LINE",
"542 803 LINE",
"542 834 LINE",
"542 866 LINE",
"567 923 LINE",
"609 965 LINE",
"665 989 LINE"
);
},
{
closed = 1;
nodes = (
"636 834 LINE",
"636 822 LINE",
"646 799 LINE",
"662 783 LINE",
"684 773 LINE",
"697 773 LINE",
"710 773 LINE",
"732 783 LINE",
"748 799 LINE",
"757 822 LINE",
"757 834 LINE",
"757 847 LINE",
"748 869 LINE",
"732 885 LINE",
"710 895 LINE",
"697 895 LINE",
"684 895 LINE",
"662 885 LINE",
"646 869 LINE",
"636 847 LINE"
);
},
{
closed = 1;
nodes = (
"75 760 LINE",
"824 760 LINE",
"824 0 LINE",
"75 0 LINE"
);
},
{
closed = 1;
nodes = (
"-737 0 LINE",
"-438 0 LINE",
"-407 134 LINE",
"-706 134 LINE"
);
},
{
closed = 1;
nodes = (
"-275 0 LINE",
"24 0 LINE",
"55 134 LINE",
"-244 134 LINE"
);
},
{
closed = 1;
nodes = (
"-514 236 LINE",
"-158 236 LINE",
"-184 377 LINE",
"-429 377 LINE"
);
},
{
closed = 1;
nodes = (
"-660 104 LINE",
"-485 104 LINE",
"-236 573 LINE",
"-201 106 LINE",
"-36 106 LINE",
"-94 740 LINE",
"-307 740 LINE"
);
},
{
closed = 1;
nodes = (
"-258 841 OFFCURVE",
"-231 867 OFFCURVE",
"-197 867 CURVE SMOOTH",
"-163 867 OFFCURVE",
"-137 841 OFFCURVE",
"-137 807 CURVE SMOOTH",
"-137 773 OFFCURVE",
"-163 746 OFFCURVE",
"-197 746 CURVE SMOOTH",
"-231 746 OFFCURVE",
"-258 773 OFFCURVE",
"-258 807 CURVE SMOOTH"
);
},
{
closed = 1;
nodes = (
"-282 962 OFFCURVE",
"-352 892 OFFCURVE",
"-352 807 CURVE SMOOTH",
"-352 722 OFFCURVE",
"-282 652 OFFCURVE",
"-197 652 CURVE SMOOTH",
"-112 652 OFFCURVE",
"-42 722 OFFCURVE",
"-42 807 CURVE SMOOTH",
"-42 892 OFFCURVE",
"-112 962 OFFCURVE",
"-197 962 CURVE SMOOTH"
);
},
{
closed = 1;
nodes = (
"1340 134 LINE",
"1414 134 LINE",
"1380 240 LINE",
"1153 240 LINE",
"1120 134 LINE",
"1198 134 LINE",
"1198 0 LINE",
"917 0 LINE",
"917 134 LINE",
"972 134 LINE",
"1166 716 LINE",
"1141 738 LINE",
"1112 799 LINE",
"1112 834 LINE",
"1112 866 LINE",
"1137 922 LINE",
"1179 964 LINE",
"1235 989 LINE",
"1267 989 LINE",
"1299 989 LINE",
"1355 964 LINE",
"1397 922 LINE",
"1422 866 LINE",
"1422 834 LINE",
"1422 802 LINE",
"1397 744 LINE",
"1375 723 LINE",
"1567 134 LINE",
"1621 134 LINE",
"1621 0 LINE",
"1340 0 LINE"
);
},
{
closed = 1;
nodes = (
"1191 365 LINE",
"1341 365 LINE",
"1266 606 LINE"
);
},
{
closed = 1;
nodes = (
"1206 834 LINE",
"1206 808 LINE",
"1241 773 LINE",
"1267 773 LINE",
"1293 773 LINE",
"1327 808 LINE",
"1327 834 LINE",
"1327 860 LINE",
"1293 894 LINE",
"1267 894 LINE",
"1241 894 LINE",
"1206 860 LINE"
);
}
);
};
layerId = "8956C7A5-95B5-4256-B2D2-E489185594C4";
paths = (
{
closed = 1;
nodes = (
"32 606 LINE",
"105 606 LINE",
"36 309 LINE SMOOTH",
"29 277 OFFCURVE",
"26 247 OFFCURVE",
"26 221 CURVE SMOOTH",
"26 74 OFFCURVE",
"131 -15 OFFCURVE",
"278 -15 CURVE SMOOTH",
"457 -15 OFFCURVE",
"568 71 OFFCURVE",
"615 277 CURVE SMOOTH",
"690 606 LINE",
"754 606 LINE",
"785 740 LINE",
"552 740 LINE",
"521 606 LINE",
"519 598 LINE",
"451 299 LINE SMOOTH",
"423 179 OFFCURVE",
"378 139 OFFCURVE",
"303 139 CURVE SMOOTH",
"225 139 OFFCURVE",
"197 190 OFFCURVE",
"197 247 CURVE SMOOTH",
"197 264 OFFCURVE",
"199 281 OFFCURVE",
"203 299 CURVE SMOOTH",
"272 598 LINE",
"274 606 LINE",
"305 740 LINE",
"63 740 LINE"
);
},
{
closed = 1;
nodes = (
"371 877 OFFCURVE",
"397 903 OFFCURVE",
"431 903 CURVE SMOOTH",
"465 903 OFFCURVE",
"491 877 OFFCURVE",
"491 843 CURVE SMOOTH",
"491 809 OFFCURVE",
"465 783 OFFCURVE",
"431 783 CURVE SMOOTH",
"397 783 OFFCURVE",
"371 809 OFFCURVE",
"371 843 CURVE SMOOTH"
);
},
{
closed = 1;
nodes = (
"351 989 OFFCURVE",
"285 923 OFFCURVE",
"285 843 CURVE SMOOTH",
"285 763 OFFCURVE",
"351 697 OFFCURVE",
"431 697 CURVE SMOOTH",
"511 697 OFFCURVE",
"577 763 OFFCURVE",
"577 843 CURVE SMOOTH",
"577 923 OFFCURVE",
"511 989 OFFCURVE",
"431 989 CURVE SMOOTH"
);
}
);
width = 828;
},
{
background = {
paths = (
{
closed = 1;
nodes = (
"207 740 LINE",
"506 740 LINE",
"475 606 LINE",
"418 606 LINE",
"347 299 LINE",
"337 250 LINE",
"345 196 LINE",
"375 157 LINE",
"418 139 LINE",
"447 139 LINE",
"475 139 LINE",
"521 155 LINE",
"557 193 LINE",
"585 254 LINE",
"595 299 LINE",
"666 606 LINE",
"599 606 LINE",
"630 740 LINE",
"929 740 LINE",
"898 606 LINE",
"835 606 LINE",
"759 277 LINE",
"741 200 LINE",
"682 89 LINE",
"598 18 LINE",
"489 -15 LINE",
"422 -15 LINE",
"367 -15 LINE",
"275 18 LINE",
"208 77 LINE",
"173 160 LINE",
"168 254 LINE",
"180 309 LINE",
"249 606 LINE",
"176 606 LINE"
);
},
{
closed = 1;
nodes = (
"692 989 LINE",
"724 989 LINE",
"780 965 LINE",
"823 923 LINE",
"847 866 LINE",
"847 834 LINE",
"847 803 LINE",
"823 746 LINE",
"780 704 LINE",
"724 679 LINE",
"692 679 LINE",
"660 679 LINE",
"604 704 LINE",
"562 746 LINE",
"537 803 LINE",
"537 834 LINE",
"537 866 LINE",
"562 923 LINE",
"604 965 LINE",
"660 989 LINE"
);
},
{
closed = 1;
nodes = (
"631 834 LINE",
"631 822 LINE",
"641 799 LINE",
"657 783 LINE",
"679 773 LINE",
"692 773 LINE",
"705 773 LINE",
"727 783 LINE",
"743 799 LINE",
"752 822 LINE",
"752 834 LINE",
"752 847 LINE",
"743 869 LINE",
"727 885 LINE",
"705 895 LINE",
"692 895 LINE",
"679 895 LINE",
"657 885 LINE",
"641 869 LINE",
"631 847 LINE"
);
},
{
closed = 1;
nodes = (
"70 760 LINE",
"819 760 LINE",
"819 0 LINE",
"70 0 LINE"
);
},
{
closed = 1;
nodes = (
"-3 0 LINE",
"237 0 LINE",
"256 84 LINE",
"16 84 LINE"
);
},
{
closed = 1;
nodes = (
"500 0 LINE",
"740 0 LINE",
"759 84 LINE",
"519 84 LINE"
);
},
{
closed = 1;
nodes = (
"248 251 LINE",
"612 251 LINE",
"599 335 LINE",
"296 335 LINE"
);
},
{
closed = 1;
nodes = (
"55 40 LINE",
"165 40 LINE",
"517 671 LINE",
"586 42 LINE",
"691 42 LINE",
"609 740 LINE",
"451 740 LINE"
);
},
{
closed = 1;
nodes = (
"481 827 OFFCURVE",
"505 851 OFFCURVE",
"532 851 CURVE SMOOTH",
"559 851 OFFCURVE",
"583 827 OFFCURVE",
"583 800 CURVE SMOOTH",
"583 773 OFFCURVE",
"559 749 OFFCURVE",
"532 749 CURVE SMOOTH",
"505 749 OFFCURVE",
"481 773 OFFCURVE",
"481 800 CURVE SMOOTH"
);
},
{
closed = 1;
nodes = (
"464 925 OFFCURVE",
"407 868 OFFCURVE",
"407 800 CURVE SMOOTH",
"407 732 OFFCURVE",
"464 675 OFFCURVE",
"532 675 CURVE SMOOTH",
"600 675 OFFCURVE",
"657 732 OFFCURVE",
"657 800 CURVE SMOOTH",
"657 868 OFFCURVE",
"600 925 OFFCURVE",
"532 925 CURVE SMOOTH"
);
},
{
closed = 1;
nodes = (
"506 134 LINE",
"580 134 LINE",
"546 240 LINE",
"319 240 LINE",
"286 134 LINE",
"364 134 LINE",
"364 0 LINE",
"83 0 LINE",
"83 134 LINE",
"138 134 LINE",
"332 716 LINE",
"307 738 LINE",
"278 799 LINE",
"278 834 LINE",
"278 866 LINE",
"303 922 LINE",
"345 964 LINE",
"401 989 LINE",
"433 989 LINE",
"465 989 LINE",
"521 964 LINE",
"563 922 LINE",
"588 866 LINE",
"588 834 LINE",
"588 802 LINE",
"563 744 LINE",
"541 723 LINE",
"733 134 LINE",
"787 134 LINE",
"787 0 LINE",
"506 0 LINE"
);
},
{
closed = 1;
nodes = (
"357 365 LINE",
"507 365 LINE",
"432 606 LINE"
);
},
{
closed = 1;
nodes = (
"372 834 LINE",
"372 808 LINE",
"407 773 LINE",
"433 773 LINE",
"459 773 LINE",
"493 808 LINE",
"493 834 LINE",
"493 860 LINE",
"459 894 LINE",
"433 894 LINE",
"407 894 LINE",
"372 860 LINE"
);
}
);
};
layerId = "EEC59083-BA83-4EFB-8B50-D01213A5FD15";
paths = (
{
closed = 1;
nodes = (
"46 656 LINE",
"116 656 LINE",
"37 312 LINE SMOOTH",
"30 280 OFFCURVE",
"26 251 OFFCURVE",
"26 222 CURVE SMOOTH",
"23 74 OFFCURVE",
"130 -12 OFFCURVE",
"272 -12 CURVE SMOOTH",
"433 -12 OFFCURVE",
"551 80 OFFCURVE",
"602 303 CURVE SMOOTH",
"683 656 LINE",
"748 656 LINE",
"767 740 LINE",
"527 740 LINE",
"508 656 LINE",
"582 656 LINE",
"503 312 LINE SMOOTH",
"464 143 OFFCURVE",
"389 86 OFFCURVE",
"281 86 CURVE SMOOTH",
"174 86 OFFCURVE",
"128 160 OFFCURVE",
"129 232 CURVE SMOOTH",
"129 264 OFFCURVE",
"134 289 OFFCURVE",
"139 312 CURVE SMOOTH",
"218 656 LINE",
"286 656 LINE",
"305 740 LINE",
"65 740 LINE"
);
},
{
closed = 1;
nodes = (
"379 917 OFFCURVE",
"403 941 OFFCURVE",
"430 941 CURVE SMOOTH",
"457 941 OFFCURVE",
"481 917 OFFCURVE",
"481 890 CURVE SMOOTH",
"481 863 OFFCURVE",
"457 839 OFFCURVE",
"430 839 CURVE SMOOTH",
"403 839 OFFCURVE",
"379 863 OFFCURVE",
"379 890 CURVE SMOOTH"
);
},
{
closed = 1;
nodes = (
"362 1015 OFFCURVE",
"305 958 OFFCURVE",
"305 890 CURVE SMOOTH",
"305 822 OFFCURVE",
"362 765 OFFCURVE",
"430 765 CURVE SMOOTH",
"498 765 OFFCURVE",
"555 822 OFFCURVE",
"555 890 CURVE SMOOTH",
"555 958 OFFCURVE",
"498 1015 OFFCURVE",
"430 1015 CURVE SMOOTH"
);
}
);
width = 771;
}
);
leftKerningGroup = U;
rightKerningGroup = U;
unicode = 016E;
},
{
glyphname = V;
layers = (
{
anchors = (
{
name = bottom;
position = "{206, 0}";
},
{
name = top;
position = "{356, 740}";
}
);
layerId = "EEC59083-BA83-4EFB-8B50-D01213A5FD15";
paths = (
{
closed = 1;
nodes = (
"461 656 LINE",
"527 656 LINE",
"212 85 LINE",
"163 656 LINE",
"232 656 LINE",
"251 740 LINE",
"11 740 LINE",
"-8 656 LINE",
"60 656 LINE",
"123 0 LINE",
"272 0 LINE",
"636 656 LINE",
"701 656 LINE",
"720 740 LINE",
"480 740 LINE"
);
}
);
width = 717;
},
{
anchors = (
{
name = bottom;
position = "{196, 0}";
},
{
name = top;
position = "{376, 740}";
}
);
layerId = "8956C7A5-95B5-4256-B2D2-E489185594C4";
paths = (
{
closed = 1;
nodes = (
"425 606 LINE",
"482 606 LINE",
"266 223 LINE",
"236 606 LINE",
"291 606 LINE",
"322 740 LINE",
"23 740 LINE",
"-8 606 LINE",
"68 606 LINE",
"120 0 LINE",
"319 0 LINE",
"665 606 LINE",
"724 606 LINE",
"755 740 LINE",
"456 740 LINE"
);
}
);
width = 771;
}
);
leftKerningGroup = V;
rightKerningGroup = V;
unicode = 0056;
},
{
glyphname = W;
layers = (
{
anchors = (
{
name = bottom;
position = "{402, 0}";
},
{
name = top;
position = "{572, 740}";
}
);
layerId = "EEC59083-BA83-4EFB-8B50-D01213A5FD15";
paths = (
{
closed = 1;
nodes = (
"872 656 LINE",
"946 656 LINE",
"651 95 LINE",
"627 740 LINE",
"523 740 LINE",
"201 95 LINE",
"167 656 LINE",
"232 656 LINE",
"251 740 LINE",
"11 740 LINE",
"-8 656 LINE",
"67 656 LINE",
"111 0 LINE",
"250 0 LINE",
"536 572 LINE",
"562 0 LINE",
"701 0 LINE",
"1044 656 LINE",
"1112 656 LINE",
"1131 740 LINE",
"891 740 LINE"
);
}
);
width = 1108;
},
{
anchors = (
{
name = bottom;
position = "{407, 0}";
},
{
name = top;
position = "{587, 740}";
}
);
layerId = "8956C7A5-95B5-4256-B2D2-E489185594C4";
paths = (
{
closed = 1;
nodes = (
"819 606 LINE",
"895 606 LINE",
"692 203 LINE",
"684 740 LINE",
"508 740 LINE",
"249 201 LINE",
"230 606 LINE",
"291 606 LINE",
"322 740 LINE",
"23 740 LINE",
"-8 606 LINE",
"72 606 LINE",
"106 0 LINE",
"306 0 LINE",
"539 476 LINE",
"543 0 LINE",
"743 0 LINE",
"1060 606 LINE",
"1118 606 LINE",
"1149 740 LINE",
"850 740 LINE"
);
}
);
width = 1145;
}
);
leftKerningGroup = V;
rightKerningGroup = V;
unicode = 0057;
},
{
glyphname = X;
layers = (
{
anchors = (
{
name = bottom;
position = "{364, 0}";
},
{
name = top;
position = "{524, 740}";
}
);
layerId = "EEC59083-BA83-4EFB-8B50-D01213A5FD15";
paths = (
{
closed = 1;
nodes = (
"582 656 LINE",
"647 656 LINE",
"460 459 LINE",
"366 656 LINE",
"430 656 LINE",
"450 740 LINE",
"210 740 LINE",
"190 656 LINE",
"261 656 LINE",
"392 387 LINE",
"104 84 LINE",
"45 84 LINE",
"26 0 LINE",
"266 0 LINE",
"285 84 LINE",
"227 84 LINE",
"434 302 LINE",
"540 84 LINE",
"474 84 LINE",
"455 0 LINE",
"695 0 LINE",
"714 84 LINE",
"641 84 LINE",
"502 373 LINE",
"771 656 LINE",
"822 656 LINE",
"842 740 LINE",
"602 740 LINE"
);
}
);
width = 726;
},
{
anchors = (
{
name = bottom;
position = "{383, 0}";
},
{
name = top;
position = "{573, 740}";
}
);
layerId = "8956C7A5-95B5-4256-B2D2-E489185594C4";
paths = (
{
closed = 1;
nodes = (
"605 606 LINE",
"654 606 LINE",
"521 489 LINE",
"445 606 LINE",
"502 606 LINE",
"533 740 LINE",
"203 740 LINE",
"172 606 LINE",
"256 606 LINE",
"401 384 LINE",
"116 134 LINE",
"57 134 LINE",
"26 0 LINE",
"356 0 LINE",
"387 134 LINE",
"338 134 LINE",
"482 261 LINE",
"565 134 LINE",
"507 134 LINE",
"476 0 LINE",
"806 0 LINE",
"837 134 LINE",
"754 134 LINE",
"602 366 LINE",
"874 606 LINE",
"935 606 LINE",
"966 740 LINE",
"636 740 LINE"
);
}
);
width = 997;
}
);
leftKerningGroup = X;
rightKerningGroup = X;
unicode = 0058;
},
{
glyphname = Y;
layers = (
{
anchors = (
{
name = bottom;
position = "{170, 0}";
},
{
name = top;
position = "{335, 740}";
},
{
name = topleft;
position = "{37, 740}";
}
);
layerId = "EEC59083-BA83-4EFB-8B50-D01213A5FD15";
paths = (
{
closed = 1;
nodes = (
"-8 656 LINE",
"64 656 LINE",
"190 337 LINE",
"132 84 LINE",
"63 84 LINE",
"44 0 LINE",
"284 0 LINE",
"303 84 LINE",
"234 84 LINE",
"293 335 LINE",
"579 656 LINE",
"639 656 LINE",
"658 740 LINE",
"418 740 LINE",
"399 656 LINE",
"458 656 LINE",
"258 425 LINE",
"172 656 LINE",
"232 656 LINE",
"251 740 LINE",
"11 740 LINE"
);
}
);
width = 645;
},
{
anchors = (
{
name = bottom;
position = "{220, 0}";
},
{
name = top;
position = "{381, 740}";
},
{
name = topleft;
position = "{34, 740}";
}
);
layerId = "8956C7A5-95B5-4256-B2D2-E489185594C4";
paths = (
{
closed = 1;
nodes = (
"-8 606 LINE",
"57 606 LINE",
"194 310 LINE",
"154 134 LINE",
"76 134 LINE",
"45 0 LINE",
"375 0 LINE",
"406 134 LINE",
"323 134 LINE",
"361 300 LINE",
"652 606 LINE",
"701 606 LINE",
"732 740 LINE",
"433 740 LINE",
"402 606 LINE",
"445 606 LINE",
"305 446 LINE",
"240 606 LINE",
"291 606 LINE",
"322 740 LINE",
"23 740 LINE"
);
}
);
width = 738;
}
);
leftKerningGroup = Y;
rightKerningGroup = Y;
unicode = 0059;
},
{
glyphname = Z;
layers = (
{
anchors = (
{
name = top;
position = "{464, 740}";
}
);
layerId = "EEC59083-BA83-4EFB-8B50-D01213A5FD15";
paths = (
{
closed = 1;
nodes = (
"759 740 LINE",
"221 740 LINE",
"172 528 LINE",
"273 528 LINE",
"302 654 LINE",
"624 654 LINE",
"70 113 LINE",
"45 0 LINE",
"587 0 LINE",
"635 210 LINE",
"534 210 LINE",
"506 87 LINE",
"173 87 LINE",
"736 634 LINE"
);
}
);
width = 633;
},
{
anchors = (
{
name = top;
position = "{512, 740}";
}
);
layerId = "8956C7A5-95B5-4256-B2D2-E489185594C4";
paths = (
{
closed = 1;
nodes = (
"781 740 LINE",
"213 740 LINE",
"152 478 LINE",
"320 478 LINE",
"349 606 LINE",
"547 606 LINE",
"80 153 LINE",
"45 0 LINE",
"619 0 LINE",
"679 260 LINE",
"509 260 LINE",
"480 134 LINE",
"270 134 LINE",
"746 587 LINE"
);
}
);
width = 823;
}
);
leftKerningGroup = Z;
rightKerningGroup = Z;
unicode = 005A;
},
{
color = 6;
glyphname = Zacute;
layers = (
{
background = {
paths = (
{
closed = 1;
nodes = (
"710 587 LINE",
"235 134 LINE",
"445 134 LINE",
"474 260 LINE",
"644 260 LINE",
"583 0 LINE",
"10 0 LINE",
"44 153 LINE",
"511 606 LINE",
"313 606 LINE",
"285 478 LINE",
"117 478 LINE",
"178 740 LINE",
"746 740 LINE"
);
},
{
closed = 1;
nodes = (
"473 961 LINE",
"632 961 LINE",
"632 949 LINE",
"483 809 LINE",
"368 809 LINE"
);
},
{
closed = 1;
nodes = (
"0 760 LINE",
"621 760 LINE",
"621 0 LINE",
"0 0 LINE"
);
}
);
};
components = (
{
name = Z;
},
{
name = acute;
transform = "{1, 0, 0, 1, 485, 234}";
}
);
layerId = "8956C7A5-95B5-4256-B2D2-E489185594C4";
width = 823;
},
{
background = {
paths = (
{
closed = 1;
nodes = (
"710 587 LINE",
"235 134 LINE",
"445 134 LINE",
"474 260 LINE",
"644 260 LINE",
"583 0 LINE",
"10 0 LINE",
"44 153 LINE",
"511 606 LINE",
"313 606 LINE",
"285 478 LINE",
"117 478 LINE",
"178 740 LINE",
"746 740 LINE"
);
},
{
closed = 1;
nodes = (
"473 961 LINE",
"632 961 LINE",
"632 949 LINE",
"483 809 LINE",
"368 809 LINE"
);
},
{
closed = 1;
nodes = (
"0 760 LINE",
"621 760 LINE",
"621 0 LINE",
"0 0 LINE"
);
}
);
};
components = (
{
name = Z;
},
{
name = acute;
transform = "{1, 0, 0, 1, 438, 234}";
}
);
layerId = "EEC59083-BA83-4EFB-8B50-D01213A5FD15";
width = 633;
}
);
leftKerningGroup = Z;
rightKerningGroup = Z;
unicode = 0179;
},
{
color = 6;
glyphname = Zdotaccent;
layers = (
{
background = {
paths = (
{
closed = 1;
nodes = (
"710 587 LINE",
"235 134 LINE",
"445 134 LINE",
"474 260 LINE",
"644 260 LINE",
"583 0 LINE",
"10 0 LINE",
"44 153 LINE",
"511 606 LINE",
"313 606 LINE",
"285 478 LINE",
"117 478 LINE",
"178 740 LINE",
"746 740 LINE"
);
},
{
closed = 1;
nodes = (
"354 903 LINE",
"354 921 LINE",
"367 953 LINE",
"391 976 LINE",
"422 990 LINE",
"441 990 LINE",
"458 990 LINE",
"490 976 LINE",
"513 953 LINE",
"527 921 LINE",
"527 903 LINE",
"527 885 LINE",
"513 853 LINE",
"490 830 LINE",
"458 816 LINE",
"441 816 LINE",
"422 816 LINE",
"391 830 LINE",
"367 853 LINE",
"354 885 LINE"
);
},
{
closed = 1;
nodes = (
"0 760 LINE",
"621 760 LINE",
"621 0 LINE",
"0 0 LINE"
);
}
);
};
components = (
{
name = Z;
},
{
name = dotaccentcomb;
transform = "{1, 0, 0, 1, 315, 234}";
}
);
layerId = "8956C7A5-95B5-4256-B2D2-E489185594C4";
width = 823;
},
{
background = {
paths = (
{
closed = 1;
nodes = (
"710 587 LINE",
"235 134 LINE",
"445 134 LINE",
"474 260 LINE",
"644 260 LINE",
"583 0 LINE",
"10 0 LINE",
"44 153 LINE",
"511 606 LINE",
"313 606 LINE",
"285 478 LINE",
"117 478 LINE",
"178 740 LINE",
"746 740 LINE"
);
},
{
closed = 1;
nodes = (
"354 903 LINE",
"354 921 LINE",
"367 953 LINE",
"391 976 LINE",
"422 990 LINE",
"441 990 LINE",
"458 990 LINE",
"490 976 LINE",
"513 953 LINE",
"527 921 LINE",
"527 903 LINE",
"527 885 LINE",
"513 853 LINE",
"490 830 LINE",
"458 816 LINE",
"441 816 LINE",
"422 816 LINE",
"391 830 LINE",
"367 853 LINE",
"354 885 LINE"
);
},
{
closed = 1;
nodes = (
"0 760 LINE",
"621 760 LINE",
"621 0 LINE",
"0 0 LINE"
);
}
);
};
components = (
{
name = Z;
},
{
name = dotaccentcomb;
transform = "{1, 0, 0, 1, 279, 234}";
}
);
layerId = "EEC59083-BA83-4EFB-8B50-D01213A5FD15";
width = 633;
}
);
leftKerningGroup = Z;
rightKerningGroup = Z;
unicode = 017B;
},
{
glyphname = a;
layers = (
{
anchors = (
{
name = top;
position = "{366, 506}";
}
);
layerId = "EEC59083-BA83-4EFB-8B50-D01213A5FD15";
paths = (
{
closed = 1;
nodes = (
"489 506 LINE",
"482 479 LINE",
"455 503 OFFCURVE",
"410 519 OFFCURVE",
"361 519 CURVE SMOOTH",
"190 519 OFFCURVE",
"48 387 OFFCURVE",
"48 198 CURVE SMOOTH",
"48 82 OFFCURVE",
"135 -9 OFFCURVE",
"246 -9 CURVE SMOOTH",
"292 -9 OFFCURVE",
"336 5 OFFCURVE",
"380 35 CURVE",
"372 0 LINE",
"549 0 LINE",
"568 84 LINE",
"489 84 LINE",
"587 506 LINE"
);
},
{
closed = 1;
nodes = (
"198 75 OFFCURVE",
"149 125 OFFCURVE",
"149 208 CURVE SMOOTH",
"149 351 OFFCURVE",
"254 435 OFFCURVE",
"354 435 CURVE SMOOTH",
"411 435 OFFCURVE",
"447 417 OFFCURVE",
"463 396 CURVE",
"401 125 LINE",
"370 100 OFFCURVE",
"318 75 OFFCURVE",
"269 75 CURVE SMOOTH"
);
}
);
width = 638;
},
{
anchors = (
{
name = top;
position = "{367, 506}";
}
);
layerId = "8956C7A5-95B5-4256-B2D2-E489185594C4";
paths = (
{
closed = 1;
nodes = (
"490 506 LINE",
"484 481 LINE",
"459 501 OFFCURVE",
"409 518 OFFCURVE",
"362 518 CURVE SMOOTH",
"201 518 OFFCURVE",
"48 402 OFFCURVE",
"48 214 CURVE SMOOTH",
"48 69 OFFCURVE",
"154 -8 OFFCURVE",
"259 -8 CURVE SMOOTH",
"314 -8 OFFCURVE",
"357 13 OFFCURVE",
"382 39 CURVE",
"373 0 LINE",
"632 0 LINE",
"663 134 LINE",
"570 134 LINE",
"656 506 LINE"
);
},
{
closed = 1;
nodes = (
"255 143 OFFCURVE",
"213 175 OFFCURVE",
"213 237 CURVE SMOOTH",
"213 311 OFFCURVE",
"274 370 OFFCURVE",
"344 370 CURVE SMOOTH",
"387 370 OFFCURVE",
"429 350 OFFCURVE",
"446 314 CURVE",
"421 208 LINE",
"394 164 OFFCURVE",
"347 143 OFFCURVE",
"305 143 CURVE SMOOTH"
);
}
);
width = 697;
}
);
leftKerningGroup = a;
rightKerningGroup = n;
unicode = 0061;
},
{
color = 6;
glyphname = amacron;
layers = (
{
background = {
paths = (
{
closed = 1;
nodes = (
"384 39 LINE",
"366 20 LINE",
"336 6 LINE",
"304 -8 LINE",
"261 -8 LINE",
"222 -8 LINE",
"146 21 LINE",
"86 77 LINE",
"50 160 LINE",
"50 214 LINE",
"50 261 LINE",
"74 342 LINE",
"117 410 LINE",
"176 463 LINE",
"246 499 LINE",
"324 518 LINE",
"364 518 LINE",
"386 518 LINE",
"418 512 LINE",
"459 500 LINE",
"486 481 LINE",
"492 506 LINE",
"658 506 LINE",
"572 134 LINE",
"665 134 LINE",
"634 0 LINE",
"375 0 LINE"
);
},
{
closed = 1;
nodes = (
"402 182 LINE",
"423 208 LINE",
"448 314 LINE",
"442 325 LINE",
"423 346 LINE",
"396 362 LINE",
"363 370 LINE",
"346 370 LINE",
"320 370 LINE",
"272 349 LINE",
"236 313 LINE",
"215 265 LINE",
"215 237 LINE",
"215 213 LINE",
"229 178 LINE",
"255 155 LINE",
"288 143 LINE",
"307 143 LINE",
"323 143 LINE",
"357 151 LINE",
"388 168 LINE"
);
},
{
closed = 1;
nodes = (
"537 574 LINE",
"201 574 LINE",
"201 679 LINE",
"537 679 LINE"
);
},
{
closed = 1;
nodes = (
"0 760 LINE",
"679 760 LINE",
"679 0 LINE",
"0 0 LINE"
);
}
);
};
components = (
{
alignment = -1;
name = a;
transform = "{1, 0, 0, 1, 6, 0}";
},
{
alignment = -1;
name = macroncomb;
transform = "{1, 0, 0, 1, 95, 0}";
}
);
layerId = "8956C7A5-95B5-4256-B2D2-E489185594C4";
width = 703;
},
{
background = {
paths = (
{
closed = 1;
nodes = (
"384 39 LINE",
"366 20 LINE",
"336 6 LINE",
"304 -8 LINE",
"261 -8 LINE",
"222 -8 LINE",
"146 21 LINE",
"86 77 LINE",
"50 160 LINE",
"50 214 LINE",
"50 261 LINE",
"74 342 LINE",
"117 410 LINE",
"176 463 LINE",
"246 499 LINE",
"324 518 LINE",
"364 518 LINE",
"386 518 LINE",
"418 512 LINE",
"459 500 LINE",
"486 481 LINE",
"492 506 LINE",
"658 506 LINE",
"572 134 LINE",
"665 134 LINE",
"634 0 LINE",
"375 0 LINE"
);
},
{
closed = 1;
nodes = (
"402 182 LINE",
"423 208 LINE",
"448 314 LINE",
"442 325 LINE",
"423 346 LINE",
"396 362 LINE",
"363 370 LINE",
"346 370 LINE",
"320 370 LINE",
"272 349 LINE",
"236 313 LINE",
"215 265 LINE",
"215 237 LINE",
"215 213 LINE",
"229 178 LINE",
"255 155 LINE",
"288 143 LINE",
"307 143 LINE",
"323 143 LINE",
"357 151 LINE",
"388 168 LINE"
);
},
{
closed = 1;
nodes = (
"537 574 LINE",
"201 574 LINE",
"201 679 LINE",
"537 679 LINE"
);
},
{
closed = 1;
nodes = (
"0 760 LINE",
"679 760 LINE",
"679 0 LINE",
"0 0 LINE"
);
}
);
};
components = (
{
name = a;
},
{
name = macroncomb;
transform = "{1, 0, 0, 1, 71, 0}";
}
);
layerId = "EEC59083-BA83-4EFB-8B50-D01213A5FD15";
width = 638;
}
);
leftKerningGroup = a;
rightKerningGroup = a;
unicode = 0101;
},
{
color = 6;
glyphname = aogonek;
layers = (
{
background = {
paths = (
{
closed = 1;
nodes = (
"658 506 LINE",
"572 134 LINE",
"665 134 LINE",
"634 0 LINE",
"575 0 LINE",
"547 0 LINE",
"484 -18 LINE",
"432 -48 LINE",
"397 -86 LINE",
"397 -106 LINE",
"397 -125 LINE",
"424 -139 LINE",
"435 -139 LINE",
"454 -139 LINE",
"477 -133 LINE",
"487 -128 LINE",
"511 -211 LINE",
"500 -217 LINE",
"450 -231 LINE",
"424 -231 LINE",
"394 -231 LINE",
"343 -217 LINE",
"304 -191 LINE",
"282 -153 LINE",
"282 -128 LINE",
"282 -89 LINE",
"335 -23 LINE",
"375 0 LINE",
"384 38 LINE",
"365 18 LINE",
"303 -8 LINE",
"261 -8 LINE",
"222 -8 LINE",
"146 21 LINE",
"86 77 LINE",
"50 160 LINE",
"50 214 LINE",
"50 284 LINE",
"103 397 LINE",
"190 476 LINE",
"304 518 LINE",
"364 518 LINE",
"399 518 LINE",
"467 497 LINE",
"486 481 LINE",
"492 506 LINE"
);
},
{
closed = 1;
nodes = (
"307 143 LINE",
"338 143 LINE",
"402 174 LINE",
"423 208 LINE",
"447 314 LINE",
"434 341 LINE",
"378 370 LINE",
"346 370 LINE",
"320 370 LINE",
"272 349 LINE",
"236 313 LINE",
"215 265 LINE",
"215 237 LINE",
"215 190 LINE",
"269 143 LINE"
);
},
{
closed = 1;
nodes = (
"0 760 LINE",
"679 760 LINE",
"679 0 LINE",
"0 0 LINE"
);
}
);
};
layerId = "8956C7A5-95B5-4256-B2D2-E489185594C4";
paths = (
{
closed = 1;
nodes = (
"539 46 LINE",
"433 46 OFFCURVE",
"286 -28 OFFCURVE",
"286 -128 CURVE SMOOTH",
"286 -194 OFFCURVE",
"349 -231 OFFCURVE",
"428 -231 CURVE SMOOTH",
"463 -231 OFFCURVE",
"501 -219 OFFCURVE",
"515 -211 CURVE",
"491 -128 LINE",
"478 -134 OFFCURVE",
"464 -139 OFFCURVE",
"439 -139 CURVE SMOOTH",
"425 -139 OFFCURVE",
"401 -131 OFFCURVE",
"401 -106 CURVE SMOOTH",
"401 -53 OFFCURVE",
"504 0 OFFCURVE",
"579 0 CURVE"
);
},
{
closed = 1;
nodes = (
"492 480 LINE",
"467 501 OFFCURVE",
"416 518 OFFCURVE",
"368 518 CURVE SMOOTH",
"207 518 OFFCURVE",
"54 402 OFFCURVE",
"54 214 CURVE SMOOTH",
"54 69 OFFCURVE",
"160 -8 OFFCURVE",
"265 -8 CURVE SMOOTH",
"322 -8 OFFCURVE",
"366 14 OFFCURVE",
"390 41 CURVE",
"430 213 LINE",
"403 165 OFFCURVE",
"354 143 OFFCURVE",
"311 143 CURVE SMOOTH",
"261 143 OFFCURVE",
"219 175 OFFCURVE",
"219 237 CURVE SMOOTH",
"219 311 OFFCURVE",
"280 370 OFFCURVE",
"350 370 CURVE SMOOTH",
"395 370 OFFCURVE",
"439 348 OFFCURVE",
"454 308 CURVE"
);
},
{
closed = 1;
nodes = (
"496 506 LINE",
"379 0 LINE",
"545 0 LINE",
"662 506 LINE"
);
},
{
closed = 1;
nodes = (
"438 0 LINE",
"638 0 LINE",
"669 134 LINE",
"469 134 LINE"
);
}
);
width = 691;
},
{
background = {
paths = (
{
closed = 1;
nodes = (
"655 506 LINE",
"569 134 LINE",
"662 134 LINE",
"631 0 LINE",
"572 0 LINE",
"544 0 LINE",
"481 -18 LINE",
"429 -48 LINE",
"394 -86 LINE",
"394 -106 LINE",
"394 -125 LINE",
"421 -139 LINE",
"432 -139 LINE",
"451 -139 LINE",
"474 -133 LINE",
"484 -128 LINE",
"508 -211 LINE",
"497 -217 LINE",
"447 -231 LINE",
"421 -231 LINE",
"391 -231 LINE",
"340 -217 LINE",
"301 -191 LINE",
"279 -153 LINE",
"279 -128 LINE",
"279 -89 LINE",
"332 -23 LINE",
"372 0 LINE",
"381 38 LINE",
"362 18 LINE",
"300 -8 LINE",
"258 -8 LINE",
"219 -8 LINE",
"143 21 LINE",
"83 77 LINE",
"47 160 LINE",
"47 214 LINE",
"47 284 LINE",
"100 397 LINE",
"187 476 LINE",
"301 518 LINE",
"361 518 LINE",
"396 518 LINE",
"464 497 LINE",
"483 481 LINE",
"489 506 LINE"
);
},
{
closed = 1;
nodes = (
"304 143 LINE",
"335 143 LINE",
"399 174 LINE",
"420 208 LINE",
"444 314 LINE",
"431 341 LINE",
"375 370 LINE",
"343 370 LINE",
"317 370 LINE",
"269 349 LINE",
"233 313 LINE",
"212 265 LINE",
"212 237 LINE",
"212 190 LINE",
"266 143 LINE"
);
},
{
closed = 1;
nodes = (
"-3 760 LINE",
"676 760 LINE",
"676 0 LINE",
"-3 0 LINE"
);
}
);
};
layerId = "EEC59083-BA83-4EFB-8B50-D01213A5FD15";
paths = (
{
closed = 1;
nodes = (
"467 38 LINE",
"410 23 OFFCURVE",
"294 -27 OFFCURVE",
"294 -127 CURVE SMOOTH",
"294 -193 OFFCURVE",
"352 -230 OFFCURVE",
"431 -230 CURVE SMOOTH",
"468 -230 OFFCURVE",
"501 -219 OFFCURVE",
"518 -209 CURVE",
"497 -147 LINE",
"484 -153 OFFCURVE",
"459 -158 OFFCURVE",
"434 -158 CURVE SMOOTH",
"401 -158 OFFCURVE",
"379 -137 OFFCURVE",
"379 -110 CURVE SMOOTH",
"379 -61 OFFCURVE",
"447 0 OFFCURVE",
"511 0 CURVE"
);
},
{
closed = 1;
nodes = (
"508 458 LINE",
"487 492 OFFCURVE",
"430 519 OFFCURVE",
"367 519 CURVE SMOOTH",
"196 519 OFFCURVE",
"54 387 OFFCURVE",
"54 198 CURVE SMOOTH",
"54 82 OFFCURVE",
"141 -9 OFFCURVE",
"252 -9 CURVE SMOOTH",
"313 -9 OFFCURVE",
"369 15 OFFCURVE",
"426 66 CURVE",
"422 139 LINE",
"395 110 OFFCURVE",
"333 75 OFFCURVE",
"275 75 CURVE SMOOTH",
"204 75 OFFCURVE",
"155 125 OFFCURVE",
"155 208 CURVE SMOOTH",
"155 351 OFFCURVE",
"260 435 OFFCURVE",
"360 435 CURVE SMOOTH",
"428 435 OFFCURVE",
"465 410 OFFCURVE",
"477 384 CURVE"
);
},
{
closed = 1;
nodes = (
"495 506 LINE",
"378 0 LINE",
"476 0 LINE",
"593 506 LINE"
);
},
{
closed = 1;
nodes = (
"410 0 LINE",
"555 0 LINE",
"574 84 LINE",
"429 84 LINE"
);
}
);
width = 644;
}
);
leftKerningGroup = a;
rightKerningGroup = n;
unicode = 0105;
},
{
glyphname = ae;
layers = (
{
layerId = "EEC59083-BA83-4EFB-8B50-D01213A5FD15";
paths = (
{
closed = 1;
nodes = (
"175 296 OFFCURVE",
"23 264 OFFCURVE",
"23 120 CURVE SMOOTH",
"23 27 OFFCURVE",
"96 -14 OFFCURVE",
"190 -14 CURVE SMOOTH",
"271 -14 OFFCURVE",
"349 22 OFFCURVE",
"400 91 CURVE",
"438 23 OFFCURVE",
"510 -15 OFFCURVE",
"593 -15 CURVE SMOOTH",
"681 -15 OFFCURVE",
"763 22 OFFCURVE",
"807 80 CURVE",
"783 98 OFFCURVE",
"759 115 OFFCURVE",
"735 133 CURVE",
"703 93 OFFCURVE",
"653 71 OFFCURVE",
"601 71 CURVE SMOOTH",
"523 71 OFFCURVE",
"467 133 OFFCURVE",
"467 215 CURVE SMOOTH",
"467 221 OFFCURVE",
"467 227 OFFCURVE",
"468 236 CURVE",
"857 236 LINE",
"862 262 OFFCURVE",
"866 294 OFFCURVE",
"866 327 CURVE SMOOTH",
"866 427 OFFCURVE",
"791 521 OFFCURVE",
"662 521 CURVE SMOOTH",
"588 521 OFFCURVE",
"521 494 OFFCURVE",
"470 449 CURVE",
"448 496 OFFCURVE",
"400 517 OFFCURVE",
"329 517 CURVE SMOOTH",
"265 517 OFFCURVE",
"190 494 OFFCURVE",
"135 463 CURVE",
"140 442 OFFCURVE",
"145 421 OFFCURVE",
"150 400 CURVE",
"184 419 OFFCURVE",
"241 437 OFFCURVE",
"302 437 CURVE SMOOTH",
"367 437 OFFCURVE",
"404 404 OFFCURVE",
"387 332 CURVE SMOOTH",
"383 316 OFFCURVE",
"380 301 OFFCURVE",
"376 286 CURVE",
"351 292 OFFCURVE",
"318 296 OFFCURVE",
"274 296 CURVE SMOOTH"
);
},
{
closed = 1;
nodes = (
"148 62 OFFCURVE",
"115 85 OFFCURVE",
"115 133 CURVE SMOOTH",
"115 195 OFFCURVE",
"177 233 OFFCURVE",
"257 233 CURVE SMOOTH",
"369 233 LINE",
"369 228 OFFCURVE",
"369 222 OFFCURVE",
"369 217 CURVE SMOOTH",
"369 192 OFFCURVE",
"372 170 OFFCURVE",
"377 149 CURVE",
"330 94 OFFCURVE",
"266 62 OFFCURVE",
"199 62 CURVE SMOOTH"
);
},
{
closed = 1;
nodes = (
"723 438 OFFCURVE",
"774 396 OFFCURVE",
"772 315 CURVE",
"484 315 LINE",
"510 385 OFFCURVE",
"571 438 OFFCURVE",
"649 438 CURVE SMOOTH"
);
}
);
width = 857;
},
{
layerId = "8956C7A5-95B5-4256-B2D2-E489185594C4";
paths = (
{
closed = 1;
nodes = (
"116 311 OFFCURVE",
"23 238 OFFCURVE",
"23 131 CURVE SMOOTH",
"23 55 OFFCURVE",
"80 -12 OFFCURVE",
"195 -12 CURVE SMOOTH",
"292 -12 OFFCURVE",
"352 23 OFFCURVE",
"403 75 CURVE",
"445 19 OFFCURVE",
"514 -13 OFFCURVE",
"592 -13 CURVE SMOOTH",
"690 -13 OFFCURVE",
"779 19 OFFCURVE",
"844 89 CURVE",
"808 120 OFFCURVE",
"773 152 OFFCURVE",
"737 183 CURVE",
"701 152 OFFCURVE",
"667 130 OFFCURVE",
"615 130 CURVE SMOOTH",
"573 130 OFFCURVE",
"546 146 OFFCURVE",
"532 171 CURVE SMOOTH",
"525 184 OFFCURVE",
"521 199 OFFCURVE",
"520 215 CURVE",
"881 215 LINE",
"890 243 OFFCURVE",
"896 285 OFFCURVE",
"896 311 CURVE SMOOTH",
"896 421 OFFCURVE",
"801 521 OFFCURVE",
"670 521 CURVE SMOOTH",
"604 521 OFFCURVE",
"542 501 OFFCURVE",
"491 466 CURVE",
"457 501 OFFCURVE",
"401 517 OFFCURVE",
"337 517 CURVE SMOOTH",
"258 517 OFFCURVE",
"184 491 OFFCURVE",
"114 447 CURVE",
"122 415 OFFCURVE",
"131 384 OFFCURVE",
"139 352 CURVE",
"188 375 OFFCURVE",
"234 387 OFFCURVE",
"295 387 CURVE SMOOTH",
"354 387 OFFCURVE",
"387 365 OFFCURVE",
"375 314 CURVE SMOOTH",
"374 309 OFFCURVE",
"373 304 OFFCURVE",
"372 299 CURVE",
"341 306 OFFCURVE",
"306 311 OFFCURVE",
"262 311 CURVE SMOOTH"
);
},
{
closed = 1;
nodes = (
"181 103 OFFCURVE",
"164 121 OFFCURVE",
"164 146 CURVE SMOOTH",
"164 198 OFFCURVE",
"215 206 OFFCURVE",
"262 206 CURVE SMOOTH",
"361 206 LINE",
"361 200 OFFCURVE",
"361 194 OFFCURVE",
"362 188 CURVE SMOOTH",
"363 177 OFFCURVE",
"364 166 OFFCURVE",
"367 155 CURVE",
"326 124 OFFCURVE",
"278 103 OFFCURVE",
"219 103 CURVE SMOOTH"
);
},
{
closed = 1;
nodes = (
"708 395 OFFCURVE",
"746 360 OFFCURVE",
"749 325 CURVE",
"537 325 LINE",
"555 370 OFFCURVE",
"602 395 OFFCURVE",
"654 395 CURVE SMOOTH"
);
}
);
width = 918;
}
);
leftKerningGroup = a;
rightKerningGroup = e;
unicode = 00E6;
},
{
glyphname = b;
layers = (
{
anchors = (
{
name = top;
position = "{229, 760}";
}
);
layerId = "EEC59083-BA83-4EFB-8B50-D01213A5FD15";
paths = (
{
closed = 1;
nodes = (
"68 676 LINE",
"161 676 LINE",
"6 0 LINE",
"104 0 LINE",
"111 31 LINE",
"138 8 OFFCURVE",
"184 -9 OFFCURVE",
"234 -9 CURVE SMOOTH",
"405 -9 OFFCURVE",
"547 123 OFFCURVE",
"547 312 CURVE SMOOTH",
"547 428 OFFCURVE",
"460 519 OFFCURVE",
"349 519 CURVE SMOOTH",
"301 519 OFFCURVE",
"257 504 OFFCURVE",
"213 474 CURVE",
"279 760 LINE",
"88 760 LINE"
);
},
{
closed = 1;
nodes = (
"397 435 OFFCURVE",
"446 385 OFFCURVE",
"446 302 CURVE SMOOTH",
"446 159 OFFCURVE",
"341 75 OFFCURVE",
"241 75 CURVE SMOOTH",
"183 75 OFFCURVE",
"147 93 OFFCURVE",
"130 115 CURVE",
"192 383 LINE",
"231 415 OFFCURVE",
"280 435 OFFCURVE",
"326 435 CURVE SMOOTH"
);
}
);
width = 621;
},
{
anchors = (
{
name = top;
position = "{253, 760}";
}
);
layerId = "8956C7A5-95B5-4256-B2D2-E489185594C4";
paths = (
{
closed = 1;
nodes = (
"54 626 LINE",
"150 626 LINE",
"6 0 LINE",
"172 0 LINE",
"178 28 LINE",
"204 8 OFFCURVE",
"253 -8 OFFCURVE",
"300 -8 CURVE SMOOTH",
"474 -8 OFFCURVE",
"614 117 OFFCURVE",
"614 296 CURVE SMOOTH",
"614 441 OFFCURVE",
"513 518 OFFCURVE",
"403 518 CURVE SMOOTH",
"348 518 OFFCURVE",
"306 498 OFFCURVE",
"281 472 CURVE",
"347 760 LINE",
"85 760 LINE"
);
},
{
closed = 1;
nodes = (
"407 367 OFFCURVE",
"449 335 OFFCURVE",
"449 273 CURVE SMOOTH",
"449 199 OFFCURVE",
"388 140 OFFCURVE",
"318 140 CURVE SMOOTH",
"275 140 OFFCURVE",
"234 159 OFFCURVE",
"217 195 CURVE",
"242 303 LINE",
"269 347 OFFCURVE",
"316 367 OFFCURVE",
"357 367 CURVE SMOOTH"
);
}
);
width = 656;
}
);
leftKerningGroup = I;
rightKerningGroup = o;
unicode = 0062;
},
{
glyphname = c;
layers = (
{
anchors = (
{
name = bottom;
position = "{274, 0}";
},
{
name = top;
position = "{350, 506}";
}
);
layerId = "EEC59083-BA83-4EFB-8B50-D01213A5FD15";
paths = (
{
closed = 1;
nodes = (
"552 357 LINE",
"566 441 LINE",
"505 441 LINE",
"464 496 OFFCURVE",
"397 521 OFFCURVE",
"332 521 CURVE SMOOTH",
"193 521 OFFCURVE",
"47 396 OFFCURVE",
"47 219 CURVE SMOOTH",
"47 89 OFFCURVE",
"144 -12 OFFCURVE",
"277 -12 CURVE SMOOTH",
"350 -12 OFFCURVE",
"429 14 OFFCURVE",
"480 86 CURVE",
"409 139 LINE",
"371 91 OFFCURVE",
"333 75 OFFCURVE",
"281 75 CURVE SMOOTH",
"210 75 OFFCURVE",
"149 127 OFFCURVE",
"149 225 CURVE SMOOTH",
"149 359 OFFCURVE",
"252 435 OFFCURVE",
"323 435 CURVE SMOOTH",
"379 435 OFFCURVE",
"429 409 OFFCURVE",
"450 357 CURVE"
);
}
);
width = 554;
},
{
anchors = (
{
name = bottom;
position = "{269, 0}";
},
{
name = top;
position = "{352, 506}";
}
);
layerId = "8956C7A5-95B5-4256-B2D2-E489185594C4";
paths = (
{
closed = 1;
nodes = (
"574 326 LINE",
"605 460 LINE",
"511 460 LINE",
"472 497 OFFCURVE",
"419 521 OFFCURVE",
"356 521 CURVE SMOOTH",
"191 521 OFFCURVE",
"47 399 OFFCURVE",
"47 213 CURVE SMOOTH",
"47 89 OFFCURVE",
"145 -12 OFFCURVE",
"276 -12 CURVE SMOOTH",
"398 -12 OFFCURVE",
"496 51 OFFCURVE",
"537 132 CURVE",
"404 204 LINE",
"381 164 OFFCURVE",
"346 136 OFFCURVE",
"292 136 CURVE SMOOTH",
"246 136 OFFCURVE",
"206 173 OFFCURVE",
"206 231 CURVE SMOOTH",
"206 309 OFFCURVE",
"266 372 OFFCURVE",
"339 372 CURVE SMOOTH",
"371 372 OFFCURVE",
"403 353 OFFCURVE",
"413 326 CURVE"
);
}
);
width = 631;
}
);
leftKerningGroup = o;
rightKerningGroup = c;
unicode = 0063;
},
{
color = 6;
glyphname = cacute;
layers = (
{
background = {
paths = (
{
closed = 1;
nodes = (
"416 326 LINE",
"408 347 LINE",
"366 372 LINE",
"342 372 LINE",
"314 372 LINE",
"266 350 LINE",
"230 312 LINE",
"209 260 LINE",
"209 231 LINE",
"209 209 LINE",
"223 174 LINE",
"247 149 LINE",
"278 136 LINE",
"295 136 LINE",
"335 136 LINE",
"390 174 LINE",
"407 204 LINE",
"540 132 LINE",
"524 102 LINE",
"474 49 LINE",
"406 10 LINE",
"325 -12 LINE",
"279 -12 LINE",
"229 -12 LINE",
"146 23 LINE",
"84 84 LINE",
"50 167 LINE",
"50 213 LINE",
"50 283 LINE",
"100 396 LINE",
"185 477 LINE",
"297 521 LINE",
"359 521 LINE",
"398 521 LINE",
"464 499 LINE",
"491 479 LINE",
"503 470 LINE",
"514 460 LINE",
"608 460 LINE",
"577 326 LINE"
);
},
{
closed = 1;
nodes = (
"313 742 LINE",
"472 742 LINE",
"472 730 LINE",
"323 590 LINE",
"208 590 LINE"
);
},
{
closed = 1;
nodes = (
"0 760 LINE",
"572 760 LINE",
"572 0 LINE",
"0 0 LINE"
);
}
);
};
components = (
{
name = c;
},
{
name = acutecomb;
transform = "{1, 0, 0, 1, 225, 0}";
}
);
layerId = "8956C7A5-95B5-4256-B2D2-E489185594C4";
width = 631;
},
{
background = {
paths = (
{
closed = 1;
nodes = (
"416 326 LINE",
"408 347 LINE",
"366 372 LINE",
"342 372 LINE",
"314 372 LINE",
"266 350 LINE",
"230 312 LINE",
"209 260 LINE",
"209 231 LINE",
"209 209 LINE",
"223 174 LINE",
"247 149 LINE",
"278 136 LINE",
"295 136 LINE",
"335 136 LINE",
"390 174 LINE",
"407 204 LINE",
"540 132 LINE",
"524 102 LINE",
"474 49 LINE",
"406 10 LINE",
"325 -12 LINE",
"279 -12 LINE",
"229 -12 LINE",
"146 23 LINE",
"84 84 LINE",
"50 167 LINE",
"50 213 LINE",
"50 283 LINE",
"100 396 LINE",
"185 477 LINE",
"297 521 LINE",
"359 521 LINE",
"398 521 LINE",
"464 499 LINE",
"491 479 LINE",
"503 470 LINE",
"514 460 LINE",
"608 460 LINE",
"577 326 LINE"
);
},
{
closed = 1;
nodes = (
"313 742 LINE",
"472 742 LINE",
"472 730 LINE",
"323 590 LINE",
"208 590 LINE"
);
},
{
closed = 1;
nodes = (
"0 760 LINE",
"572 760 LINE",
"572 0 LINE",
"0 0 LINE"
);
}
);
};
components = (
{
name = c;
},
{
name = acutecomb;
transform = "{1, 0, 0, 1, 185, 0}";
}
);
layerId = "EEC59083-BA83-4EFB-8B50-D01213A5FD15";
width = 554;
}
);
leftKerningGroup = o;
rightKerningGroup = c;
unicode = 0107;
},
{
glyphname = d;
layers = (
{
anchors = (
{
name = bottom;
position = "{252, 0}";
},
{
name = center;
position = "{506, 603}";
},
{
name = top;
position = "{544, 760}";
},
{
name = topright;
position = "{665, 506}";
}
);
layerId = "EEC59083-BA83-4EFB-8B50-D01213A5FD15";
paths = (
{
closed = 1;
nodes = (
"432 676 LINE",
"517 676 LINE",
"472 479 LINE",
"439 505 OFFCURVE",
"393 521 OFFCURVE",
"341 521 CURVE SMOOTH",
"175 521 OFFCURVE",
"38 387 OFFCURVE",
"38 208 CURVE SMOOTH",
"38 85 OFFCURVE",
"130 -10 OFFCURVE",
"245 -10 CURVE SMOOTH",
"292 -10 OFFCURVE",
"333 7 OFFCURVE",
"369 33 CURVE",
"362 0 LINE",
"544 0 LINE",
"563 84 LINE",
"479 84 LINE",
"635 760 LINE",
"452 760 LINE"
);
},
{
closed = 1;
nodes = (
"193 75 OFFCURVE",
"139 130 OFFCURVE",
"139 217 CURVE SMOOTH",
"139 350 OFFCURVE",
"237 435 OFFCURVE",
"335 435 CURVE SMOOTH",
"390 435 OFFCURVE",
"428 419 OFFCURVE",
"452 391 CURVE",
"392 129 LINE",
"356 94 OFFCURVE",
"309 75 OFFCURVE",
"268 75 CURVE SMOOTH"
);
}
);
width = 627;
},
{
anchors = (
{
name = bottom;
position = "{273, 0}";
},
{
name = center;
position = "{548, 574}";
},
{
name = top;
position = "{584, 760}";
},
{
name = topright;
position = "{712, 506}";
}
);
layerId = "8956C7A5-95B5-4256-B2D2-E489185594C4";
paths = (
{
closed = 1;
nodes = (
"406 626 LINE",
"507 626 LINE",
"474 483 LINE",
"448 504 OFFCURVE",
"396 518 OFFCURVE",
"352 518 CURVE SMOOTH",
"191 518 OFFCURVE",
"38 402 OFFCURVE",
"38 214 CURVE SMOOTH",
"38 94 OFFCURVE",
"116 -9 OFFCURVE",
"249 -9 CURVE SMOOTH",
"305 -9 OFFCURVE",
"348 13 OFFCURVE",
"372 38 CURVE",
"363 0 LINE",
"622 0 LINE",
"653 134 LINE",
"560 134 LINE",
"704 760 LINE",
"437 760 LINE"
);
},
{
closed = 1;
nodes = (
"246 150 OFFCURVE",
"209 186 OFFCURVE",
"209 242 CURVE SMOOTH",
"209 316 OFFCURVE",
"267 373 OFFCURVE",
"337 373 CURVE SMOOTH",
"377 373 OFFCURVE",
"420 355 OFFCURVE",
"437 321 CURVE",
"411 211 LINE",
"384 173 OFFCURVE",
"339 150 OFFCURVE",
"294 150 CURVE SMOOTH"
);
}
);
width = 730;
}
);
leftKerningGroup = o;
rightKerningGroup = d;
unicode = 0064;
},
{
glyphname = eth;
layers = (
{
layerId = "EEC59083-BA83-4EFB-8B50-D01213A5FD15";
paths = (
{
closed = 1;
nodes = (
"306 563 OFFCURVE",
"336 575 OFFCURVE",
"367 588 CURVE",
"387 561 OFFCURVE",
"404 532 OFFCURVE",
"420 502 CURVE",
"389 514 OFFCURVE",
"353 521 OFFCURVE",
"320 521 CURVE SMOOTH",
"167 521 OFFCURVE",
"34 387 OFFCURVE",
"34 219 CURVE SMOOTH",
"34 89 OFFCURVE",
"127 -12 OFFCURVE",
"268 -12 CURVE SMOOTH",
"414 -12 OFFCURVE",
"562 111 OFFCURVE",
"562 318 CURVE SMOOTH",
"562 410 OFFCURVE",
"529 526 OFFCURVE",
"458 625 CURVE",
"477 633 OFFCURVE",
"497 641 OFFCURVE",
"516 649 CURVE",
"505 675 OFFCURVE",
"494 701 OFFCURVE",
"483 727 CURVE",
"455 715 OFFCURVE",
"428 704 OFFCURVE",
"400 692 CURVE",
"374 717 OFFCURVE",
"345 740 OFFCURVE",
"313 760 CURVE",
"188 760 LINE",
"236 726 OFFCURVE",
"276 691 OFFCURVE",
"310 655 CURVE",
"288 646 OFFCURVE",
"266 637 OFFCURVE",
"243 628 CURVE",
"254 602 OFFCURVE",
"265 576 OFFCURVE",
"275 550 CURVE"
);
},
{
closed = 1;
nodes = (
"460 155 OFFCURVE",
"361 74 OFFCURVE",
"273 74 CURVE SMOOTH",
"177 74 OFFCURVE",
"136 143 OFFCURVE",
"136 226 CURVE SMOOTH",
"136 310 OFFCURVE",
"199 435 OFFCURVE",
"322 435 CURVE SMOOTH",
"392 435 OFFCURVE",
"444 393 OFFCURVE",
"459 308 CURVE",
"459 311 OFFCURVE",
"460 313 OFFCURVE",
"460 315 CURVE SMOOTH",
"460 305 OFFCURVE",
"460 295 OFFCURVE",
"460 286 CURVE SMOOTH"
);
}
);
width = 611;
},
{
layerId = "8956C7A5-95B5-4256-B2D2-E489185594C4";
paths = (
{
closed = 1;
nodes = (
"275 546 OFFCURVE",
"302 555 OFFCURVE",
"330 564 CURVE",
"341 548 OFFCURVE",
"352 531 OFFCURVE",
"361 514 CURVE",
"346 515 OFFCURVE",
"328 514 OFFCURVE",
"305 514 CURVE SMOOTH",
"179 514 OFFCURVE",
"34 399 OFFCURVE",
"34 213 CURVE SMOOTH",
"34 89 OFFCURVE",
"132 -12 OFFCURVE",
"263 -12 CURVE SMOOTH",
"496 -12 OFFCURVE",
"571 182 OFFCURVE",
"571 295 CURVE SMOOTH",
"571 418 OFFCURVE",
"545 526 OFFCURVE",
"485 615 CURVE",
"497 619 OFFCURVE",
"508 623 OFFCURVE",
"520 627 CURVE",
"506 669 OFFCURVE",
"492 712 OFFCURVE",
"479 754 CURVE",
"448 744 OFFCURVE",
"417 734 OFFCURVE",
"386 724 CURVE",
"371 736 OFFCURVE",
"355 748 OFFCURVE",
"337 760 CURVE",
"139 760 LINE",
"174 732 OFFCURVE",
"207 704 OFFCURVE",
"237 674 CURVE",
"227 671 OFFCURVE",
"216 667 OFFCURVE",
"205 664 CURVE",
"219 622 OFFCURVE",
"233 580 OFFCURVE",
"247 537 CURVE"
);
},
{
closed = 1;
nodes = (
"412 196 OFFCURVE",
"342 134 OFFCURVE",
"279 134 CURVE SMOOTH",
"213 134 OFFCURVE",
"193 186 OFFCURVE",
"193 231 CURVE SMOOTH",
"193 313 OFFCURVE",
"252 375 OFFCURVE",
"326 375 CURVE SMOOTH",
"357 375 OFFCURVE",
"389 359 OFFCURVE",
"411 316 CURVE",
"411 309 OFFCURVE",
"412 302 OFFCURVE",
"412 296 CURVE SMOOTH",
"412 290 OFFCURVE",
"412 283 OFFCURVE",
"412 277 CURVE SMOOTH"
);
}
);
width = 617;
}
);
leftKerningGroup = o;
rightKerningGroup = eth;
unicode = 00F0;
},
{
color = 6;
glyphname = dcaron;
layers = (
{
background = {
paths = (
{
closed = 1;
nodes = (
"449 760 LINE",
"716 760 LINE",
"572 134 LINE",
"665 134 LINE",
"634 0 LINE",
"375 0 LINE",
"384 38 LINE",
"376 29 LINE",
"365 21 LINE",
"353 13 LINE",
"321 -1 LINE",
"283 -9 LINE",
"261 -9 LINE",
"211 -9 LINE",
"133 27 LINE",
"79 88 LINE",
"50 169 LINE",
"50 214 LINE",
"50 261 LINE",
"74 342 LINE",
"117 410 LINE",
"176 463 LINE",
"246 499 LINE",
"324 518 LINE",
"364 518 LINE",
"381 518 LINE",
"417 513 LINE",
"451 503 LINE",
"465 496 LINE",
"478 490 LINE",
"486 483 LINE",
"519 626 LINE",
"418 626 LINE"
);
},
{
closed = 1;
nodes = (
"374 167 LINE",
"403 184 LINE",
"423 211 LINE",
"449 321 LINE",
"444 330 LINE",
"437 338 LINE",
"427 350 LINE",
"398 365 LINE",
"366 373 LINE",
"349 373 LINE",
"323 373 LINE",
"276 353 LINE",
"241 318 LINE",
"221 270 LINE",
"221 242 LINE",
"221 221 LINE",
"234 187 LINE",
"257 163 LINE",
"288 150 LINE",
"306 150 LINE",
"341 150 LINE"
);
},
{
closed = 1;
nodes = (
"0 760 LINE",
"800 760 LINE",
"800 0 LINE",
"0 0 LINE"
);
}
);
};
components = (
{
alignment = -1;
name = d;
},
{
alignment = -1;
name = caroncomb.alt;
transform = "{1, 0, 0, 1, 608, 0}";
}
);
layerId = "8956C7A5-95B5-4256-B2D2-E489185594C4";
width = 900;
},
{
background = {
paths = (
{
closed = 1;
nodes = (
"449 760 LINE",
"716 760 LINE",
"572 134 LINE",
"665 134 LINE",
"634 0 LINE",
"375 0 LINE",
"384 38 LINE",
"376 29 LINE",
"365 21 LINE",
"353 13 LINE",
"321 -1 LINE",
"283 -9 LINE",
"261 -9 LINE",
"211 -9 LINE",
"133 27 LINE",
"79 88 LINE",
"50 169 LINE",
"50 214 LINE",
"50 261 LINE",
"74 342 LINE",
"117 410 LINE",
"176 463 LINE",
"246 499 LINE",
"324 518 LINE",
"364 518 LINE",
"381 518 LINE",
"417 513 LINE",
"451 503 LINE",
"465 496 LINE",
"478 490 LINE",
"486 483 LINE",
"519 626 LINE",
"418 626 LINE"
);
},
{
closed = 1;
nodes = (
"374 167 LINE",
"403 184 LINE",
"423 211 LINE",
"449 321 LINE",
"444 330 LINE",
"437 338 LINE",
"427 350 LINE",
"398 365 LINE",
"366 373 LINE",
"349 373 LINE",
"323 373 LINE",
"276 353 LINE",
"241 318 LINE",
"221 270 LINE",
"221 242 LINE",
"221 221 LINE",
"234 187 LINE",
"257 163 LINE",
"288 150 LINE",
"306 150 LINE",
"341 150 LINE"
);
},
{
closed = 1;
nodes = (
"0 760 LINE",
"800 760 LINE",
"800 0 LINE",
"0 0 LINE"
);
}
);
};
components = (
{
alignment = -1;
name = d;
},
{
alignment = -1;
name = quotesingle;
transform = "{1, 0, 0, 1, 727, 0}";
}
);
layerId = "EEC59083-BA83-4EFB-8B50-D01213A5FD15";
width = 679;
}
);
leftKerningGroup = o;
rightKerningGroup = d;
unicode = 010F;
},
{
glyphname = e;
layers = (
{
anchors = (
{
name = top;
position = "{361, 506}";
}
);
layerId = "EEC59083-BA83-4EFB-8B50-D01213A5FD15";
paths = (
{
closed = 1;
nodes = (
"545 236 LINE",
"550 262 OFFCURVE",
"554 294 OFFCURVE",
"554 327 CURVE SMOOTH",
"554 427 OFFCURVE",
"479 521 OFFCURVE",
"350 521 CURVE SMOOTH",
"183 521 OFFCURVE",
"57 385 OFFCURVE",
"57 217 CURVE SMOOTH",
"57 71 OFFCURVE",
"156 -15 OFFCURVE",
"281 -15 CURVE SMOOTH",
"369 -15 OFFCURVE",
"451 22 OFFCURVE",
"495 80 CURVE",
"471 98 OFFCURVE",
"447 115 OFFCURVE",
"423 133 CURVE",
"391 93 OFFCURVE",
"341 71 OFFCURVE",
"289 71 CURVE SMOOTH",
"211 71 OFFCURVE",
"155 133 OFFCURVE",
"155 215 CURVE SMOOTH",
"155 221 OFFCURVE",
"155 227 OFFCURVE",
"156 236 CURVE"
);
},
{
closed = 1;
nodes = (
"411 438 OFFCURVE",
"462 396 OFFCURVE",
"460 315 CURVE",
"171 315 LINE",
"198 385 OFFCURVE",
"259 438 OFFCURVE",
"337 438 CURVE SMOOTH"
);
}
);
width = 571;
},
{
anchors = (
{
name = top;
position = "{362, 506}";
}
);
layerId = "8956C7A5-95B5-4256-B2D2-E489185594C4";
paths = (
{
closed = 1;
nodes = (
"577 215 LINE",
"586 243 OFFCURVE",
"592 285 OFFCURVE",
"592 311 CURVE SMOOTH",
"592 421 OFFCURVE",
"497 521 OFFCURVE",
"366 521 CURVE SMOOTH",
"201 521 OFFCURVE",
"57 397 OFFCURVE",
"57 211 CURVE SMOOTH",
"57 73 OFFCURVE",
"161 -13 OFFCURVE",
"288 -13 CURVE SMOOTH",
"386 -13 OFFCURVE",
"475 19 OFFCURVE",
"540 89 CURVE",
"505 120 OFFCURVE",
"468 152 OFFCURVE",
"433 183 CURVE",
"397 152 OFFCURVE",
"363 130 OFFCURVE",
"311 130 CURVE SMOOTH",
"269 130 OFFCURVE",
"242 146 OFFCURVE",
"228 171 CURVE SMOOTH",
"221 184 OFFCURVE",
"217 199 OFFCURVE",
"216 215 CURVE"
);
},
{
closed = 1;
nodes = (
"404 395 OFFCURVE",
"442 360 OFFCURVE",
"445 325 CURVE",
"234 325 LINE",
"252 370 OFFCURVE",
"298 395 OFFCURVE",
"350 395 CURVE SMOOTH"
);
}
);
width = 614;
}
);
leftKerningGroup = o;
rightKerningGroup = e;
unicode = 0065;
},
{
color = 6;
glyphname = ecaron;
layers = (
{
background = {
paths = (
{
closed = 1;
nodes = (
"209 215 LINE",
"210 203 LINE",
"213 192 LINE",
"218 174 LINE",
"241 146 LINE",
"278 130 LINE",
"304 130 LINE",
"324 130 LINE",
"356 138 LINE",
"386 152 LINE",
"413 171 LINE",
"426 183 LINE",
"533 89 LINE",
"484 36 LINE",
"355 -13 LINE",
"281 -13 LINE",
"233 -13 LINE",
"149 18 LINE",
"86 76 LINE",
"50 159 LINE",
"50 211 LINE",
"50 281 LINE",
"100 395 LINE",
"185 477 LINE",
"297 521 LINE",
"359 521 LINE",
"408 521 LINE",
"491 486 LINE",
"551 428 LINE",
"585 352 LINE",
"585 311 LINE",
"585 301 LINE",
"583 277 LINE",
"579 251 LINE",
"573 226 LINE",
"570 215 LINE"
);
},
{
closed = 1;
nodes = (
"230 332 LINE",
"228 329 LINE",
"227 325 LINE",
"438 325 LINE",
"437 338 LINE",
"422 363 LINE",
"397 383 LINE",
"363 395 LINE",
"343 395 LINE",
"318 395 LINE",
"274 380 LINE",
"240 353 LINE"
);
},
{
closed = 1;
nodes = (
"598 734 LINE",
"424 575 LINE",
"307 575 LINE",
"211 734 LINE",
"332 734 LINE",
"379 657 LINE",
"463 734 LINE"
);
},
{
closed = 1;
nodes = (
"0 760 LINE",
"575 760 LINE",
"575 0 LINE",
"0 0 LINE"
);
}
);
};
components = (
{
name = e;
},
{
name = caroncomb;
transform = "{1, 0, 0, 1, 33, 0}";
}
);
layerId = "8956C7A5-95B5-4256-B2D2-E489185594C4";
width = 614;
},
{
background = {
paths = (
{
closed = 1;
nodes = (
"209 215 LINE",
"210 203 LINE",
"213 192 LINE",
"218 174 LINE",
"241 146 LINE",
"278 130 LINE",
"304 130 LINE",
"324 130 LINE",
"356 138 LINE",
"386 152 LINE",
"413 171 LINE",
"426 183 LINE",
"533 89 LINE",
"484 36 LINE",
"355 -13 LINE",
"281 -13 LINE",
"233 -13 LINE",
"149 18 LINE",
"86 76 LINE",
"50 159 LINE",
"50 211 LINE",
"50 281 LINE",
"100 395 LINE",
"185 477 LINE",
"297 521 LINE",
"359 521 LINE",
"408 521 LINE",
"491 486 LINE",
"551 428 LINE",
"585 352 LINE",
"585 311 LINE",
"585 301 LINE",
"583 277 LINE",
"579 251 LINE",
"573 226 LINE",
"570 215 LINE"
);
},
{
closed = 1;
nodes = (
"230 332 LINE",
"228 329 LINE",
"227 325 LINE",
"438 325 LINE",
"437 338 LINE",
"422 363 LINE",
"397 383 LINE",
"363 395 LINE",
"343 395 LINE",
"318 395 LINE",
"274 380 LINE",
"240 353 LINE"
);
},
{
closed = 1;
nodes = (
"598 734 LINE",
"424 575 LINE",
"307 575 LINE",
"211 734 LINE",
"332 734 LINE",
"379 657 LINE",
"463 734 LINE"
);
},
{
closed = 1;
nodes = (
"0 760 LINE",
"575 760 LINE",
"575 0 LINE",
"0 0 LINE"
);
}
);
};
components = (
{
name = e;
},
{
name = caroncomb;
transform = "{1, 0, 0, 1, 114, 0}";
}
);
layerId = "EEC59083-BA83-4EFB-8B50-D01213A5FD15";
width = 571;
}
);
leftKerningGroup = o;
rightKerningGroup = e;
unicode = 011B;
},
{
color = 6;
glyphname = edotaccent;
layers = (
{
background = {
paths = (
{
closed = 1;
nodes = (
"209 215 LINE",
"210 203 LINE",
"213 192 LINE",
"218 174 LINE",
"241 146 LINE",
"278 130 LINE",
"304 130 LINE",
"324 130 LINE",
"356 138 LINE",
"386 152 LINE",
"413 171 LINE",
"426 183 LINE",
"533 89 LINE",
"484 36 LINE",
"355 -13 LINE",
"281 -13 LINE",
"233 -13 LINE",
"149 18 LINE",
"86 76 LINE",
"50 159 LINE",
"50 211 LINE",
"50 281 LINE",
"100 395 LINE",
"185 477 LINE",
"297 521 LINE",
"359 521 LINE",
"408 521 LINE",
"491 486 LINE",
"551 428 LINE",
"585 352 LINE",
"585 311 LINE",
"585 301 LINE",
"583 277 LINE",
"579 251 LINE",
"573 226 LINE",
"570 215 LINE"
);
},
{
closed = 1;
nodes = (
"230 332 LINE",
"228 329 LINE",
"227 325 LINE",
"438 325 LINE",
"437 338 LINE",
"422 363 LINE",
"397 383 LINE",
"363 395 LINE",
"343 395 LINE",
"318 395 LINE",
"274 380 LINE",
"240 353 LINE"
);
},
{
closed = 1;
nodes = (
"272 669 LINE",
"272 687 LINE",
"285 719 LINE",
"309 742 LINE",
"340 756 LINE",
"359 756 LINE",
"376 756 LINE",
"408 742 LINE",
"431 719 LINE",
"445 687 LINE",
"445 669 LINE",
"445 651 LINE",
"431 619 LINE",
"408 596 LINE",
"376 582 LINE",
"359 582 LINE",
"340 582 LINE",
"309 596 LINE",
"285 619 LINE",
"272 651 LINE"
);
},
{
closed = 1;
nodes = (
"0 760 LINE",
"575 760 LINE",
"575 0 LINE",
"0 0 LINE"
);
}
);
};
components = (
{
name = e;
},
{
name = dotaccent;
transform = "{1, 0, 0, 1, 317, 0}";
}
);
layerId = "8956C7A5-95B5-4256-B2D2-E489185594C4";
width = 614;
},
{
background = {
paths = (
{
closed = 1;
nodes = (
"209 215 LINE",
"210 203 LINE",
"213 192 LINE",
"218 174 LINE",
"241 146 LINE",
"278 130 LINE",
"304 130 LINE",
"324 130 LINE",
"356 138 LINE",
"386 152 LINE",
"413 171 LINE",
"426 183 LINE",
"533 89 LINE",
"484 36 LINE",
"355 -13 LINE",
"281 -13 LINE",
"233 -13 LINE",
"149 18 LINE",
"86 76 LINE",
"50 159 LINE",
"50 211 LINE",
"50 281 LINE",
"100 395 LINE",
"185 477 LINE",
"297 521 LINE",
"359 521 LINE",
"408 521 LINE",
"491 486 LINE",
"551 428 LINE",
"585 352 LINE",
"585 311 LINE",
"585 301 LINE",
"583 277 LINE",
"579 251 LINE",
"573 226 LINE",
"570 215 LINE"
);
},
{
closed = 1;
nodes = (
"230 332 LINE",
"228 329 LINE",
"227 325 LINE",
"438 325 LINE",
"437 338 LINE",
"422 363 LINE",
"397 383 LINE",
"363 395 LINE",
"343 395 LINE",
"318 395 LINE",
"274 380 LINE",
"240 353 LINE"
);
},
{
closed = 1;
nodes = (
"272 669 LINE",
"272 687 LINE",
"285 719 LINE",
"309 742 LINE",
"340 756 LINE",
"359 756 LINE",
"376 756 LINE",
"408 742 LINE",
"431 719 LINE",
"445 687 LINE",
"445 669 LINE",
"445 651 LINE",
"431 619 LINE",
"408 596 LINE",
"376 582 LINE",
"359 582 LINE",
"340 582 LINE",
"309 596 LINE",
"285 619 LINE",
"272 651 LINE"
);
},
{
closed = 1;
nodes = (
"0 760 LINE",
"575 760 LINE",
"575 0 LINE",
"0 0 LINE"
);
}
);
};
components = (
{
name = e;
},
{
name = dotaccent;
transform = "{1, 0, 0, 1, 348, 0}";
}
);
layerId = "EEC59083-BA83-4EFB-8B50-D01213A5FD15";
width = 571;
}
);
leftKerningGroup = o;
rightKerningGroup = e;
unicode = 0117;
},
{
color = 6;
glyphname = emacron;
layers = (
{
background = {
paths = (
{
closed = 1;
nodes = (
"209 215 LINE",
"210 203 LINE",
"213 192 LINE",
"218 174 LINE",
"241 146 LINE",
"278 130 LINE",
"304 130 LINE",
"324 130 LINE",
"356 138 LINE",
"386 152 LINE",
"413 171 LINE",
"426 183 LINE",
"533 89 LINE",
"484 36 LINE",
"355 -13 LINE",
"281 -13 LINE",
"233 -13 LINE",
"149 18 LINE",
"86 76 LINE",
"50 159 LINE",
"50 211 LINE",
"50 281 LINE",
"100 395 LINE",
"185 477 LINE",
"297 521 LINE",
"359 521 LINE",
"408 521 LINE",
"491 486 LINE",
"551 428 LINE",
"585 352 LINE",
"585 311 LINE",
"585 301 LINE",
"583 277 LINE",
"579 251 LINE",
"573 226 LINE",
"570 215 LINE"
);
},
{
closed = 1;
nodes = (
"230 332 LINE",
"228 329 LINE",
"227 325 LINE",
"438 325 LINE",
"437 338 LINE",
"422 363 LINE",
"397 383 LINE",
"363 395 LINE",
"343 395 LINE",
"318 395 LINE",
"274 380 LINE",
"240 353 LINE"
);
},
{
closed = 1;
nodes = (
"531 574 LINE",
"195 574 LINE",
"195 679 LINE",
"531 679 LINE"
);
},
{
closed = 1;
nodes = (
"0 760 LINE",
"575 760 LINE",
"575 0 LINE",
"0 0 LINE"
);
}
);
};
components = (
{
name = e;
},
{
name = macroncomb;
transform = "{1, 0, 0, 1, 86, 0}";
}
);
layerId = "8956C7A5-95B5-4256-B2D2-E489185594C4";
width = 614;
},
{
background = {
paths = (
{
closed = 1;
nodes = (
"209 215 LINE",
"210 203 LINE",
"213 192 LINE",
"218 174 LINE",
"241 146 LINE",
"278 130 LINE",
"304 130 LINE",
"324 130 LINE",
"356 138 LINE",
"386 152 LINE",
"413 171 LINE",
"426 183 LINE",
"533 89 LINE",
"484 36 LINE",
"355 -13 LINE",
"281 -13 LINE",
"233 -13 LINE",
"149 18 LINE",
"86 76 LINE",
"50 159 LINE",
"50 211 LINE",
"50 281 LINE",
"100 395 LINE",
"185 477 LINE",
"297 521 LINE",
"359 521 LINE",
"408 521 LINE",
"491 486 LINE",
"551 428 LINE",
"585 352 LINE",
"585 311 LINE",
"585 301 LINE",
"583 277 LINE",
"579 251 LINE",
"573 226 LINE",
"570 215 LINE"
);
},
{
closed = 1;
nodes = (
"230 332 LINE",
"228 329 LINE",
"227 325 LINE",
"438 325 LINE",
"437 338 LINE",
"422 363 LINE",
"397 383 LINE",
"363 395 LINE",
"343 395 LINE",
"318 395 LINE",
"274 380 LINE",
"240 353 LINE"
);
},
{
closed = 1;
nodes = (
"531 574 LINE",
"195 574 LINE",
"195 679 LINE",
"531 679 LINE"
);
},
{
closed = 1;
nodes = (
"0 760 LINE",
"575 760 LINE",
"575 0 LINE",
"0 0 LINE"
);
}
);
};
components = (
{
name = e;
},
{
name = macroncomb;
transform = "{1, 0, 0, 1, 66, 0}";
}
);
layerId = "EEC59083-BA83-4EFB-8B50-D01213A5FD15";
width = 571;
}
);
leftKerningGroup = o;
rightKerningGroup = e;
unicode = 0113;
},
{
color = 6;
glyphname = eogonek;
layers = (
{
background = {
paths = (
{
closed = 1;
nodes = (
"157 -127 LINE",
"157 -89 LINE",
"193 -28 LINE",
"220 -6 LINE",
"183 2 LINE",
"121 39 LINE",
"75 95 LINE",
"49 167 LINE",
"49 211 LINE",
"49 281 LINE",
"99 395 LINE",
"184 476 LINE",
"296 521 LINE",
"358 521 LINE",
"407 521 LINE",
"490 486 LINE",
"550 428 LINE",
"584 352 LINE",
"584 311 LINE",
"584 291 LINE",
"576 236 LINE",
"569 215 LINE",
"208 215 LINE",
"209 203 LINE",
"215 182 LINE",
"220 172 LINE",
"225 163 LINE",
"241 147 LINE",
"261 136 LINE",
"287 130 LINE",
"303 130 LINE",
"342 130 LINE",
"398 160 LINE",
"425 183 LINE",
"452 160 LINE",
"505 112 LINE",
"532 89 LINE",
"478 31 LINE",
"402 6 LINE",
"377 -4 LINE",
"330 -29 LINE",
"294 -57 LINE",
"272 -89 LINE",
"272 -105 LINE",
"272 -124 LINE",
"296 -138 LINE",
"307 -138 LINE",
"326 -138 LINE",
"352 -132 LINE",
"362 -127 LINE",
"368 -148 LINE",
"380 -189 LINE",
"386 -210 LINE",
"375 -216 LINE",
"325 -230 LINE",
"299 -230 LINE",
"269 -230 LINE",
"218 -216 LINE",
"179 -190 LINE",
"157 -152 LINE"
);
},
{
closed = 1;
nodes = (
"342 395 LINE",
"303 395 LINE",
"239 359 LINE",
"225 325 LINE",
"437 325 LINE",
"436 338 LINE",
"421 363 LINE",
"396 383 LINE",
"362 395 LINE"
);
},
{
closed = 1;
nodes = (
"-1 760 LINE",
"574 760 LINE",
"574 0 LINE",
"-1 0 LINE"
);
}
);
};
layerId = "8956C7A5-95B5-4256-B2D2-E489185594C4";
paths = (
{
closed = 1;
nodes = (
"343 47 LINE",
"269 31 OFFCURVE",
"165 -27 OFFCURVE",
"165 -127 CURVE SMOOTH",
"165 -193 OFFCURVE",
"228 -230 OFFCURVE",
"307 -230 CURVE SMOOTH",
"342 -230 OFFCURVE",
"380 -218 OFFCURVE",
"394 -210 CURVE",
"370 -127 LINE",
"357 -133 OFFCURVE",
"340 -138 OFFCURVE",
"315 -138 CURVE SMOOTH",
"301 -138 OFFCURVE",
"280 -130 OFFCURVE",
"280 -105 CURVE SMOOTH",
"280 -61 OFFCURVE",
"343 -20 OFFCURVE",
"410 6 CURVE"
);
},
{
closed = 1;
nodes = (
"119 215 LINE",
"577 215 LINE",
"586 243 OFFCURVE",
"592 285 OFFCURVE",
"592 311 CURVE SMOOTH",
"592 421 OFFCURVE",
"497 521 OFFCURVE",
"366 521 CURVE SMOOTH",
"201 521 OFFCURVE",
"57 397 OFFCURVE",
"57 211 CURVE SMOOTH",
"57 73 OFFCURVE",
"161 -13 OFFCURVE",
"288 -13 CURVE SMOOTH",
"386 -13 OFFCURVE",
"475 19 OFFCURVE",
"540 89 CURVE",
"433 183 LINE",
"397 152 OFFCURVE",
"363 130 OFFCURVE",
"311 130 CURVE SMOOTH",
"241 130 OFFCURVE",
"213 176 OFFCURVE",
"216 232 CURVE SMOOTH",
"216 241 OFFCURVE",
"226 284 OFFCURVE",
"226 286 CURVE SMOOTH",
"227 355 OFFCURVE",
"285 395 OFFCURVE",
"350 395 CURVE SMOOTH",
"404 395 OFFCURVE",
"442 360 OFFCURVE",
"445 325 CURVE",
"145 325 LINE"
);
}
);
width = 614;
},
{
background = {
paths = (
{
closed = 1;
nodes = (
"158 -127 LINE",
"158 -89 LINE",
"194 -28 LINE",
"221 -6 LINE",
"184 2 LINE",
"122 39 LINE",
"76 95 LINE",
"50 167 LINE",
"50 211 LINE",
"50 281 LINE",
"100 395 LINE",
"185 476 LINE",
"297 521 LINE",
"359 521 LINE",
"408 521 LINE",
"491 486 LINE",
"551 428 LINE",
"585 352 LINE",
"585 311 LINE",
"585 291 LINE",
"577 236 LINE",
"570 215 LINE",
"209 215 LINE",
"210 203 LINE",
"216 182 LINE",
"221 172 LINE",
"226 163 LINE",
"242 147 LINE",
"262 136 LINE",
"288 130 LINE",
"304 130 LINE",
"343 130 LINE",
"399 160 LINE",
"426 183 LINE",
"453 160 LINE",
"506 112 LINE",
"533 89 LINE",
"479 31 LINE",
"403 6 LINE",
"378 -4 LINE",
"331 -29 LINE",
"295 -57 LINE",
"273 -89 LINE",
"273 -105 LINE",
"273 -124 LINE",
"297 -138 LINE",
"308 -138 LINE",
"327 -138 LINE",
"353 -132 LINE",
"363 -127 LINE",
"369 -148 LINE",
"381 -189 LINE",
"387 -210 LINE",
"376 -216 LINE",
"326 -230 LINE",
"300 -230 LINE",
"270 -230 LINE",
"219 -216 LINE",
"180 -190 LINE",
"158 -152 LINE"
);
},
{
closed = 1;
nodes = (
"343 395 LINE",
"304 395 LINE",
"240 359 LINE",
"226 325 LINE",
"438 325 LINE",
"437 338 LINE",
"422 363 LINE",
"397 383 LINE",
"363 395 LINE"
);
},
{
closed = 1;
nodes = (
"0 760 LINE",
"575 760 LINE",
"575 0 LINE",
"0 0 LINE"
);
}
);
};
layerId = "EEC59083-BA83-4EFB-8B50-D01213A5FD15";
paths = (
{
closed = 1;
nodes = (
"358 47 LINE",
"301 32 OFFCURVE",
"185 -27 OFFCURVE",
"185 -127 CURVE SMOOTH",
"185 -193 OFFCURVE",
"243 -230 OFFCURVE",
"322 -230 CURVE SMOOTH",
"359 -230 OFFCURVE",
"392 -219 OFFCURVE",
"409 -209 CURVE",
"388 -147 LINE",
"375 -153 OFFCURVE",
"350 -158 OFFCURVE",
"325 -158 CURVE SMOOTH",
"292 -158 OFFCURVE",
"270 -137 OFFCURVE",
"270 -110 CURVE SMOOTH",
"270 -61 OFFCURVE",
"318 -28 OFFCURVE",
"404 11 CURVE"
);
},
{
closed = 1;
nodes = (
"108 236 LINE",
"545 236 LINE",
"550 262 OFFCURVE",
"554 294 OFFCURVE",
"554 327 CURVE SMOOTH",
"554 427 OFFCURVE",
"479 521 OFFCURVE",
"350 521 CURVE SMOOTH",
"183 521 OFFCURVE",
"57 385 OFFCURVE",
"57 217 CURVE SMOOTH",
"57 71 OFFCURVE",
"156 -15 OFFCURVE",
"281 -15 CURVE SMOOTH",
"369 -15 OFFCURVE",
"451 22 OFFCURVE",
"495 80 CURVE",
"423 133 LINE",
"391 93 OFFCURVE",
"341 71 OFFCURVE",
"289 71 CURVE SMOOTH",
"211 71 OFFCURVE",
"155 133 OFFCURVE",
"155 215 CURVE SMOOTH",
"155 223 OFFCURVE",
"156 231 OFFCURVE",
"157 246 CURVE SMOOTH",
"163 348 OFFCURVE",
"236 438 OFFCURVE",
"337 438 CURVE SMOOTH",
"411 438 OFFCURVE",
"462 396 OFFCURVE",
"460 315 CURVE",
"124 315 LINE"
);
}
);
width = 571;
}
);
leftKerningGroup = o;
rightKerningGroup = e;
unicode = 0119;
},
{
glyphname = f;
layers = (
{
anchors = (
{
name = top;
position = "{340, 760}";
}
);
layerId = "EEC59083-BA83-4EFB-8B50-D01213A5FD15";
paths = (
{
closed = 1;
nodes = (
"68 422 LINE",
"172 422 LINE",
"23 -230 LINE",
"122 -230 LINE",
"271 422 LINE",
"408 422 LINE",
"428 506 LINE",
"290 506 LINE",
"310 590 LINE SMOOTH",
"326 660 OFFCURVE",
"364 686 OFFCURVE",
"416 686 CURVE SMOOTH",
"450 686 OFFCURVE",
"482 676 OFFCURVE",
"499 665 CURVE",
"549 740 LINE",
"526 753 OFFCURVE",
"482 770 OFFCURVE",
"420 770 CURVE SMOOTH",
"317 770 OFFCURVE",
"241 720 OFFCURVE",
"212 595 CURVE",
"191 506 LINE",
"88 506 LINE"
);
}
);
width = 395;
},
{
anchors = (
{
name = top;
position = "{360, 760}";
}
);
layerId = "8956C7A5-95B5-4256-B2D2-E489185594C4";
paths = (
{
closed = 1;
nodes = (
"64 363 LINE",
"162 363 LINE",
"23 -230 LINE",
"188 -230 LINE",
"326 363 LINE",
"435 363 LINE",
"468 506 LINE",
"360 506 LINE",
"375 571 LINE SMOOTH",
"384 609 OFFCURVE",
"413 629 OFFCURVE",
"442 629 CURVE SMOOTH",
"467 629 OFFCURVE",
"478 623 OFFCURVE",
"489 612 CURVE",
"579 725 LINE",
"568 743 OFFCURVE",
"520 771 OFFCURVE",
"445 771 CURVE SMOOTH",
"335 771 OFFCURVE",
"244 716 OFFCURVE",
"215 589 CURVE",
"196 506 LINE",
"97 506 LINE"
);
}
);
width = 543;
}
);
leftKerningGroup = f;
rightKerningGroup = f;
unicode = 0066;
},
{
glyphname = g;
layers = (
{
anchors = (
{
name = bottom;
position = "{261, -230}";
},
{
name = top;
position = "{422, 506}";
}
);
layerId = "EEC59083-BA83-4EFB-8B50-D01213A5FD15";
paths = (
{
closed = 1;
nodes = (
"452 22 LINE",
"422 -109 OFFCURVE",
"363 -144 OFFCURVE",
"269 -144 CURVE SMOOTH",
"208 -144 OFFCURVE",
"148 -119 OFFCURVE",
"117 -86 CURVE",
"54 -157 LINE",
"103 -207 OFFCURVE",
"189 -230 OFFCURVE",
"261 -230 CURVE SMOOTH",
"418 -230 OFFCURVE",
"508 -163 OFFCURVE",
"547 6 CURVE SMOOTH",
"663 506 LINE",
"564 506 LINE",
"557 479 LINE",
"530 503 OFFCURVE",
"485 519 OFFCURVE",
"436 519 CURVE SMOOTH",
"265 519 OFFCURVE",
"123 387 OFFCURVE",
"123 198 CURVE SMOOTH",
"123 82 OFFCURVE",
"210 -9 OFFCURVE",
"321 -9 CURVE SMOOTH",
"371 -9 OFFCURVE",
"413 3 OFFCURVE",
"454 31 CURVE"
);
},
{
closed = 1;
nodes = (
"273 75 OFFCURVE",
"224 125 OFFCURVE",
"224 208 CURVE SMOOTH",
"224 351 OFFCURVE",
"329 435 OFFCURVE",
"429 435 CURVE SMOOTH",
"486 435 OFFCURVE",
"522 417 OFFCURVE",
"538 396 CURVE",
"476 125 LINE",
"438 94 OFFCURVE",
"393 75 OFFCURVE",
"344 75 CURVE SMOOTH"
);
}
);
width = 609;
},
{
anchors = (
{
name = bottom;
position = "{283, -230}";
},
{
name = top;
position = "{410, 506}";
}
);
layerId = "8956C7A5-95B5-4256-B2D2-E489185594C4";
paths = (
{
closed = 1;
nodes = (
"440 24 LINE",
"419 -65 OFFCURVE",
"356 -85 OFFCURVE",
"290 -85 CURVE SMOOTH",
"231 -85 OFFCURVE",
"179 -64 OFFCURVE",
"140 -36 CURVE",
"54 -165 LINE",
"104 -204 OFFCURVE",
"180 -230 OFFCURVE",
"283 -230 CURVE SMOOTH",
"440 -230 OFFCURVE",
"559 -178 OFFCURVE",
"605 21 CURVE SMOOTH",
"720 518 LINE",
"554 518 LINE",
"546 483 LINE",
"522 501 OFFCURVE",
"472 518 OFFCURVE",
"424 518 CURVE SMOOTH",
"247 518 OFFCURVE",
"110 388 OFFCURVE",
"110 214 CURVE SMOOTH",
"110 73 OFFCURVE",
"218 0 OFFCURVE",
"321 0 CURVE SMOOTH",
"373 0 OFFCURVE",
"418 17 OFFCURVE",
"443 39 CURVE"
);
},
{
closed = 1;
nodes = (
"320 146 OFFCURVE",
"278 178 OFFCURVE",
"278 240 CURVE SMOOTH",
"278 314 OFFCURVE",
"339 373 OFFCURVE",
"409 373 CURVE SMOOTH",
"449 373 OFFCURVE",
"491 355 OFFCURVE",
"509 322 CURVE",
"482 208 LINE",
"455 166 OFFCURVE",
"411 146 OFFCURVE",
"370 146 CURVE SMOOTH"
);
}
);
width = 796;
}
);
leftKerningGroup = o;
rightKerningGroup = g;
unicode = 0067;
},
{
color = 6;
glyphname = gbreve;
layers = (
{
background = {
paths = (
{
closed = 1;
nodes = (
"379 39 LINE",
"361 23 LINE",
"330 12 LINE",
"297 0 LINE",
"257 0 LINE",
"218 0 LINE",
"143 27 LINE",
"83 81 LINE",
"46 161 LINE",
"46 214 LINE",
"46 279 LINE",
"94 391 LINE",
"179 472 LINE",
"293 518 LINE",
"360 518 LINE",
"379 518 LINE",
"417 512 LINE",
"450 501 LINE",
"482 483 LINE",
"490 518 LINE",
"656 518 LINE",
"541 21 LINE",
"524 -54 LINE",
"463 -151 LINE",
"380 -208 LINE",
"278 -230 LINE",
"219 -230 LINE",
"142 -230 LINE",
"28 -194 LINE",
"-10 -165 LINE",
"76 -36 LINE",
"105 -57 LINE",
"182 -85 LINE",
"226 -85 LINE",
"251 -85 LINE",
"298 -76 LINE",
"338 -52 LINE",
"368 -9 LINE",
"376 24 LINE"
);
},
{
closed = 1;
nodes = (
"399 185 LINE",
"410 195 LINE",
"418 208 LINE",
"445 322 LINE",
"428 348 LINE",
"396 365 LINE",
"363 373 LINE",
"345 373 LINE",
"319 373 LINE",
"271 352 LINE",
"235 316 LINE",
"214 268 LINE",
"214 240 LINE",
"214 217 LINE",
"229 182 LINE",
"254 158 LINE",
"287 146 LINE",
"306 146 LINE",
"322 146 LINE",
"355 154 LINE",
"386 171 LINE"
);
},
{
closed = 1;
nodes = (
"357 565 LINE",
"311 565 LINE",
"240 586 LINE",
"188 626 LINE",
"153 685 LINE",
"141 723 LINE",
"264 723 LINE",
"274 694 LINE",
"320 663 LINE",
"357 663 LINE",
"392 663 LINE",
"437 691 LINE",
"449 723 LINE",
"571 723 LINE",
"561 686 LINE",
"525 627 LINE",
"473 586 LINE",
"403 565 LINE"
);
},
{
closed = 1;
nodes = (
"0 760 LINE",
"636 760 LINE",
"636 0 LINE",
"0 0 LINE"
);
}
);
};
components = (
{
name = g;
},
{
name = brevecomb;
transform = "{1, 0, 0, 1, 68, 0}";
}
);
layerId = "8956C7A5-95B5-4256-B2D2-E489185594C4";
width = 796;
},
{
background = {
paths = (
{
closed = 1;
nodes = (
"379 39 LINE",
"361 23 LINE",
"330 12 LINE",
"297 0 LINE",
"257 0 LINE",
"218 0 LINE",
"143 27 LINE",
"83 81 LINE",
"46 161 LINE",
"46 214 LINE",
"46 279 LINE",
"94 391 LINE",
"179 472 LINE",
"293 518 LINE",
"360 518 LINE",
"379 518 LINE",
"417 512 LINE",
"450 501 LINE",
"482 483 LINE",
"490 518 LINE",
"656 518 LINE",
"541 21 LINE",
"524 -54 LINE",
"463 -151 LINE",
"380 -208 LINE",
"278 -230 LINE",
"219 -230 LINE",
"142 -230 LINE",
"28 -194 LINE",
"-10 -165 LINE",
"76 -36 LINE",
"105 -57 LINE",
"182 -85 LINE",
"226 -85 LINE",
"251 -85 LINE",
"298 -76 LINE",
"338 -52 LINE",
"368 -9 LINE",
"376 24 LINE"
);
},
{
closed = 1;
nodes = (
"399 185 LINE",
"410 195 LINE",
"418 208 LINE",
"445 322 LINE",
"428 348 LINE",
"396 365 LINE",
"363 373 LINE",
"345 373 LINE",
"319 373 LINE",
"271 352 LINE",
"235 316 LINE",
"214 268 LINE",
"214 240 LINE",
"214 217 LINE",
"229 182 LINE",
"254 158 LINE",
"287 146 LINE",
"306 146 LINE",
"322 146 LINE",
"355 154 LINE",
"386 171 LINE"
);
},
{
closed = 1;
nodes = (
"357 565 LINE",
"311 565 LINE",
"240 586 LINE",
"188 626 LINE",
"153 685 LINE",
"141 723 LINE",
"264 723 LINE",
"274 694 LINE",
"320 663 LINE",
"357 663 LINE",
"392 663 LINE",
"437 691 LINE",
"449 723 LINE",
"571 723 LINE",
"561 686 LINE",
"525 627 LINE",
"473 586 LINE",
"403 565 LINE"
);
},
{
closed = 1;
nodes = (
"0 760 LINE",
"636 760 LINE",
"636 0 LINE",
"0 0 LINE"
);
}
);
};
components = (
{
name = g;
},
{
name = brevecomb;
transform = "{1, 0, 0, 1, 83, 0}";
}
);
layerId = "EEC59083-BA83-4EFB-8B50-D01213A5FD15";
width = 609;
}
);
leftKerningGroup = o;
rightKerningGroup = g;
unicode = 011F;
},
{
color = 6;
glyphname = gcommaaccent;
layers = (
{
background = {
paths = (
{
closed = 1;
nodes = (
"379 39 LINE",
"361 23 LINE",
"330 12 LINE",
"297 0 LINE",
"257 0 LINE",
"218 0 LINE",
"143 27 LINE",
"83 81 LINE",
"46 161 LINE",
"46 214 LINE",
"46 279 LINE",
"94 391 LINE",
"179 472 LINE",
"293 518 LINE",
"360 518 LINE",
"379 518 LINE",
"417 512 LINE",
"450 501 LINE",
"482 483 LINE",
"490 518 LINE",
"656 518 LINE",
"541 21 LINE",
"524 -54 LINE",
"463 -151 LINE",
"380 -208 LINE",
"278 -230 LINE",
"219 -230 LINE",
"142 -230 LINE",
"28 -194 LINE",
"-10 -165 LINE",
"76 -36 LINE",
"105 -57 LINE",
"182 -85 LINE",
"226 -85 LINE",
"251 -85 LINE",
"298 -76 LINE",
"338 -52 LINE",
"368 -9 LINE",
"376 24 LINE"
);
},
{
closed = 1;
nodes = (
"399 185 LINE",
"410 195 LINE",
"418 208 LINE",
"445 322 LINE",
"428 348 LINE",
"396 365 LINE",
"363 373 LINE",
"345 373 LINE",
"319 373 LINE",
"271 352 LINE",
"235 316 LINE",
"214 268 LINE",
"214 240 LINE",
"214 217 LINE",
"229 182 LINE",
"254 158 LINE",
"287 146 LINE",
"306 146 LINE",
"322 146 LINE",
"355 154 LINE",
"386 171 LINE"
);
},
{
closed = 1;
nodes = (
"430 543 LINE",
"289 594 LINE",
"385 759 LINE",
"486 724 LINE"
);
},
{
closed = 1;
nodes = (
"0 760 LINE",
"636 760 LINE",
"636 0 LINE",
"0 0 LINE"
);
}
);
};
components = (
{
name = g;
},
{
name = commaaccentcomb;
transform = "{1, 0, 0, 1, 252, -230}";
}
);
layerId = "8956C7A5-95B5-4256-B2D2-E489185594C4";
width = 796;
},
{
background = {
paths = (
{
closed = 1;
nodes = (
"379 39 LINE",
"361 23 LINE",
"330 12 LINE",
"297 0 LINE",
"257 0 LINE",
"218 0 LINE",
"143 27 LINE",
"83 81 LINE",
"46 161 LINE",
"46 214 LINE",
"46 279 LINE",
"94 391 LINE",
"179 472 LINE",
"293 518 LINE",
"360 518 LINE",
"379 518 LINE",
"417 512 LINE",
"450 501 LINE",
"482 483 LINE",
"490 518 LINE",
"656 518 LINE",
"541 21 LINE",
"524 -54 LINE",
"463 -151 LINE",
"380 -208 LINE",
"278 -230 LINE",
"219 -230 LINE",
"142 -230 LINE",
"28 -194 LINE",
"-10 -165 LINE",
"76 -36 LINE",
"105 -57 LINE",
"182 -85 LINE",
"226 -85 LINE",
"251 -85 LINE",
"298 -76 LINE",
"338 -52 LINE",
"368 -9 LINE",
"376 24 LINE"
);
},
{
closed = 1;
nodes = (
"399 185 LINE",
"410 195 LINE",
"418 208 LINE",
"445 322 LINE",
"428 348 LINE",
"396 365 LINE",
"363 373 LINE",
"345 373 LINE",
"319 373 LINE",
"271 352 LINE",
"235 316 LINE",
"214 268 LINE",
"214 240 LINE",
"214 217 LINE",
"229 182 LINE",
"254 158 LINE",
"287 146 LINE",
"306 146 LINE",
"322 146 LINE",
"355 154 LINE",
"386 171 LINE"
);
},
{
closed = 1;
nodes = (
"430 543 LINE",
"289 594 LINE",
"385 759 LINE",
"486 724 LINE"
);
},
{
closed = 1;
nodes = (
"0 760 LINE",
"636 760 LINE",
"636 0 LINE",
"0 0 LINE"
);
}
);
};
components = (
{
name = g;
},
{
name = commaaccentcomb;
transform = "{1, 0, 0, 1, 228, -230}";
}
);
layerId = "EEC59083-BA83-4EFB-8B50-D01213A5FD15";
width = 609;
}
);
leftKerningGroup = o;
rightKerningGroup = g;
unicode = 0123;
},
{
glyphname = h;
layers = (
{
anchors = (
{
name = top;
position = "{214, 740}";
}
);
layerId = "EEC59083-BA83-4EFB-8B50-D01213A5FD15";
paths = (
{
closed = 1;
nodes = (
"344 0 LINE",
"515 0 LINE",
"534 84 LINE",
"462 84 LINE",
"518 325 LINE SMOOTH",
"547 452 OFFCURVE",
"478 515 OFFCURVE",
"374 515 CURVE SMOOTH",
"317 515 OFFCURVE",
"262 491 OFFCURVE",
"214 455 CURVE",
"285 760 LINE",
"89 760 LINE",
"69 676 LINE",
"166 676 LINE",
"11 0 LINE",
"110 0 LINE",
"197 377 LINE",
"239 408 OFFCURVE",
"288 429 OFFCURVE",
"332 429 CURVE SMOOTH",
"403 429 OFFCURVE",
"435 389 OFFCURVE",
"417 313 CURVE"
);
}
);
width = 638;
},
{
anchors = (
{
name = top;
position = "{249, 740}";
}
);
layerId = "8956C7A5-95B5-4256-B2D2-E489185594C4";
paths = (
{
closed = 1;
nodes = (
"334 0 LINE",
"594 0 LINE",
"625 134 LINE",
"532 134 LINE",
"573 312 LINE SMOOTH",
"603 442 OFFCURVE",
"544 521 OFFCURVE",
"430 521 CURVE SMOOTH",
"377 521 OFFCURVE",
"328 499 OFFCURVE",
"285 465 CURVE",
"353 760 LINE",
"91 760 LINE",
"60 626 LINE",
"155 626 LINE",
"11 0 LINE",
"178 0 LINE",
"249 310 LINE",
"290 340 OFFCURVE",
"326 355 OFFCURVE",
"351 355 CURVE SMOOTH",
"387 355 OFFCURVE",
"408 322 OFFCURVE",
"397 272 CURVE"
);
}
);
width = 650;
}
);
leftKerningGroup = l;
rightKerningGroup = n;
unicode = 0068;
},
{
glyphname = idotless;
layers = (
{
anchors = (
{
name = top;
position = "{238, 506}";
}
);
layerId = "EEC59083-BA83-4EFB-8B50-D01213A5FD15";
paths = (
{
closed = 1;
nodes = (
"79 422 LINE",
"169 422 LINE",
"72 0 LINE",
"252 0 LINE",
"271 84 LINE",
"190 84 LINE",
"288 506 LINE",
"99 506 LINE"
);
}
);
width = 319;
},
{
anchors = (
{
name = top;
position = "{258, 506}";
}
);
layerId = "8956C7A5-95B5-4256-B2D2-E489185594C4";
paths = (
{
closed = 1;
nodes = (
"38 372 LINE",
"146 372 LINE",
"60 0 LINE",
"344 0 LINE",
"375 134 LINE",
"258 134 LINE",
"344 506 LINE",
"69 506 LINE"
);
}
);
width = 420;
}
);
leftKerningGroup = n;
rightKerningGroup = u;
unicode = 0131;
},
{
color = 6;
glyphname = idotless;
layers = (
{
anchors = (
{
name = top;
position = "{258, 506}";
}
);
background = {
paths = (
{
closed = 1;
nodes = (
"69 506 LINE",
"344 506 LINE",
"258 134 LINE",
"375 134 LINE",
"344 0 LINE",
"60 0 LINE",
"146 372 LINE",
"38 372 LINE"
);
},
{
closed = 1;
nodes = (
"0 760 LINE",
"420 760 LINE",
"420 0 LINE",
"0 0 LINE"
);
}
);
};
layerId = "8956C7A5-95B5-4256-B2D2-E489185594C4";
paths = (
{
closed = 1;
nodes = (
"144 0 LINE",
"344 0 LINE",
"375 134 LINE",
"175 134 LINE"
);
},
{
closed = 1;
nodes = (
"38 372 LINE",
"288 372 LINE",
"319 506 LINE",
"69 506 LINE"
);
},
{
closed = 1;
nodes = (
"227 0 LINE",
"344 506 LINE",
"177 506 LINE",
"60 0 LINE"
);
}
);
width = 420;
},
{
anchors = (
{
name = top;
position = "{229, 506}";
}
);
background = {
paths = (
{
closed = 1;
nodes = (
"69 506 LINE",
"344 506 LINE",
"258 134 LINE",
"375 134 LINE",
"344 0 LINE",
"60 0 LINE",
"146 372 LINE",
"38 372 LINE"
);
},
{
closed = 1;
nodes = (
"0 760 LINE",
"420 760 LINE",
"420 0 LINE",
"0 0 LINE"
);
}
);
};
layerId = "EEC59083-BA83-4EFB-8B50-D01213A5FD15";
paths = (
{
closed = 1;
nodes = (
"107 0 LINE",
"252 0 LINE",
"271 84 LINE",
"126 84 LINE"
);
},
{
closed = 1;
nodes = (
"79 422 LINE",
"264 422 LINE",
"284 506 LINE",
"99 506 LINE"
);
},
{
closed = 1;
nodes = (
"171 0 LINE",
"288 506 LINE",
"189 506 LINE",
"72 0 LINE"
);
}
);
width = 319;
}
);
leftKerningGroup = n;
rightKerningGroup = u;
unicode = 0131;
},
{
color = 6;
glyphname = imacron;
layers = (
{
background = {
paths = (
{
closed = 1;
nodes = (
"69 506 LINE",
"344 506 LINE",
"258 134 LINE",
"375 134 LINE",
"344 0 LINE",
"60 0 LINE",
"146 372 LINE",
"38 372 LINE"
);
},
{
closed = 1;
nodes = (
"426 574 LINE",
"90 574 LINE",
"90 679 LINE",
"426 679 LINE"
);
},
{
closed = 1;
nodes = (
"0 760 LINE",
"420 760 LINE",
"420 0 LINE",
"0 0 LINE"
);
}
);
};
components = (
{
alignment = -1;
name = idotless;
transform = "{1, 0, 0, 1, -67, 0}";
},
{
alignment = -1;
name = macroncomb.i;
transform = "{1, 0, 0, 1, -5, 0}";
}
);
layerId = "8956C7A5-95B5-4256-B2D2-E489185594C4";
width = 389;
},
{
background = {
paths = (
{
closed = 1;
nodes = (
"69 506 LINE",
"344 506 LINE",
"258 134 LINE",
"375 134 LINE",
"344 0 LINE",
"60 0 LINE",
"146 372 LINE",
"38 372 LINE"
);
},
{
closed = 1;
nodes = (
"426 574 LINE",
"90 574 LINE",
"90 679 LINE",
"426 679 LINE"
);
},
{
closed = 1;
nodes = (
"0 760 LINE",
"420 760 LINE",
"420 0 LINE",
"0 0 LINE"
);
}
);
};
components = (
{
name = idotless;
},
{
name = macroncomb.i;
transform = "{1, 0, 0, 1, 34, 0}";
}
);
layerId = "EEC59083-BA83-4EFB-8B50-D01213A5FD15";
width = 319;
}
);
leftKerningGroup = i;
rightKerningGroup = i;
unicode = 012B;
},
{
color = 6;
glyphname = iogonek;
layers = (
{
background = {
paths = (
{
closed = 1;
nodes = (
"42 506 LINE",
"302 506 LINE",
"216 134 LINE",
"309 134 LINE",
"278 0 LINE",
"212 0 LINE",
"184 -1 LINE",
"124 -19 LINE",
"73 -49 LINE",
"40 -87 LINE",
"40 -106 LINE",
"40 -125 LINE",
"67 -139 LINE",
"78 -139 LINE",
"97 -139 LINE",
"120 -133 LINE",
"130 -128 LINE",
"154 -211 LINE",
"143 -217 LINE",
"93 -231 LINE",
"67 -231 LINE",
"37 -231 LINE",
"-14 -217 LINE",
"-53 -191 LINE",
"-75 -153 LINE",
"-75 -128 LINE",
"-75 -89 LINE",
"-22 -23 LINE",
"18 0 LINE",
"104 372 LINE",
"11 372 LINE"
);
},
{
closed = 1;
nodes = (
"153 669 LINE",
"153 705 LINE",
"203 756 LINE",
"240 756 LINE",
"258 756 LINE",
"289 742 LINE",
"312 719 LINE",
"326 687 LINE",
"326 669 LINE",
"326 651 LINE",
"312 619 LINE",
"289 596 LINE",
"258 582 LINE",
"240 582 LINE",
"203 582 LINE",
"153 633 LINE"
);
},
{
closed = 1;
nodes = (
"-59 760 LINE",
"321 760 LINE",
"321 0 LINE",
"-59 0 LINE"
);
}
);
};
layerId = "8956C7A5-95B5-4256-B2D2-E489185594C4";
paths = (
{
closed = 1;
nodes = (
"292 46 LINE",
"186 46 OFFCURVE",
"39 -28 OFFCURVE",
"39 -128 CURVE SMOOTH",
"39 -194 OFFCURVE",
"102 -231 OFFCURVE",
"181 -231 CURVE SMOOTH",
"216 -231 OFFCURVE",
"254 -219 OFFCURVE",
"268 -211 CURVE",
"244 -128 LINE",
"231 -134 OFFCURVE",
"217 -139 OFFCURVE",
"192 -139 CURVE SMOOTH",
"178 -139 OFFCURVE",
"154 -131 OFFCURVE",
"154 -106 CURVE SMOOTH",
"154 -53 OFFCURVE",
"257 0 OFFCURVE",
"332 0 CURVE"
);
},
{
closed = 1;
nodes = (
"192 0 LINE",
"392 0 LINE",
"423 134 LINE",
"223 134 LINE"
);
},
{
closed = 1;
nodes = (
"125 372 LINE",
"375 372 LINE",
"406 506 LINE",
"156 506 LINE"
);
},
{
closed = 1;
nodes = (
"299 0 LINE",
"416 506 LINE",
"249 506 LINE",
"132 0 LINE"
);
},
{
closed = 1;
nodes = (
"267 621 OFFCURVE",
"305 582 OFFCURVE",
"354 582 CURVE SMOOTH",
"401 582 OFFCURVE",
"440 621 OFFCURVE",
"440 669 CURVE SMOOTH",
"440 717 OFFCURVE",
"401 756 OFFCURVE",
"354 756 CURVE SMOOTH",
"305 756 OFFCURVE",
"267 717 OFFCURVE",
"267 669 CURVE SMOOTH"
);
}
);
width = 469;
},
{
background = {
paths = (
{
closed = 1;
nodes = (
"56 506 LINE",
"316 506 LINE",
"230 134 LINE",
"323 134 LINE",
"292 0 LINE",
"226 0 LINE",
"198 -1 LINE",
"138 -19 LINE",
"87 -49 LINE",
"54 -87 LINE",
"54 -106 LINE",
"54 -125 LINE",
"81 -139 LINE",
"92 -139 LINE",
"111 -139 LINE",
"134 -133 LINE",
"144 -128 LINE",
"168 -211 LINE",
"157 -217 LINE",
"107 -231 LINE",
"81 -231 LINE",
"51 -231 LINE",
"0 -217 LINE",
"-39 -191 LINE",
"-61 -153 LINE",
"-61 -128 LINE",
"-61 -89 LINE",
"-8 -23 LINE",
"32 0 LINE",
"118 372 LINE",
"25 372 LINE"
);
},
{
closed = 1;
nodes = (
"167 669 LINE",
"167 705 LINE",
"217 756 LINE",
"254 756 LINE",
"272 756 LINE",
"303 742 LINE",
"326 719 LINE",
"340 687 LINE",
"340 669 LINE",
"340 651 LINE",
"326 619 LINE",
"303 596 LINE",
"272 582 LINE",
"254 582 LINE",
"217 582 LINE",
"167 633 LINE"
);
},
{
closed = 1;
nodes = (
"-45 760 LINE",
"335 760 LINE",
"335 0 LINE",
"-45 0 LINE"
);
}
);
};
layerId = "EEC59083-BA83-4EFB-8B50-D01213A5FD15";
paths = (
{
closed = 1;
nodes = (
"217 38 LINE",
"146 29 OFFCURVE",
"39 -27 OFFCURVE",
"39 -127 CURVE SMOOTH",
"39 -193 OFFCURVE",
"97 -230 OFFCURVE",
"176 -230 CURVE SMOOTH",
"213 -230 OFFCURVE",
"246 -219 OFFCURVE",
"263 -209 CURVE",
"242 -147 LINE",
"229 -153 OFFCURVE",
"204 -158 OFFCURVE",
"179 -158 CURVE SMOOTH",
"146 -158 OFFCURVE",
"124 -137 OFFCURVE",
"124 -110 CURVE SMOOTH",
"124 -58 OFFCURVE",
"185 0 OFFCURVE",
"269 0 CURVE"
);
},
{
closed = 1;
nodes = (
"151 0 LINE",
"296 0 LINE",
"315 84 LINE",
"170 84 LINE"
);
},
{
closed = 1;
nodes = (
"123 422 LINE",
"308 422 LINE",
"328 506 LINE",
"143 506 LINE"
);
},
{
closed = 1;
nodes = (
"215 0 LINE",
"332 506 LINE",
"233 506 LINE",
"116 0 LINE"
);
},
{
closed = 1;
nodes = (
"236 649 OFFCURVE",
"265 618 OFFCURVE",
"301 618 CURVE SMOOTH",
"336 618 OFFCURVE",
"365 649 OFFCURVE",
"365 684 CURVE SMOOTH",
"365 719 OFFCURVE",
"336 748 OFFCURVE",
"301 748 CURVE SMOOTH",
"265 748 OFFCURVE",
"236 719 OFFCURVE",
"236 684 CURVE SMOOTH"
);
}
);
width = 354;
}
);
leftKerningGroup = i;
rightKerningGroup = i;
unicode = 012F;
},
{
glyphname = jdotless;
layers = (
{
anchors = (
{
name = bottom;
position = "{105, 0}";
},
{
name = top;
position = "{221, 506}";
}
);
layerId = "EEC59083-BA83-4EFB-8B50-D01213A5FD15";
paths = (
{
closed = 1;
nodes = (
"71 422 LINE",
"170 422 LINE",
"66 -28 LINE",
"49 -103 OFFCURVE",
"13 -151 OFFCURVE",
"-45 -159 CURVE",
"-53 -230 LINE",
"56 -227 OFFCURVE",
"136 -156 OFFCURVE",
"163 -37 CURVE SMOOTH",
"289 506 LINE",
"91 506 LINE"
);
}
);
width = 326;
},
{
anchors = (
{
name = bottom;
position = "{115, 0}";
},
{
name = top;
position = "{231, 506}";
}
);
layerId = "8956C7A5-95B5-4256-B2D2-E489185594C4";
paths = (
{
closed = 1;
nodes = (
"55 372 LINE",
"169 372 LINE",
"79 -16 LINE",
"67 -71 OFFCURVE",
"27 -100 OFFCURVE",
"-16 -100 CURVE",
"-35 -229 LINE",
"114 -229 OFFCURVE",
"209 -165 OFFCURVE",
"247 -1 CURVE SMOOTH",
"364 506 LINE",
"86 506 LINE"
);
}
);
width = 345;
}
);
leftKerningGroup = n;
rightKerningGroup = jdotless;
unicode = 0237;
},
{
glyphname = k;
layers = (
{
anchors = (
{
name = bottom;
position = "{235, 0}";
},
{
name = top;
position = "{238, 760}";
}
);
layerId = "EEC59083-BA83-4EFB-8B50-D01213A5FD15";
paths = (
{
closed = 1;
nodes = (
"83 676 LINE",
"173 676 LINE",
"18 0 LINE",
"117 0 LINE",
"170 229 LINE",
"229 229 LINE",
"381 0 LINE",
"488 0 LINE",
"507 83 LINE",
"446 83 LINE",
"324 261 LINE",
"513 422 LINE",
"566 422 LINE",
"586 506 LINE",
"422 506 LINE",
"404 430 LINE",
"238 289 LINE",
"183 289 LINE",
"292 760 LINE",
"103 760 LINE"
);
}
);
width = 603;
},
{
anchors = (
{
name = bottom;
position = "{260, 0}";
},
{
name = top;
position = "{284, 760}";
}
);
layerId = "8956C7A5-95B5-4256-B2D2-E489185594C4";
paths = (
{
closed = 1;
nodes = (
"65 626 LINE",
"162 626 LINE",
"18 0 LINE",
"184 0 LINE",
"229 198 LINE",
"292 198 LINE",
"388 0 LINE",
"535 0 LINE",
"566 134 LINE",
"490 134 LINE",
"424 263 LINE",
"539 372 LINE",
"607 372 LINE",
"638 506 LINE",
"415 506 LINE",
"394 416 LINE",
"316 333 LINE",
"260 333 LINE",
"359 760 LINE",
"96 760 LINE"
);
}
);
width = 662;
}
);
leftKerningGroup = I;
rightKerningGroup = k;
unicode = 006B;
},
{
color = 6;
glyphname = kcommaaccent;
layers = (
{
background = {
paths = (
{
closed = 1;
nodes = (
"128 760 LINE",
"391 760 LINE",
"292 333 LINE",
"348 333 LINE",
"426 416 LINE",
"447 506 LINE",
"670 506 LINE",
"639 372 LINE",
"571 372 LINE",
"456 263 LINE",
"522 134 LINE",
"598 134 LINE",
"567 0 LINE",
"420 0 LINE",
"324 198 LINE",
"261 198 LINE",
"216 0 LINE",
"50 0 LINE",
"194 626 LINE",
"97 626 LINE"
);
},
{
closed = 1;
nodes = (
"277 -14 LINE",
"418 -65 LINE",
"322 -230 LINE",
"222 -195 LINE"
);
},
{
closed = 1;
nodes = (
"0 760 LINE",
"640 760 LINE",
"640 0 LINE",
"0 0 LINE"
);
}
);
};
components = (
{
name = k;
},
{
name = commaaccentcomb;
transform = "{1, 0, 0, 1, 229, 0}";
}
);
layerId = "8956C7A5-95B5-4256-B2D2-E489185594C4";
width = 662;
},
{
background = {
paths = (
{
closed = 1;
nodes = (
"128 760 LINE",
"391 760 LINE",
"292 333 LINE",
"348 333 LINE",
"426 416 LINE",
"447 506 LINE",
"670 506 LINE",
"639 372 LINE",
"571 372 LINE",
"456 263 LINE",
"522 134 LINE",
"598 134 LINE",
"567 0 LINE",
"420 0 LINE",
"324 198 LINE",
"261 198 LINE",
"216 0 LINE",
"50 0 LINE",
"194 626 LINE",
"97 626 LINE"
);
},
{
closed = 1;
nodes = (
"277 -14 LINE",
"418 -65 LINE",
"322 -230 LINE",
"222 -195 LINE"
);
},
{
closed = 1;
nodes = (
"0 760 LINE",
"640 760 LINE",
"640 0 LINE",
"0 0 LINE"
);
}
);
};
components = (
{
name = k;
},
{
name = commaaccentcomb;
transform = "{1, 0, 0, 1, 202, 0}";
}
);
layerId = "EEC59083-BA83-4EFB-8B50-D01213A5FD15";
width = 603;
}
);
leftKerningGroup = l;
rightKerningGroup = k;
unicode = 0137;
},
{
glyphname = l;
layers = (
{
anchors = (
{
name = bottom;
position = "{101, 0}";
},
{
name = center;
position = "{146, 380}";
},
{
name = top;
position = "{207, 760}";
},
{
name = topright;
position = "{287, 506}";
}
);
layerId = "EEC59083-BA83-4EFB-8B50-D01213A5FD15";
paths = (
{
closed = 1;
nodes = (
"69 676 LINE",
"166 676 LINE",
"11 0 LINE",
"194 0 LINE",
"213 84 LINE",
"129 84 LINE",
"285 760 LINE",
"89 760 LINE"
);
}
);
width = 318;
},
{
anchors = (
{
name = bottom;
position = "{121, 0}";
},
{
name = center;
position = "{183, 389}";
},
{
name = top;
position = "{242, 760}";
},
{
name = topright;
position = "{345, 506}";
}
);
layerId = "8956C7A5-95B5-4256-B2D2-E489185594C4";
paths = (
{
closed = 1;
nodes = (
"58 626 LINE",
"155 626 LINE",
"11 0 LINE",
"269 0 LINE",
"300 134 LINE",
"208 134 LINE",
"352 760 LINE",
"89 760 LINE"
);
}
);
width = 378;
}
);
leftKerningGroup = I;
rightKerningGroup = l;
unicode = 006C;
},
